Hubballi-Regular-40-36.ufo
<glyph name="exclam" format="1">
  <advance width="337"/>
  <unicode hex="0021"/>
  <outline>
    <contour>
      <point x="127" y="276" type="curve" smooth="yes"/>
      <point x="134" y="554" type="line" smooth="yes"/>
      <point x="135" y="576"/>
      <point x="153" y="594"/>
      <point x="175" y="593" type="curve" smooth="yes"/>
      <point x="197" y="592"/>
      <point x="215" y="574"/>
      <point x="214" y="552" type="curve" smooth="yes"/>
      <point x="207" y="274" type="line" smooth="yes"/>
      <point x="206" y="252"/>
      <point x="188" y="234"/>
      <point x="166" y="235" type="curve" smooth="yes"/>
      <point x="144" y="236"/>
      <point x="126" y="254"/>
    </contour>
    <component base="period" xOffset="49"/>
    <component base="period" xOffset="49"/>
  </outline>
</glyph>
<glyph name="numbersign" format="1">
  <advance width="586"/>
  <unicode hex="0023"/>
  <outline>
    <contour>
      <point x="514" y="503" type="curve" smooth="yes"/>
      <point x="338" y="19" type="line" smooth="yes"/>
      <point x="330" y="-1"/>
      <point x="307" y="-12"/>
      <point x="286" y="-5" type="curve" smooth="yes"/>
      <point x="266" y="3"/>
      <point x="255" y="26"/>
      <point x="262" y="47" type="curve" smooth="yes"/>
      <point x="438" y="531" type="line" smooth="yes"/>
      <point x="446" y="551"/>
      <point x="469" y="562"/>
      <point x="490" y="555" type="curve" smooth="yes"/>
      <point x="510" y="547"/>
      <point x="521" y="524"/>
    </contour>
    <contour>
      <point x="314" y="503" type="curve" smooth="yes"/>
      <point x="138" y="19" type="line" smooth="yes"/>
      <point x="130" y="-1"/>
      <point x="107" y="-12"/>
      <point x="86" y="-5" type="curve" smooth="yes"/>
      <point x="66" y="3"/>
      <point x="55" y="26"/>
      <point x="62" y="47" type="curve" smooth="yes"/>
      <point x="238" y="531" type="line" smooth="yes"/>
      <point x="246" y="551"/>
      <point x="269" y="562"/>
      <point x="290" y="555" type="curve" smooth="yes"/>
      <point x="310" y="547"/>
      <point x="321" y="524"/>
    </contour>
    <contour>
      <point x="527" y="348" type="curve" smooth="yes"/>
      <point x="123" y="348" type="line" smooth="yes"/>
      <point x="101" y="348"/>
      <point x="83" y="366"/>
      <point x="83" y="388" type="curve" smooth="yes"/>
      <point x="83" y="410"/>
      <point x="101" y="428"/>
      <point x="123" y="428" type="curve" smooth="yes"/>
      <point x="527" y="428" type="line" smooth="yes"/>
      <point x="549" y="428"/>
      <point x="567" y="410"/>
      <point x="567" y="388" type="curve" smooth="yes"/>
      <point x="567" y="366"/>
      <point x="549" y="348"/>
    </contour>
    <contour>
      <point x="458" y="148" type="curve" smooth="yes"/>
      <point x="54" y="148" type="line" smooth="yes"/>
      <point x="32" y="148"/>
      <point x="14" y="166"/>
      <point x="14" y="188" type="curve" smooth="yes"/>
      <point x="14" y="210"/>
      <point x="32" y="228"/>
      <point x="54" y="228" type="curve" smooth="yes"/>
      <point x="458" y="228" type="line" smooth="yes"/>
      <point x="480" y="228"/>
      <point x="498" y="210"/>
      <point x="498" y="188" type="curve" smooth="yes"/>
      <point x="498" y="166"/>
      <point x="480" y="148"/>
    </contour>
  </outline>
</glyph>
<glyph name="dollar" format="1">
  <advance width="584"/>
  <unicode hex="0024"/>
  <outline>
    <contour>
      <point x="429" y="456" type="curve" smooth="yes"/>
      <point x="379" y="474"/>
      <point x="343" y="484"/>
      <point x="270" y="484" type="curve" smooth="yes"/>
      <point x="210" y="484"/>
      <point x="154" y="459"/>
      <point x="154" y="420" type="curve" smooth="yes"/>
      <point x="154" y="380"/>
      <point x="193" y="346"/>
      <point x="301" y="327" type="curve" smooth="yes"/>
      <point x="480" y="293"/>
      <point x="521" y="222"/>
      <point x="521" y="146" type="curve" smooth="yes"/>
      <point x="521" y="68"/>
      <point x="467" y="-16"/>
      <point x="293" y="-16" type="curve" smooth="yes"/>
      <point x="218" y="-16"/>
      <point x="147" y="-1"/>
      <point x="82" y="31" type="curve" smooth="yes"/>
      <point x="62" y="40"/>
      <point x="54" y="65"/>
      <point x="63" y="84" type="curve" smooth="yes"/>
      <point x="72" y="104"/>
      <point x="97" y="112"/>
      <point x="116" y="103" type="curve" smooth="yes"/>
      <point x="171" y="77"/>
      <point x="230" y="64"/>
      <point x="293" y="64" type="curve" smooth="yes"/>
      <point x="381" y="64"/>
      <point x="441" y="96"/>
      <point x="441" y="146" type="curve" smooth="yes"/>
      <point x="441" y="198"/>
      <point x="388" y="229"/>
      <point x="287" y="249" type="curve" smooth="yes"/>
      <point x="87" y="282"/>
      <point x="74" y="360"/>
      <point x="74" y="420" type="curve"/>
      <point x="74" y="487"/>
      <point x="134" y="564"/>
      <point x="270" y="564" type="curve" smooth="yes"/>
      <point x="355" y="564"/>
      <point x="397" y="552"/>
      <point x="455" y="532" type="curve" smooth="yes"/>
      <point x="476" y="525"/>
      <point x="487" y="501"/>
      <point x="480" y="481" type="curve" smooth="yes"/>
      <point x="473" y="460"/>
      <point x="449" y="449"/>
    </contour>
    <contour>
      <point x="329" y="616" type="curve" smooth="yes"/>
      <point x="329" y="-74" type="line" smooth="yes"/>
      <point x="329" y="-96"/>
      <point x="311" y="-114"/>
      <point x="289" y="-114" type="curve" smooth="yes"/>
      <point x="267" y="-114"/>
      <point x="249" y="-96"/>
      <point x="249" y="-74" type="curve" smooth="yes"/>
      <point x="249" y="616" type="line" smooth="yes"/>
      <point x="249" y="638"/>
      <point x="267" y="656"/>
      <point x="289" y="656" type="curve" smooth="yes"/>
      <point x="311" y="656"/>
      <point x="329" y="638"/>
    </contour>
  </outline>
</glyph>
<glyph name="percent" format="1">
  <advance width="806"/>
  <unicode hex="0025"/>
  <outline>
    <contour>
      <point x="208" y="565" type="curve" smooth="yes"/>
      <point x="286" y="565"/>
      <point x="356" y="497"/>
      <point x="356" y="389" type="curve" smooth="yes"/>
      <point x="356" y="288"/>
      <point x="297" y="213"/>
      <point x="208" y="213" type="curve" smooth="yes"/>
      <point x="126" y="213"/>
      <point x="59" y="288"/>
      <point x="59" y="388" type="curve"/>
      <point x="59" y="497"/>
      <point x="125" y="565"/>
    </contour>
    <contour>
      <point x="604" y="335" type="curve" smooth="yes"/>
      <point x="682" y="335"/>
      <point x="752" y="267"/>
      <point x="752" y="159" type="curve" smooth="yes"/>
      <point x="752" y="58"/>
      <point x="693" y="-17"/>
      <point x="604" y="-17" type="curve" smooth="yes"/>
      <point x="522" y="-17"/>
      <point x="455" y="58"/>
      <point x="455" y="158" type="curve" smooth="yes"/>
      <point x="455" y="267"/>
      <point x="521" y="335"/>
    </contour>
    <contour>
      <point x="590" y="498" type="curve" smooth="yes"/>
      <point x="307" y="13" type="line" smooth="yes"/>
      <point x="296" y="-6"/>
      <point x="270" y="-12"/>
      <point x="252" y="-2" type="curve" smooth="yes"/>
      <point x="233" y="9"/>
      <point x="227" y="35"/>
      <point x="237" y="53" type="curve" smooth="yes"/>
      <point x="520" y="538" type="line" smooth="yes"/>
      <point x="531" y="557"/>
      <point x="557" y="563"/>
      <point x="575" y="553" type="curve" smooth="yes"/>
      <point x="594" y="542"/>
      <point x="600" y="516"/>
    </contour>
    <contour>
      <point x="208" y="485" type="curve" smooth="yes"/>
      <point x="163" y="485"/>
      <point x="139" y="439"/>
      <point x="139" y="388" type="curve" smooth="yes"/>
      <point x="139" y="342"/>
      <point x="164" y="293"/>
      <point x="208" y="293" type="curve" smooth="yes"/>
      <point x="257" y="293"/>
      <point x="276" y="342"/>
      <point x="276" y="389" type="curve" smooth="yes"/>
      <point x="276" y="439"/>
      <point x="250" y="485"/>
    </contour>
    <contour>
      <point x="604" y="255" type="curve" smooth="yes"/>
      <point x="559" y="255"/>
      <point x="535" y="209"/>
      <point x="535" y="158" type="curve" smooth="yes"/>
      <point x="535" y="112"/>
      <point x="560" y="63"/>
      <point x="604" y="63" type="curve" smooth="yes"/>
      <point x="653" y="63"/>
      <point x="672" y="112"/>
      <point x="672" y="159" type="curve" smooth="yes"/>
      <point x="672" y="209"/>
      <point x="646" y="255"/>
    </contour>
  </outline>
</glyph>
<glyph name="ampersand" format="1">
  <advance width="644"/>
  <unicode hex="0026"/>
  <outline>
    <contour>
      <point x="558" y="264" type="curve" smooth="yes"/>
      <point x="472" y="142" type="line" smooth="yes"/>
      <point x="386" y="20"/>
      <point x="321" y="-15"/>
      <point x="238" y="-15" type="curve" smooth="yes"/>
      <point x="127" y="-15"/>
      <point x="57" y="57"/>
      <point x="57" y="143" type="curve" smooth="yes"/>
      <point x="57" y="218"/>
      <point x="85" y="283"/>
      <point x="262" y="356" type="curve" smooth="yes"/>
      <point x="304" y="373"/>
      <point x="329" y="396"/>
      <point x="329" y="429" type="curve" smooth="yes"/>
      <point x="329" y="463"/>
      <point x="298" y="485"/>
      <point x="263" y="485" type="curve" smooth="yes"/>
      <point x="228" y="485"/>
      <point x="200" y="462"/>
      <point x="200" y="425" type="curve" smooth="yes"/>
      <point x="200" y="380"/>
      <point x="238" y="349"/>
      <point x="285" y="308" type="curve" smooth="yes"/>
      <point x="566" y="63" type="line" smooth="yes"/>
      <point x="583" y="49"/>
      <point x="584" y="23"/>
      <point x="570" y="7" type="curve" smooth="yes"/>
      <point x="556" y="-10"/>
      <point x="530" y="-11"/>
      <point x="514" y="3" type="curve" smooth="yes"/>
      <point x="233" y="248" type="line" smooth="yes"/>
      <point x="162" y="311"/>
      <point x="120" y="362"/>
      <point x="120" y="425" type="curve"/>
      <point x="120" y="508"/>
      <point x="180" y="565"/>
      <point x="263" y="565" type="curve" smooth="yes"/>
      <point x="348" y="565"/>
      <point x="409" y="503"/>
      <point x="409" y="429" type="curve" smooth="yes"/>
      <point x="409" y="368"/>
      <point x="376" y="317"/>
      <point x="292" y="282" type="curve" smooth="yes"/>
      <point x="177" y="235"/>
      <point x="137" y="198"/>
      <point x="137" y="143" type="curve" smooth="yes"/>
      <point x="137" y="95"/>
      <point x="183" y="65"/>
      <point x="238" y="65" type="curve" smooth="yes"/>
      <point x="301" y="65"/>
      <point x="344" y="100"/>
      <point x="406" y="188" type="curve" smooth="yes"/>
      <point x="492" y="310" type="line" smooth="yes"/>
      <point x="505" y="328"/>
      <point x="530" y="332"/>
      <point x="548" y="320" type="curve" smooth="yes"/>
      <point x="566" y="307"/>
      <point x="570" y="282"/>
    </contour>
  </outline>
</glyph>
<glyph name="parenleft" format="1">
  <advance width="325"/>
  <unicode hex="0028"/>
  <outline>
    <contour>
      <point x="268" y="586" type="curve" smooth="yes"/>
      <point x="199" y="510"/>
      <point x="142" y="393"/>
      <point x="142" y="269" type="curve" smooth="yes"/>
      <point x="142" y="148"/>
      <point x="194" y="37"/>
      <point x="267" y="-38" type="curve" smooth="yes"/>
      <point x="282" y="-54"/>
      <point x="281" y="-80"/>
      <point x="266" y="-95" type="curve" smooth="yes"/>
      <point x="250" y="-110"/>
      <point x="224" y="-109"/>
      <point x="209" y="-94" type="curve" smooth="yes"/>
      <point x="124" y="-5"/>
      <point x="62" y="126"/>
      <point x="62" y="269" type="curve"/>
      <point x="62" y="413"/>
      <point x="127" y="550"/>
      <point x="208" y="640" type="curve" smooth="yes"/>
      <point x="223" y="656"/>
      <point x="249" y="657"/>
      <point x="265" y="643" type="curve" smooth="yes"/>
      <point x="281" y="628"/>
      <point x="282" y="602"/>
    </contour>
  </outline>
</glyph>
<glyph name="asterisk" format="1">
  <advance width="423"/>
  <unicode hex="002A"/>
  <outline>
    <contour>
      <point x="250" y="517" type="curve" smooth="yes"/>
      <point x="250" y="291" type="line" smooth="yes"/>
      <point x="250" y="269"/>
      <point x="232" y="251"/>
      <point x="210" y="251" type="curve" smooth="yes"/>
      <point x="188" y="251"/>
      <point x="170" y="269"/>
      <point x="170" y="291" type="curve" smooth="yes"/>
      <point x="170" y="517" type="line" smooth="yes"/>
      <point x="170" y="539"/>
      <point x="188" y="557"/>
      <point x="210" y="557" type="curve" smooth="yes"/>
      <point x="232" y="557"/>
      <point x="250" y="539"/>
    </contour>
    <contour>
      <point x="124" y="499" type="curve" smooth="yes"/>
      <point x="337" y="375" type="line" smooth="yes"/>
      <point x="356" y="364"/>
      <point x="362" y="339"/>
      <point x="352" y="320" type="curve" smooth="yes"/>
      <point x="341" y="301"/>
      <point x="316" y="295"/>
      <point x="297" y="305" type="curve" smooth="yes"/>
      <point x="84" y="429" type="line" smooth="yes"/>
      <point x="65" y="440"/>
      <point x="59" y="465"/>
      <point x="69" y="484" type="curve" smooth="yes"/>
      <point x="80" y="503"/>
      <point x="105" y="509"/>
    </contour>
    <contour>
      <point x="84" y="375" type="curve" smooth="yes"/>
      <point x="297" y="499" type="line" smooth="yes"/>
      <point x="316" y="509"/>
      <point x="341" y="503"/>
      <point x="352" y="484" type="curve" smooth="yes"/>
      <point x="362" y="465"/>
      <point x="356" y="440"/>
      <point x="337" y="429" type="curve" smooth="yes"/>
      <point x="124" y="305" type="line" smooth="yes"/>
      <point x="105" y="295"/>
      <point x="80" y="301"/>
      <point x="69" y="320" type="curve" smooth="yes"/>
      <point x="59" y="339"/>
      <point x="65" y="364"/>
    </contour>
  </outline>
</glyph>
<glyph name="comma" format="1">
  <advance width="240"/>
  <unicode hex="002C"/>
  <outline>
    <contour>
      <point x="153" y="100" type="curve" smooth="yes"/>
      <point x="158" y="85"/>
      <point x="161" y="62"/>
      <point x="161" y="38" type="curve" smooth="yes"/>
      <point x="161" y="-17"/>
      <point x="142" y="-71"/>
      <point x="111" y="-113" type="curve" smooth="yes"/>
      <point x="98" y="-130"/>
      <point x="72" y="-134"/>
      <point x="55" y="-121" type="curve" smooth="yes"/>
      <point x="38" y="-108"/>
      <point x="34" y="-82"/>
      <point x="47" y="-65" type="curve" smooth="yes"/>
      <point x="68" y="-37"/>
      <point x="81" y="1"/>
      <point x="81" y="38" type="curve"/>
      <point x="81" y="52"/>
      <point x="80" y="65"/>
      <point x="77" y="74" type="curve" smooth="yes"/>
      <point x="70" y="95"/>
      <point x="82" y="118"/>
      <point x="102" y="125" type="curve" smooth="yes"/>
      <point x="123" y="132"/>
      <point x="146" y="120"/>
    </contour>
  </outline>
</glyph>
<glyph name="hyphen" format="1">
  <advance width="430"/>
  <unicode hex="002D"/>
  <outline>
    <contour>
      <point x="114" y="268" type="curve" smooth="yes"/>
      <point x="316" y="268" type="line" smooth="yes"/>
      <point x="338" y="268"/>
      <point x="356" y="250"/>
      <point x="356" y="228" type="curve" smooth="yes"/>
      <point x="356" y="206"/>
      <point x="338" y="188"/>
      <point x="316" y="188" type="curve" smooth="yes"/>
      <point x="114" y="188" type="line" smooth="yes"/>
      <point x="92" y="188"/>
      <point x="74" y="206"/>
      <point x="74" y="228" type="curve" smooth="yes"/>
      <point x="74" y="250"/>
      <point x="92" y="268"/>
    </contour>
  </outline>
</glyph>
<glyph name="period" format="1">
  <advance width="235"/>
  <unicode hex="002E"/>
  <outline>
    <contour>
      <point x="119" y="126" type="curve" smooth="yes"/>
      <point x="152" y="126"/>
      <point x="179" y="99"/>
      <point x="179" y="57" type="curve" smooth="yes"/>
      <point x="179" y="6"/>
      <point x="152" y="-12"/>
      <point x="119" y="-12" type="curve" smooth="yes"/>
      <point x="90" y="-12"/>
      <point x="58" y="8"/>
      <point x="58" y="57" type="curve"/>
      <point x="58" y="98"/>
      <point x="90" y="126"/>
    </contour>
    <contour>
      <point x="119" y="46" type="curve" smooth="yes"/>
      <point x="124" y="46"/>
      <point x="138" y="44"/>
      <point x="138" y="57" type="curve" smooth="yes"/>
      <point x="138" y="72"/>
      <point x="124" y="68"/>
      <point x="119" y="68" type="curve" smooth="yes"/>
      <point x="114" y="68"/>
      <point x="99" y="74"/>
      <point x="99" y="57" type="curve" smooth="yes"/>
      <point x="99" y="43"/>
      <point x="114" y="46"/>
    </contour>
  </outline>
</glyph>
<glyph name="slash" format="1">
  <advance width="325"/>
  <unicode hex="002F"/>
  <outline>
    <contour>
      <point x="319" y="599" type="curve" smooth="yes"/>
      <point x="70" y="-81" type="line" smooth="yes"/>
      <point x="62" y="-101"/>
      <point x="39" y="-112"/>
      <point x="18" y="-105" type="curve" smooth="yes"/>
      <point x="-2" y="-97"/>
      <point x="-13" y="-74"/>
      <point x="-6" y="-53" type="curve" smooth="yes"/>
      <point x="243" y="627" type="line" smooth="yes"/>
      <point x="251" y="647"/>
      <point x="274" y="658"/>
      <point x="295" y="651" type="curve" smooth="yes"/>
      <point x="315" y="643"/>
      <point x="326" y="620"/>
    </contour>
  </outline>
</glyph>
<glyph name="zero" format="1">
  <advance width="576"/>
  <unicode hex="0030"/>
  <outline>
    <contour>
      <point x="289" y="565" type="curve" smooth="yes"/>
      <point x="416" y="565"/>
      <point x="526" y="450"/>
      <point x="526" y="276" type="curve" smooth="yes"/>
      <point x="526" y="111"/>
      <point x="435" y="-14"/>
      <point x="289" y="-14" type="curve" smooth="yes"/>
      <point x="154" y="-14"/>
      <point x="49" y="112"/>
      <point x="49" y="274" type="curve"/>
      <point x="49" y="450"/>
      <point x="152" y="565"/>
    </contour>
    <contour>
      <point x="289" y="485" type="curve" smooth="yes"/>
      <point x="190" y="485"/>
      <point x="129" y="392"/>
      <point x="129" y="274" type="curve" smooth="yes"/>
      <point x="129" y="166"/>
      <point x="192" y="66"/>
      <point x="289" y="66" type="curve" smooth="yes"/>
      <point x="395" y="66"/>
      <point x="446" y="167"/>
      <point x="446" y="276" type="curve" smooth="yes"/>
      <point x="446" y="392"/>
      <point x="380" y="485"/>
    </contour>
  </outline>
</glyph>
<glyph name="one" format="1">
  <advance width="330"/>
  <unicode hex="0031"/>
  <outline>
    <contour>
      <point x="242" y="506" type="curve" smooth="yes"/>
      <point x="242" y="33" type="line" smooth="yes"/>
      <point x="242" y="11"/>
      <point x="224" y="-7"/>
      <point x="202" y="-7" type="curve" smooth="yes"/>
      <point x="180" y="-7"/>
      <point x="162" y="11"/>
      <point x="162" y="33" type="curve" smooth="yes"/>
      <point x="162" y="506" type="line" smooth="yes"/>
      <point x="162" y="528"/>
      <point x="180" y="546"/>
      <point x="202" y="546" type="curve" smooth="yes"/>
      <point x="224" y="546"/>
      <point x="242" y="528"/>
    </contour>
    <contour>
      <point x="220" y="477" type="curve" smooth="yes"/>
      <point x="90" y="411" type="line" smooth="yes"/>
      <point x="71" y="402"/>
      <point x="46" y="410"/>
      <point x="36" y="429" type="curve" smooth="yes"/>
      <point x="27" y="448"/>
      <point x="35" y="473"/>
      <point x="54" y="483" type="curve" smooth="yes"/>
      <point x="184" y="549" type="line" smooth="yes"/>
      <point x="203" y="558"/>
      <point x="228" y="550"/>
      <point x="238" y="531" type="curve" smooth="yes"/>
      <point x="247" y="512"/>
      <point x="239" y="487"/>
    </contour>
  </outline>
</glyph>
<glyph name="two" format="1">
  <advance width="518"/>
  <unicode hex="0032"/>
  <outline>
    <contour>
      <point x="63" y="71" type="curve" smooth="yes"/>
      <point x="229" y="230" type="line" smooth="yes"/>
      <point x="323" y="320"/>
      <point x="360" y="355"/>
      <point x="360" y="410" type="curve" smooth="yes"/>
      <point x="360" y="451"/>
      <point x="323" y="484"/>
      <point x="263" y="484" type="curve" smooth="yes"/>
      <point x="218" y="484"/>
      <point x="173" y="471"/>
      <point x="133" y="446" type="curve" smooth="yes"/>
      <point x="115" y="435"/>
      <point x="89" y="441"/>
      <point x="78" y="459" type="curve" smooth="yes"/>
      <point x="67" y="477"/>
      <point x="73" y="503"/>
      <point x="91" y="514" type="curve" smooth="yes"/>
      <point x="145" y="547"/>
      <point x="204" y="564"/>
      <point x="263" y="564" type="curve" smooth="yes"/>
      <point x="387" y="564"/>
      <point x="440" y="485"/>
      <point x="440" y="410" type="curve" smooth="yes"/>
      <point x="440" y="341"/>
      <point x="409" y="290"/>
      <point x="285" y="172" type="curve" smooth="yes"/>
      <point x="119" y="13" type="line" smooth="yes"/>
      <point x="103" y="-2"/>
      <point x="77" y="-1"/>
      <point x="62" y="14" type="curve" smooth="yes"/>
      <point x="47" y="30"/>
      <point x="48" y="56"/>
    </contour>
    <contour>
      <point x="433" y="-7" type="curve" smooth="yes"/>
      <point x="81" y="-7" type="line" smooth="yes"/>
      <point x="59" y="-7"/>
      <point x="41" y="11"/>
      <point x="41" y="33" type="curve" smooth="yes"/>
      <point x="41" y="55"/>
      <point x="59" y="73"/>
      <point x="81" y="73" type="curve" smooth="yes"/>
      <point x="433" y="73" type="line" smooth="yes"/>
      <point x="455" y="73"/>
      <point x="473" y="55"/>
      <point x="473" y="33" type="curve" smooth="yes"/>
      <point x="473" y="11"/>
      <point x="455" y="-7"/>
    </contour>
  </outline>
</glyph>
<glyph name="three" format="1">
  <advance width="522"/>
  <unicode hex="0033"/>
  <outline>
    <contour>
      <point x="120" y="558" type="curve" smooth="yes"/>
      <point x="417" y="558" type="line" smooth="yes"/>
      <point x="439" y="558"/>
      <point x="457" y="540"/>
      <point x="457" y="518" type="curve" smooth="yes"/>
      <point x="457" y="496"/>
      <point x="439" y="478"/>
      <point x="417" y="478" type="curve" smooth="yes"/>
      <point x="120" y="478" type="line" smooth="yes"/>
      <point x="98" y="478"/>
      <point x="80" y="496"/>
      <point x="80" y="518" type="curve" smooth="yes"/>
      <point x="80" y="540"/>
      <point x="98" y="558"/>
    </contour>
    <contour>
      <point x="119" y="97" type="curve" smooth="yes"/>
      <point x="157" y="81"/>
      <point x="204" y="69"/>
      <point x="260" y="69" type="curve" smooth="yes"/>
      <point x="342" y="69"/>
      <point x="392" y="105"/>
      <point x="392" y="165" type="curve" smooth="yes"/>
      <point x="392" y="223"/>
      <point x="341" y="255"/>
      <point x="271" y="255" type="curve" smooth="yes"/>
      <point x="229" y="255"/>
      <point x="196" y="248"/>
      <point x="176" y="242" type="curve" smooth="yes"/>
      <point x="156" y="235"/>
      <point x="132" y="247"/>
      <point x="126" y="268" type="curve" smooth="yes"/>
      <point x="119" y="288"/>
      <point x="131" y="312"/>
      <point x="152" y="318" type="curve" smooth="yes"/>
      <point x="176" y="326"/>
      <point x="219" y="335"/>
      <point x="271" y="335" type="curve" smooth="yes"/>
      <point x="403" y="335"/>
      <point x="472" y="261"/>
      <point x="472" y="165" type="curve" smooth="yes"/>
      <point x="472" y="69"/>
      <point x="410" y="-11"/>
      <point x="260" y="-11" type="curve" smooth="yes"/>
      <point x="192" y="-11"/>
      <point x="133" y="3"/>
      <point x="87" y="23" type="curve" smooth="yes"/>
      <point x="67" y="32"/>
      <point x="58" y="56"/>
      <point x="66" y="76" type="curve" smooth="yes"/>
      <point x="75" y="96"/>
      <point x="99" y="105"/>
    </contour>
    <contour>
      <point x="435" y="481" type="curve" smooth="yes"/>
      <point x="196" y="255" type="line" smooth="yes"/>
      <point x="181" y="240"/>
      <point x="155" y="241"/>
      <point x="140" y="257" type="curve" smooth="yes"/>
      <point x="125" y="272"/>
      <point x="126" y="298"/>
      <point x="142" y="313" type="curve" smooth="yes"/>
      <point x="381" y="539" type="line" smooth="yes"/>
      <point x="396" y="554"/>
      <point x="422" y="553"/>
      <point x="437" y="537" type="curve" smooth="yes"/>
      <point x="452" y="522"/>
      <point x="451" y="496"/>
    </contour>
  </outline>
</glyph>
<glyph name="four" format="1">
  <advance width="541"/>
  <unicode hex="0034"/>
  <outline>
    <contour>
      <point x="412" y="528" type="curve" smooth="yes"/>
      <point x="412" y="33" type="line" smooth="yes"/>
      <point x="412" y="11"/>
      <point x="394" y="-7"/>
      <point x="372" y="-7" type="curve" smooth="yes"/>
      <point x="350" y="-7"/>
      <point x="332" y="11"/>
      <point x="332" y="33" type="curve" smooth="yes"/>
      <point x="332" y="528" type="line" smooth="yes"/>
      <point x="332" y="550"/>
      <point x="350" y="568"/>
      <point x="372" y="568" type="curve" smooth="yes"/>
      <point x="394" y="568"/>
      <point x="412" y="550"/>
    </contour>
    <contour>
      <point x="396" y="494" type="curve" smooth="yes"/>
      <point x="97" y="132" type="line" smooth="yes"/>
      <point x="83" y="115"/>
      <point x="57" y="112"/>
      <point x="41" y="126" type="curve" smooth="yes"/>
      <point x="24" y="140"/>
      <point x="21" y="166"/>
      <point x="35" y="182" type="curve" smooth="yes"/>
      <point x="334" y="544" type="line" smooth="yes"/>
      <point x="348" y="561"/>
      <point x="374" y="564"/>
      <point x="390" y="550" type="curve" smooth="yes"/>
      <point x="407" y="536"/>
      <point x="410" y="510"/>
    </contour>
    <contour>
      <point x="76" y="197" type="curve" smooth="yes"/>
      <point x="480" y="197" type="line" smooth="yes"/>
      <point x="502" y="197"/>
      <point x="520" y="179"/>
      <point x="520" y="157" type="curve" smooth="yes"/>
      <point x="520" y="135"/>
      <point x="502" y="117"/>
      <point x="480" y="117" type="curve" smooth="yes"/>
      <point x="76" y="117" type="line" smooth="yes"/>
      <point x="54" y="117"/>
      <point x="36" y="135"/>
      <point x="36" y="157" type="curve" smooth="yes"/>
      <point x="36" y="179"/>
      <point x="54" y="197"/>
    </contour>
  </outline>
</glyph>
<glyph name="five" format="1">
  <advance width="531"/>
  <unicode hex="0035"/>
  <outline>
    <contour>
      <point x="149" y="558" type="curve" smooth="yes"/>
      <point x="406" y="558" type="line" smooth="yes"/>
      <point x="428" y="558"/>
      <point x="446" y="540"/>
      <point x="446" y="518" type="curve" smooth="yes"/>
      <point x="446" y="496"/>
      <point x="428" y="478"/>
      <point x="406" y="478" type="curve" smooth="yes"/>
      <point x="149" y="478" type="line" smooth="yes"/>
      <point x="127" y="478"/>
      <point x="109" y="496"/>
      <point x="109" y="518" type="curve" smooth="yes"/>
      <point x="109" y="540"/>
      <point x="127" y="558"/>
    </contour>
    <contour>
      <point x="118" y="100" type="curve" smooth="yes"/>
      <point x="157" y="82"/>
      <point x="212" y="69"/>
      <point x="271" y="69" type="curve" smooth="yes"/>
      <point x="354" y="69"/>
      <point x="397" y="114"/>
      <point x="397" y="177" type="curve" smooth="yes"/>
      <point x="397" y="236"/>
      <point x="346" y="273"/>
      <point x="275" y="273" type="curve" smooth="yes"/>
      <point x="217" y="273"/>
      <point x="174" y="258"/>
      <point x="146" y="245" type="curve" smooth="yes"/>
      <point x="126" y="236"/>
      <point x="102" y="244"/>
      <point x="93" y="264" type="curve" smooth="yes"/>
      <point x="84" y="284"/>
      <point x="92" y="308"/>
      <point x="112" y="317" type="curve" smooth="yes"/>
      <point x="148" y="334"/>
      <point x="201" y="353"/>
      <point x="275" y="353" type="curve" smooth="yes"/>
      <point x="406" y="353"/>
      <point x="477" y="274"/>
      <point x="477" y="177" type="curve" smooth="yes"/>
      <point x="477" y="74"/>
      <point x="416" y="-11"/>
      <point x="271" y="-11" type="curve" smooth="yes"/>
      <point x="198" y="-11"/>
      <point x="131" y="6"/>
      <point x="84" y="28" type="curve" smooth="yes"/>
      <point x="65" y="37"/>
      <point x="56" y="61"/>
      <point x="65" y="81" type="curve" smooth="yes"/>
      <point x="74" y="100"/>
      <point x="98" y="109"/>
    </contour>
    <contour>
      <point x="188" y="508" type="curve" smooth="yes"/>
      <point x="169" y="283" type="line" smooth="yes"/>
      <point x="167" y="261"/>
      <point x="147" y="244"/>
      <point x="126" y="246" type="curve" smooth="yes"/>
      <point x="104" y="248"/>
      <point x="87" y="268"/>
      <point x="89" y="289" type="curve" smooth="yes"/>
      <point x="108" y="514" type="line" smooth="yes"/>
      <point x="110" y="536"/>
      <point x="130" y="553"/>
      <point x="151" y="551" type="curve" smooth="yes"/>
      <point x="173" y="549"/>
      <point x="190" y="529"/>
    </contour>
  </outline>
</glyph>
<glyph name="six" format="1">
  <advance width="549"/>
  <unicode hex="0036"/>
  <outline>
    <contour>
      <point x="380" y="470" type="curve" smooth="yes"/>
      <point x="358" y="478"/>
      <point x="339" y="482"/>
      <point x="311" y="482" type="curve" smooth="yes"/>
      <point x="200" y="482"/>
      <point x="140" y="392"/>
      <point x="140" y="257" type="curve" smooth="yes"/>
      <point x="140" y="136"/>
      <point x="198" y="69"/>
      <point x="290" y="69" type="curve" smooth="yes"/>
      <point x="378" y="69"/>
      <point x="417" y="125"/>
      <point x="417" y="181" type="curve" smooth="yes"/>
      <point x="417" y="241"/>
      <point x="372" y="279"/>
      <point x="310" y="279" type="curve" smooth="yes"/>
      <point x="236" y="279"/>
      <point x="179" y="226"/>
      <point x="155" y="139" type="curve" smooth="yes"/>
      <point x="149" y="118"/>
      <point x="126" y="106"/>
      <point x="105" y="111" type="curve" smooth="yes"/>
      <point x="84" y="117"/>
      <point x="72" y="140"/>
      <point x="77" y="161" type="curve" smooth="yes"/>
      <point x="113" y="290"/>
      <point x="204" y="359"/>
      <point x="310" y="359" type="curve" smooth="yes"/>
      <point x="422" y="359"/>
      <point x="497" y="285"/>
      <point x="497" y="181" type="curve" smooth="yes"/>
      <point x="497" y="89"/>
      <point x="440" y="-11"/>
      <point x="290" y="-11" type="curve" smooth="yes"/>
      <point x="158" y="-11"/>
      <point x="60" y="72"/>
      <point x="60" y="257" type="curve"/>
      <point x="60" y="454"/>
      <point x="160" y="562"/>
      <point x="311" y="562" type="curve" smooth="yes"/>
      <point x="349" y="562"/>
      <point x="374" y="556"/>
      <point x="406" y="546" type="curve" smooth="yes"/>
      <point x="426" y="539"/>
      <point x="438" y="516"/>
      <point x="431" y="495" type="curve" smooth="yes"/>
      <point x="424" y="475"/>
      <point x="401" y="463"/>
    </contour>
  </outline>
</glyph>
<glyph name="seven" format="1">
  <advance width="476"/>
  <unicode hex="0037"/>
  <outline>
    <contour>
      <point x="451" y="498" type="curve" smooth="yes"/>
      <point x="413" y="427"/>
      <point x="310" y="287"/>
      <point x="281" y="236" type="curve" smooth="yes"/>
      <point x="257" y="193"/>
      <point x="237" y="140"/>
      <point x="237" y="88" type="curve" smooth="yes"/>
      <point x="237" y="33" type="line" smooth="yes"/>
      <point x="237" y="11"/>
      <point x="219" y="-7"/>
      <point x="197" y="-7" type="curve" smooth="yes"/>
      <point x="175" y="-7"/>
      <point x="157" y="11"/>
      <point x="157" y="33" type="curve" smooth="yes"/>
      <point x="157" y="88" type="line" smooth="yes"/>
      <point x="157" y="154"/>
      <point x="181" y="221"/>
      <point x="211" y="276" type="curve" smooth="yes"/>
      <point x="240" y="327"/>
      <point x="343" y="465"/>
      <point x="381" y="536" type="curve" smooth="yes"/>
      <point x="391" y="555"/>
      <point x="416" y="562"/>
      <point x="435" y="552" type="curve" smooth="yes"/>
      <point x="454" y="542"/>
      <point x="461" y="517"/>
    </contour>
    <contour>
      <point x="409" y="478" type="curve" smooth="yes"/>
      <point x="66" y="478" type="line" smooth="yes"/>
      <point x="44" y="478"/>
      <point x="26" y="496"/>
      <point x="26" y="518" type="curve" smooth="yes"/>
      <point x="26" y="540"/>
      <point x="44" y="558"/>
      <point x="66" y="558" type="curve" smooth="yes"/>
      <point x="409" y="558" type="line" smooth="yes"/>
      <point x="431" y="558"/>
      <point x="449" y="540"/>
      <point x="449" y="518" type="curve" smooth="yes"/>
      <point x="449" y="496"/>
      <point x="431" y="478"/>
    </contour>
  </outline>
</glyph>
<glyph name="eight" format="1">
  <advance width="568"/>
  <unicode hex="0038"/>
  <outline>
    <contour>
      <point x="285" y="335" type="curve" smooth="yes"/>
      <point x="429" y="335"/>
      <point x="508" y="259"/>
      <point x="508" y="160" type="curve" smooth="yes"/>
      <point x="508" y="70"/>
      <point x="456" y="-15"/>
      <point x="285" y="-15" type="curve" smooth="yes"/>
      <point x="124" y="-15"/>
      <point x="60" y="70"/>
      <point x="60" y="159" type="curve"/>
      <point x="60" y="259"/>
      <point x="132" y="335"/>
    </contour>
    <contour>
      <point x="285" y="565" type="curve" smooth="yes"/>
      <point x="415" y="565"/>
      <point x="482" y="499"/>
      <point x="482" y="412" type="curve" smooth="yes"/>
      <point x="482" y="330"/>
      <point x="426" y="255"/>
      <point x="285" y="255" type="curve" smooth="yes"/>
      <point x="137" y="255"/>
      <point x="86" y="331"/>
      <point x="86" y="412" type="curve"/>
      <point x="86" y="498"/>
      <point x="148" y="565"/>
    </contour>
    <contour>
      <point x="285" y="255" type="curve" smooth="yes"/>
      <point x="202" y="255"/>
      <point x="140" y="223"/>
      <point x="140" y="159" type="curve" smooth="yes"/>
      <point x="140" y="102"/>
      <point x="198" y="65"/>
      <point x="285" y="65" type="curve" smooth="yes"/>
      <point x="378" y="65"/>
      <point x="428" y="102"/>
      <point x="428" y="160" type="curve" smooth="yes"/>
      <point x="428" y="223"/>
      <point x="363" y="255"/>
    </contour>
    <contour>
      <point x="285" y="485" type="curve" smooth="yes"/>
      <point x="220" y="485"/>
      <point x="166" y="464"/>
      <point x="166" y="412" type="curve" smooth="yes"/>
      <point x="166" y="363"/>
      <point x="213" y="335"/>
      <point x="285" y="335" type="curve" smooth="yes"/>
      <point x="354" y="335"/>
      <point x="402" y="364"/>
      <point x="402" y="412" type="curve" smooth="yes"/>
      <point x="402" y="463"/>
      <point x="347" y="485"/>
    </contour>
  </outline>
</glyph>
<glyph name="nine" format="1">
  <advance width="546"/>
  <unicode hex="0039"/>
  <outline>
    <contour>
      <point x="166" y="82" type="curve" smooth="yes"/>
      <point x="189" y="76"/>
      <point x="209" y="70"/>
      <point x="238" y="70" type="curve" smooth="yes"/>
      <point x="355" y="70"/>
      <point x="406" y="150"/>
      <point x="406" y="278" type="curve" smooth="yes"/>
      <point x="406" y="403"/>
      <point x="351" y="482"/>
      <point x="256" y="482" type="curve" smooth="yes"/>
      <point x="175" y="482"/>
      <point x="132" y="428"/>
      <point x="132" y="372" type="curve" smooth="yes"/>
      <point x="132" y="303"/>
      <point x="175" y="266"/>
      <point x="247" y="266" type="curve" smooth="yes"/>
      <point x="324" y="266"/>
      <point x="372" y="314"/>
      <point x="409" y="374" type="curve" smooth="yes"/>
      <point x="420" y="392"/>
      <point x="446" y="398"/>
      <point x="464" y="387" type="curve" smooth="yes"/>
      <point x="482" y="376"/>
      <point x="488" y="350"/>
      <point x="477" y="332" type="curve" smooth="yes"/>
      <point x="424" y="246"/>
      <point x="354" y="186"/>
      <point x="247" y="186" type="curve" smooth="yes"/>
      <point x="121" y="186"/>
      <point x="52" y="255"/>
      <point x="52" y="372" type="curve"/>
      <point x="52" y="464"/>
      <point x="115" y="562"/>
      <point x="256" y="562" type="curve" smooth="yes"/>
      <point x="389" y="562"/>
      <point x="486" y="469"/>
      <point x="486" y="278" type="curve" smooth="yes"/>
      <point x="486" y="90"/>
      <point x="399" y="-10"/>
      <point x="238" y="-10" type="curve" smooth="yes"/>
      <point x="201" y="-10"/>
      <point x="175" y="-4"/>
      <point x="146" y="4" type="curve" smooth="yes"/>
      <point x="125" y="10"/>
      <point x="112" y="33"/>
      <point x="117" y="53" type="curve" smooth="yes"/>
      <point x="123" y="74"/>
      <point x="146" y="87"/>
    </contour>
  </outline>
</glyph>
<glyph name="less" format="1">
  <advance width="491"/>
  <unicode hex="003C"/>
  <outline>
    <contour>
      <point x="82" y="299" type="curve" smooth="yes"/>
      <point x="364" y="427" type="line" smooth="yes"/>
      <point x="384" y="436"/>
      <point x="408" y="427"/>
      <point x="417" y="408" type="curve" smooth="yes"/>
      <point x="426" y="388"/>
      <point x="417" y="364"/>
      <point x="398" y="355" type="curve" smooth="yes"/>
      <point x="116" y="227" type="line" smooth="yes"/>
      <point x="96" y="218"/>
      <point x="72" y="227"/>
      <point x="63" y="246" type="curve" smooth="yes"/>
      <point x="54" y="266"/>
      <point x="63" y="290"/>
    </contour>
    <contour>
      <point x="369" y="91" type="curve" smooth="yes"/>
      <point x="77" y="224" type="line" smooth="yes"/>
      <point x="58" y="233"/>
      <point x="49" y="257"/>
      <point x="58" y="277" type="curve" smooth="yes"/>
      <point x="67" y="296"/>
      <point x="91" y="305"/>
      <point x="111" y="296" type="curve" smooth="yes"/>
      <point x="403" y="163" type="line" smooth="yes"/>
      <point x="422" y="154"/>
      <point x="431" y="130"/>
      <point x="422" y="110" type="curve" smooth="yes"/>
      <point x="413" y="91"/>
      <point x="389" y="82"/>
    </contour>
  </outline>
</glyph>
<glyph name="equal" format="1">
  <advance width="491"/>
  <unicode hex="003D"/>
  <outline>
    <contour>
      <point x="92" y="389" type="curve" smooth="yes"/>
      <point x="398" y="389" type="line" smooth="yes"/>
      <point x="420" y="389"/>
      <point x="438" y="371"/>
      <point x="438" y="349" type="curve" smooth="yes"/>
      <point x="438" y="327"/>
      <point x="420" y="309"/>
      <point x="398" y="309" type="curve" smooth="yes"/>
      <point x="92" y="309" type="line" smooth="yes"/>
      <point x="70" y="309"/>
      <point x="52" y="327"/>
      <point x="52" y="349" type="curve" smooth="yes"/>
      <point x="52" y="371"/>
      <point x="70" y="389"/>
    </contour>
    <contour>
      <point x="92" y="209" type="curve" smooth="yes"/>
      <point x="398" y="209" type="line" smooth="yes"/>
      <point x="420" y="209"/>
      <point x="438" y="191"/>
      <point x="438" y="169" type="curve" smooth="yes"/>
      <point x="438" y="147"/>
      <point x="420" y="129"/>
      <point x="398" y="129" type="curve" smooth="yes"/>
      <point x="92" y="129" type="line" smooth="yes"/>
      <point x="70" y="129"/>
      <point x="52" y="147"/>
      <point x="52" y="169" type="curve" smooth="yes"/>
      <point x="52" y="191"/>
      <point x="70" y="209"/>
    </contour>
  </outline>
</glyph>
<glyph name="question" format="1">
  <advance width="381"/>
  <unicode hex="003F"/>
  <outline>
    <contour>
      <point x="53" y="549" type="curve" smooth="yes"/>
      <point x="94" y="575"/>
      <point x="133" y="590"/>
      <point x="199" y="590" type="curve" smooth="yes"/>
      <point x="305" y="590"/>
      <point x="362" y="521"/>
      <point x="362" y="449" type="curve" smooth="yes"/>
      <point x="362" y="376"/>
      <point x="328" y="334"/>
      <point x="244" y="287" type="curve" smooth="yes"/>
      <point x="213" y="269"/>
      <point x="205" y="252"/>
      <point x="203" y="225" type="curve" smooth="yes"/>
      <point x="201" y="204"/>
      <point x="182" y="187"/>
      <point x="160" y="188" type="curve" smooth="yes"/>
      <point x="139" y="190"/>
      <point x="122" y="209"/>
      <point x="123" y="231" type="curve" smooth="yes"/>
      <point x="127" y="286"/>
      <point x="141" y="321"/>
      <point x="204" y="357" type="curve" smooth="yes"/>
      <point x="252" y="384"/>
      <point x="282" y="404"/>
      <point x="282" y="449" type="curve" smooth="yes"/>
      <point x="282" y="485"/>
      <point x="245" y="510"/>
      <point x="199" y="510" type="curve" smooth="yes"/>
      <point x="153" y="510"/>
      <point x="124" y="499"/>
      <point x="95" y="481" type="curve" smooth="yes"/>
      <point x="77" y="470"/>
      <point x="52" y="475"/>
      <point x="40" y="494" type="curve" smooth="yes"/>
      <point x="29" y="512"/>
      <point x="34" y="537"/>
    </contour>
    <component base="period" xOffset="50"/>
    <component base="period" xOffset="50"/>
  </outline>
</glyph>
<glyph name="at" format="1">
  <advance width="675"/>
  <unicode hex="0040"/>
  <outline>
    <contour>
      <point x="467" y="390" type="curve" smooth="yes"/>
      <point x="467" y="260" type="line" smooth="yes"/>
      <point x="467" y="229"/>
      <point x="483" y="203"/>
      <point x="509" y="203" type="curve" smooth="yes"/>
      <point x="543" y="203"/>
      <point x="556" y="243"/>
      <point x="556" y="285" type="curve" smooth="yes"/>
      <point x="556" y="391"/>
      <point x="475" y="488"/>
      <point x="341" y="488" type="curve" smooth="yes"/>
      <point x="214" y="488"/>
      <point x="121" y="389"/>
      <point x="121" y="271" type="curve"/>
      <point x="121" y="152"/>
      <point x="213" y="63"/>
      <point x="344" y="63" type="curve" smooth="yes"/>
      <point x="400" y="63"/>
      <point x="446" y="75"/>
      <point x="481" y="91" type="curve" smooth="yes"/>
      <point x="501" y="99"/>
      <point x="525" y="90"/>
      <point x="534" y="70" type="curve" smooth="yes"/>
      <point x="542" y="50"/>
      <point x="533" y="26"/>
      <point x="513" y="17" type="curve" smooth="yes"/>
      <point x="470" y="-1"/>
      <point x="412" y="-17"/>
      <point x="344" y="-17" type="curve" smooth="yes"/>
      <point x="163" y="-17"/>
      <point x="41" y="110"/>
      <point x="41" y="271" type="curve"/>
      <point x="41" y="433"/>
      <point x="168" y="568"/>
      <point x="341" y="568" type="curve" smooth="yes"/>
      <point x="529" y="568"/>
      <point x="636" y="431"/>
      <point x="636" y="285" type="curve" smooth="yes"/>
      <point x="636" y="171"/>
      <point x="575" y="123"/>
      <point x="509" y="123" type="curve" smooth="yes"/>
      <point x="445" y="123"/>
      <point x="387" y="169"/>
      <point x="387" y="260" type="curve" smooth="yes"/>
      <point x="387" y="390" type="line" smooth="yes"/>
      <point x="387" y="412"/>
      <point x="405" y="430"/>
      <point x="427" y="430" type="curve" smooth="yes"/>
      <point x="449" y="430"/>
      <point x="467" y="412"/>
    </contour>
    <contour>
      <point x="405" y="330" type="curve" smooth="yes"/>
      <point x="385" y="342"/>
      <point x="364" y="350"/>
      <point x="336" y="350" type="curve" smooth="yes"/>
      <point x="296" y="350"/>
      <point x="265" y="316"/>
      <point x="265" y="267" type="curve" smooth="yes"/>
      <point x="265" y="230"/>
      <point x="289" y="204"/>
      <point x="318" y="204" type="curve" smooth="yes"/>
      <point x="346" y="204"/>
      <point x="372" y="223"/>
      <point x="391" y="255" type="curve" smooth="yes"/>
      <point x="402" y="274"/>
      <point x="427" y="280"/>
      <point x="446" y="270" type="curve" smooth="yes"/>
      <point x="465" y="259"/>
      <point x="471" y="234"/>
      <point x="461" y="215" type="curve" smooth="yes"/>
      <point x="424" y="151"/>
      <point x="370" y="124"/>
      <point x="318" y="124" type="curve" smooth="yes"/>
      <point x="251" y="124"/>
      <point x="185" y="174"/>
      <point x="185" y="267" type="curve" smooth="yes"/>
      <point x="185" y="372"/>
      <point x="256" y="430"/>
      <point x="336" y="430" type="curve" smooth="yes"/>
      <point x="382" y="430"/>
      <point x="417" y="418"/>
      <point x="449" y="396" type="curve" smooth="yes"/>
      <point x="467" y="385"/>
      <point x="472" y="359"/>
      <point x="460" y="341" type="curve" smooth="yes"/>
      <point x="449" y="323"/>
      <point x="423" y="318"/>
    </contour>
  </outline>
</glyph>
<glyph name="A" format="1">
  <advance width="568"/>
  <unicode hex="0041"/>
  <outline>
    <contour>
      <point x="312" y="511" type="curve" smooth="yes"/>
      <point x="244" y="359"/>
      <point x="149" y="145"/>
      <point x="105" y="20" type="curve" smooth="yes"/>
      <point x="97" y="-1"/>
      <point x="74" y="-12"/>
      <point x="54" y="-5" type="curve" smooth="yes"/>
      <point x="33" y="3"/>
      <point x="22" y="26"/>
      <point x="29" y="46" type="curve" smooth="yes"/>
      <point x="75" y="173"/>
      <point x="170" y="389"/>
      <point x="238" y="543" type="curve" smooth="yes"/>
      <point x="247" y="563"/>
      <point x="272" y="572"/>
      <point x="291" y="564" type="curve" smooth="yes"/>
      <point x="311" y="555"/>
      <point x="320" y="530"/>
    </contour>
    <contour>
      <point x="317" y="544" type="curve" smooth="yes"/>
      <point x="390" y="389"/>
      <point x="488" y="171"/>
      <point x="536" y="48" type="curve" smooth="yes"/>
      <point x="544" y="27"/>
      <point x="534" y="4"/>
      <point x="514" y="-4" type="curve" smooth="yes"/>
      <point x="493" y="-12"/>
      <point x="470" y="-2"/>
      <point x="462" y="18" type="curve" smooth="yes"/>
      <point x="414" y="141"/>
      <point x="316" y="357"/>
      <point x="245" y="510" type="curve" smooth="yes"/>
      <point x="236" y="530"/>
      <point x="244" y="554"/>
      <point x="264" y="563" type="curve" smooth="yes"/>
      <point x="284" y="572"/>
      <point x="308" y="564"/>
    </contour>
    <contour>
      <point x="136" y="218" type="curve" smooth="yes"/>
      <point x="427" y="218" type="line" smooth="yes"/>
      <point x="449" y="218"/>
      <point x="467" y="200"/>
      <point x="467" y="178" type="curve" smooth="yes"/>
      <point x="467" y="156"/>
      <point x="449" y="138"/>
      <point x="427" y="138" type="curve" smooth="yes"/>
      <point x="136" y="138" type="line" smooth="yes"/>
      <point x="114" y="138"/>
      <point x="96" y="156"/>
      <point x="96" y="178" type="curve" smooth="yes"/>
      <point x="96" y="200"/>
      <point x="114" y="218"/>
    </contour>
  </outline>
</glyph>
<glyph name="B" format="1">
  <advance width="521"/>
  <unicode hex="0042"/>
  <outline>
    <contour>
      <point x="137" y="333" type="curve" smooth="yes"/>
      <point x="276" y="333" type="line" smooth="yes"/>
      <point x="340" y="333"/>
      <point x="397" y="310"/>
      <point x="431" y="275" type="curve" smooth="yes"/>
      <point x="464" y="242"/>
      <point x="480" y="204"/>
      <point x="480" y="160" type="curve" smooth="yes"/>
      <point x="480" y="120"/>
      <point x="465" y="80"/>
      <point x="434" y="49" type="curve" smooth="yes"/>
      <point x="403" y="17"/>
      <point x="355" y="-7"/>
      <point x="273" y="-7" type="curve" smooth="yes"/>
      <point x="128" y="-7" type="line" smooth="yes"/>
      <point x="106" y="-7"/>
      <point x="88" y="11"/>
      <point x="88" y="33" type="curve" smooth="yes"/>
      <point x="88" y="518" type="line" smooth="yes"/>
      <point x="88" y="540"/>
      <point x="106" y="558"/>
      <point x="128" y="558" type="curve" smooth="yes"/>
      <point x="257" y="558" type="line" smooth="yes"/>
      <point x="321" y="558"/>
      <point x="364" y="536"/>
      <point x="390" y="509" type="curve" smooth="yes"/>
      <point x="415" y="484"/>
      <point x="432" y="443"/>
      <point x="432" y="407" type="curve" smooth="yes"/>
      <point x="432" y="367"/>
      <point x="415" y="329"/>
      <point x="390" y="304" type="curve" smooth="yes"/>
      <point x="367" y="281"/>
      <point x="323" y="257"/>
      <point x="271" y="253" type="curve" smooth="yes"/>
      <point x="249" y="252"/>
      <point x="230" y="269"/>
      <point x="228" y="290" type="curve" smooth="yes"/>
      <point x="227" y="312"/>
      <point x="244" y="331"/>
      <point x="265" y="333" type="curve" smooth="yes"/>
      <point x="295" y="335"/>
      <point x="321" y="347"/>
      <point x="334" y="360" type="curve" smooth="yes"/>
      <point x="345" y="371"/>
      <point x="352" y="389"/>
      <point x="352" y="407" type="curve" smooth="yes"/>
      <point x="352" y="423"/>
      <point x="345" y="442"/>
      <point x="334" y="453" type="curve" smooth="yes"/>
      <point x="318" y="468"/>
      <point x="293" y="478"/>
      <point x="257" y="478" type="curve" smooth="yes"/>
      <point x="128" y="478" type="line"/>
      <point x="168" y="518" type="line"/>
      <point x="168" y="33" type="line"/>
      <point x="128" y="73" type="line"/>
      <point x="273" y="73" type="line" smooth="yes"/>
      <point x="325" y="73"/>
      <point x="357" y="85"/>
      <point x="378" y="105" type="curve" smooth="yes"/>
      <point x="393" y="120"/>
      <point x="400" y="140"/>
      <point x="400" y="160" type="curve" smooth="yes"/>
      <point x="400" y="182"/>
      <point x="392" y="202"/>
      <point x="375" y="219" type="curve" smooth="yes"/>
      <point x="353" y="240"/>
      <point x="316" y="253"/>
      <point x="276" y="253" type="curve" smooth="yes"/>
      <point x="137" y="253" type="line" smooth="yes"/>
      <point x="115" y="253"/>
      <point x="97" y="271"/>
      <point x="97" y="293" type="curve" smooth="yes"/>
      <point x="97" y="315"/>
      <point x="115" y="333"/>
    </contour>
  </outline>
</glyph>
<glyph name="C" format="1">
  <advance width="563"/>
  <unicode hex="0043"/>
  <outline>
    <contour>
      <point x="451" y="463" type="curve" smooth="yes"/>
      <point x="422" y="478"/>
      <point x="379" y="487"/>
      <point x="334" y="487" type="curve" smooth="yes"/>
      <point x="222" y="487"/>
      <point x="126" y="400"/>
      <point x="126" y="272" type="curve"/>
      <point x="126" y="154"/>
      <point x="205" y="64"/>
      <point x="340" y="64" type="curve" smooth="yes"/>
      <point x="385" y="64"/>
      <point x="425" y="73"/>
      <point x="457" y="90" type="curve" smooth="yes"/>
      <point x="476" y="99"/>
      <point x="501" y="91"/>
      <point x="511" y="72" type="curve" smooth="yes"/>
      <point x="520" y="53"/>
      <point x="512" y="28"/>
      <point x="493" y="18" type="curve" smooth="yes"/>
      <point x="451" y="-3"/>
      <point x="399" y="-16"/>
      <point x="340" y="-16" type="curve" smooth="yes"/>
      <point x="153" y="-16"/>
      <point x="46" y="110"/>
      <point x="46" y="272" type="curve"/>
      <point x="46" y="450"/>
      <point x="180" y="567"/>
      <point x="334" y="567" type="curve" smooth="yes"/>
      <point x="395" y="567"/>
      <point x="452" y="554"/>
      <point x="489" y="533" type="curve" smooth="yes"/>
      <point x="508" y="523"/>
      <point x="515" y="498"/>
      <point x="505" y="479" type="curve" smooth="yes"/>
      <point x="495" y="460"/>
      <point x="470" y="453"/>
    </contour>
  </outline>
</glyph>
<glyph name="D" format="1">
  <advance width="617"/>
  <unicode hex="0044"/>
  <outline>
    <contour>
      <point x="304" y="-7" type="curve" smooth="yes"/>
      <point x="128" y="-7" type="line" smooth="yes"/>
      <point x="106" y="-7"/>
      <point x="88" y="11"/>
      <point x="88" y="33" type="curve" smooth="yes"/>
      <point x="88" y="518" type="line" smooth="yes"/>
      <point x="88" y="540"/>
      <point x="106" y="558"/>
      <point x="128" y="558" type="curve" smooth="yes"/>
      <point x="304" y="558" type="line" smooth="yes"/>
      <point x="444" y="558"/>
      <point x="571" y="443"/>
      <point x="571" y="276" type="curve" smooth="yes"/>
      <point x="571" y="117"/>
      <point x="465" y="-7"/>
    </contour>
    <contour>
      <point x="304" y="73" type="line" smooth="yes"/>
      <point x="419" y="73"/>
      <point x="491" y="165"/>
      <point x="491" y="276" type="curve" smooth="yes"/>
      <point x="491" y="393"/>
      <point x="404" y="478"/>
      <point x="304" y="478" type="curve" smooth="yes"/>
      <point x="128" y="478" type="line"/>
      <point x="168" y="518" type="line"/>
      <point x="168" y="33" type="line"/>
      <point x="128" y="73" type="line"/>
    </contour>
  </outline>
</glyph>
<glyph name="E" format="1">
  <advance width="495"/>
  <unicode hex="0045"/>
  <outline>
    <contour>
      <point x="168" y="518" type="curve" smooth="yes"/>
      <point x="168" y="33" type="line" smooth="yes"/>
      <point x="168" y="11"/>
      <point x="150" y="-7"/>
      <point x="128" y="-7" type="curve" smooth="yes"/>
      <point x="106" y="-7"/>
      <point x="88" y="11"/>
      <point x="88" y="33" type="curve" smooth="yes"/>
      <point x="88" y="518" type="line" smooth="yes"/>
      <point x="88" y="540"/>
      <point x="106" y="558"/>
      <point x="128" y="558" type="curve" smooth="yes"/>
      <point x="150" y="558"/>
      <point x="168" y="540"/>
    </contour>
    <contour>
      <point x="136" y="73" type="curve" smooth="yes"/>
      <point x="407" y="73" type="line" smooth="yes"/>
      <point x="429" y="73"/>
      <point x="447" y="55"/>
      <point x="447" y="33" type="curve" smooth="yes"/>
      <point x="447" y="11"/>
      <point x="429" y="-7"/>
      <point x="407" y="-7" type="curve" smooth="yes"/>
      <point x="136" y="-7" type="line" smooth="yes"/>
      <point x="114" y="-7"/>
      <point x="96" y="11"/>
      <point x="96" y="33" type="curve" smooth="yes"/>
      <point x="96" y="55"/>
      <point x="114" y="73"/>
    </contour>
    <contour>
      <point x="136" y="558" type="curve" smooth="yes"/>
      <point x="405" y="558" type="line" smooth="yes"/>
      <point x="427" y="558"/>
      <point x="445" y="540"/>
      <point x="445" y="518" type="curve" smooth="yes"/>
      <point x="445" y="496"/>
      <point x="427" y="478"/>
      <point x="405" y="478" type="curve" smooth="yes"/>
      <point x="136" y="478" type="line" smooth="yes"/>
      <point x="114" y="478"/>
      <point x="96" y="496"/>
      <point x="96" y="518" type="curve" smooth="yes"/>
      <point x="96" y="540"/>
      <point x="114" y="558"/>
    </contour>
    <contour>
      <point x="136" y="334" type="curve" smooth="yes"/>
      <point x="362" y="334" type="line" smooth="yes"/>
      <point x="384" y="334"/>
      <point x="402" y="316"/>
      <point x="402" y="294" type="curve" smooth="yes"/>
      <point x="402" y="272"/>
      <point x="384" y="254"/>
      <point x="362" y="254" type="curve" smooth="yes"/>
      <point x="136" y="254" type="line" smooth="yes"/>
      <point x="114" y="254"/>
      <point x="96" y="272"/>
      <point x="96" y="294" type="curve" smooth="yes"/>
      <point x="96" y="316"/>
      <point x="114" y="334"/>
    </contour>
  </outline>
</glyph>
<glyph name="F" format="1">
  <advance width="485"/>
  <unicode hex="0046"/>
  <outline>
    <contour>
      <point x="168" y="518" type="curve" smooth="yes"/>
      <point x="168" y="33" type="line" smooth="yes"/>
      <point x="168" y="11"/>
      <point x="150" y="-7"/>
      <point x="128" y="-7" type="curve" smooth="yes"/>
      <point x="106" y="-7"/>
      <point x="88" y="11"/>
      <point x="88" y="33" type="curve" smooth="yes"/>
      <point x="88" y="518" type="line" smooth="yes"/>
      <point x="88" y="540"/>
      <point x="106" y="558"/>
      <point x="128" y="558" type="curve" smooth="yes"/>
      <point x="150" y="558"/>
      <point x="168" y="540"/>
    </contour>
    <contour>
      <point x="136" y="558" type="curve" smooth="yes"/>
      <point x="413" y="558" type="line" smooth="yes"/>
      <point x="435" y="558"/>
      <point x="453" y="540"/>
      <point x="453" y="518" type="curve" smooth="yes"/>
      <point x="453" y="496"/>
      <point x="435" y="478"/>
      <point x="413" y="478" type="curve" smooth="yes"/>
      <point x="136" y="478" type="line" smooth="yes"/>
      <point x="114" y="478"/>
      <point x="96" y="496"/>
      <point x="96" y="518" type="curve" smooth="yes"/>
      <point x="96" y="540"/>
      <point x="114" y="558"/>
    </contour>
    <contour>
      <point x="136" y="315" type="curve" smooth="yes"/>
      <point x="362" y="315" type="line" smooth="yes"/>
      <point x="384" y="315"/>
      <point x="402" y="297"/>
      <point x="402" y="275" type="curve" smooth="yes"/>
      <point x="402" y="253"/>
      <point x="384" y="235"/>
      <point x="362" y="235" type="curve" smooth="yes"/>
      <point x="136" y="235" type="line" smooth="yes"/>
      <point x="114" y="235"/>
      <point x="96" y="253"/>
      <point x="96" y="275" type="curve" smooth="yes"/>
      <point x="96" y="297"/>
      <point x="114" y="315"/>
    </contour>
  </outline>
</glyph>
<glyph name="G" format="1">
  <advance width="618"/>
  <unicode hex="0047"/>
  <outline>
    <contour>
      <point x="467" y="463" type="curve" smooth="yes"/>
      <point x="429" y="477"/>
      <point x="386" y="487"/>
      <point x="335" y="487" type="curve" smooth="yes"/>
      <point x="214" y="487"/>
      <point x="126" y="400"/>
      <point x="126" y="272" type="curve"/>
      <point x="126" y="156"/>
      <point x="201" y="64"/>
      <point x="332" y="64" type="curve" smooth="yes"/>
      <point x="400" y="64"/>
      <point x="449" y="81"/>
      <point x="490" y="107" type="curve" smooth="yes"/>
      <point x="508" y="118"/>
      <point x="533" y="113"/>
      <point x="545" y="94" type="curve" smooth="yes"/>
      <point x="556" y="76"/>
      <point x="551" y="51"/>
      <point x="532" y="39" type="curve" smooth="yes"/>
      <point x="481" y="7"/>
      <point x="418" y="-16"/>
      <point x="332" y="-16" type="curve" smooth="yes"/>
      <point x="151" y="-16"/>
      <point x="46" y="112"/>
      <point x="46" y="272" type="curve"/>
      <point x="46" y="450"/>
      <point x="168" y="567"/>
      <point x="335" y="567" type="curve" smooth="yes"/>
      <point x="396" y="567"/>
      <point x="449" y="555"/>
      <point x="495" y="537" type="curve" smooth="yes"/>
      <point x="515" y="530"/>
      <point x="526" y="506"/>
      <point x="518" y="486" type="curve" smooth="yes"/>
      <point x="511" y="466"/>
      <point x="487" y="455"/>
    </contour>
    <contour>
      <point x="472" y="83" type="curve" smooth="yes"/>
      <point x="472" y="257" type="line" smooth="yes"/>
      <point x="472" y="279"/>
      <point x="490" y="297"/>
      <point x="512" y="297" type="curve" smooth="yes"/>
      <point x="534" y="297"/>
      <point x="552" y="279"/>
      <point x="552" y="257" type="curve" smooth="yes"/>
      <point x="552" y="83" type="line" smooth="yes"/>
      <point x="552" y="61"/>
      <point x="534" y="43"/>
      <point x="512" y="43" type="curve" smooth="yes"/>
      <point x="490" y="43"/>
      <point x="472" y="61"/>
    </contour>
    <contour>
      <point x="501" y="217" type="curve" smooth="yes"/>
      <point x="348" y="217" type="line" smooth="yes"/>
      <point x="326" y="217"/>
      <point x="308" y="235"/>
      <point x="308" y="257" type="curve" smooth="yes"/>
      <point x="308" y="279"/>
      <point x="326" y="297"/>
      <point x="348" y="297" type="curve" smooth="yes"/>
      <point x="501" y="297" type="line" smooth="yes"/>
      <point x="523" y="297"/>
      <point x="541" y="279"/>
      <point x="541" y="257" type="curve" smooth="yes"/>
      <point x="541" y="235"/>
      <point x="523" y="217"/>
    </contour>
  </outline>
</glyph>
<glyph name="H" format="1">
  <advance width="641"/>
  <unicode hex="0048"/>
  <outline>
    <contour>
      <point x="168" y="518" type="curve" smooth="yes"/>
      <point x="168" y="33" type="line" smooth="yes"/>
      <point x="168" y="11"/>
      <point x="150" y="-7"/>
      <point x="128" y="-7" type="curve" smooth="yes"/>
      <point x="106" y="-7"/>
      <point x="88" y="11"/>
      <point x="88" y="33" type="curve" smooth="yes"/>
      <point x="88" y="518" type="line" smooth="yes"/>
      <point x="88" y="540"/>
      <point x="106" y="558"/>
      <point x="128" y="558" type="curve" smooth="yes"/>
      <point x="150" y="558"/>
      <point x="168" y="540"/>
    </contour>
    <contour>
      <point x="553" y="518" type="curve" smooth="yes"/>
      <point x="553" y="33" type="line" smooth="yes"/>
      <point x="553" y="11"/>
      <point x="535" y="-7"/>
      <point x="513" y="-7" type="curve" smooth="yes"/>
      <point x="491" y="-7"/>
      <point x="473" y="11"/>
      <point x="473" y="33" type="curve" smooth="yes"/>
      <point x="473" y="518" type="line" smooth="yes"/>
      <point x="473" y="540"/>
      <point x="491" y="558"/>
      <point x="513" y="558" type="curve" smooth="yes"/>
      <point x="535" y="558"/>
      <point x="553" y="540"/>
    </contour>
    <contour>
      <point x="132" y="333" type="curve" smooth="yes"/>
      <point x="512" y="333" type="line" smooth="yes"/>
      <point x="534" y="333"/>
      <point x="552" y="315"/>
      <point x="552" y="293" type="curve" smooth="yes"/>
      <point x="552" y="271"/>
      <point x="534" y="253"/>
      <point x="512" y="253" type="curve" smooth="yes"/>
      <point x="132" y="253" type="line" smooth="yes"/>
      <point x="110" y="253"/>
      <point x="92" y="271"/>
      <point x="92" y="293" type="curve" smooth="yes"/>
      <point x="92" y="315"/>
      <point x="110" y="333"/>
    </contour>
  </outline>
</glyph>
<glyph name="J" format="1">
  <advance width="399"/>
  <unicode hex="004A"/>
  <outline>
    <contour>
      <point x="80" y="82" type="curve" smooth="yes"/>
      <point x="108" y="75"/>
      <point x="134" y="68"/>
      <point x="161" y="68" type="curve" smooth="yes"/>
      <point x="221" y="68"/>
      <point x="243" y="108"/>
      <point x="243" y="175" type="curve" smooth="yes"/>
      <point x="243" y="518" type="line" smooth="yes"/>
      <point x="243" y="540"/>
      <point x="261" y="558"/>
      <point x="283" y="558" type="curve" smooth="yes"/>
      <point x="305" y="558"/>
      <point x="323" y="540"/>
      <point x="323" y="518" type="curve" smooth="yes"/>
      <point x="323" y="175" type="line" smooth="yes"/>
      <point x="323" y="42"/>
      <point x="267" y="-12"/>
      <point x="161" y="-12" type="curve" smooth="yes"/>
      <point x="128" y="-12"/>
      <point x="96" y="-5"/>
      <point x="60" y="4" type="curve" smooth="yes"/>
      <point x="39" y="9"/>
      <point x="26" y="32"/>
      <point x="31" y="53" type="curve" smooth="yes"/>
      <point x="36" y="74"/>
      <point x="59" y="87"/>
    </contour>
  </outline>
</glyph>
<glyph name="K" format="1">
  <advance width="558"/>
  <unicode hex="004B"/>
  <outline>
    <contour>
      <point x="168" y="518" type="curve" smooth="yes"/>
      <point x="168" y="33" type="line" smooth="yes"/>
      <point x="168" y="11"/>
      <point x="150" y="-7"/>
      <point x="128" y="-7" type="curve" smooth="yes"/>
      <point x="106" y="-7"/>
      <point x="88" y="11"/>
      <point x="88" y="33" type="curve" smooth="yes"/>
      <point x="88" y="518" type="line" smooth="yes"/>
      <point x="88" y="540"/>
      <point x="106" y="558"/>
      <point x="128" y="558" type="curve" smooth="yes"/>
      <point x="150" y="558"/>
      <point x="168" y="540"/>
    </contour>
    <contour>
      <point x="283" y="336" type="curve" smooth="yes"/>
      <point x="340" y="268"/>
      <point x="459" y="122"/>
      <point x="514" y="59" type="curve" smooth="yes"/>
      <point x="528" y="43"/>
      <point x="527" y="17"/>
      <point x="510" y="3" type="curve" smooth="yes"/>
      <point x="494" y="-11"/>
      <point x="468" y="-10"/>
      <point x="454" y="7" type="curve" smooth="yes"/>
      <point x="399" y="70"/>
      <point x="278" y="216"/>
      <point x="221" y="286" type="curve" smooth="yes"/>
      <point x="207" y="302"/>
      <point x="210" y="328"/>
      <point x="227" y="342" type="curve" smooth="yes"/>
      <point x="243" y="356"/>
      <point x="269" y="353"/>
    </contour>
    <contour>
      <point x="101" y="230" type="curve" smooth="yes"/>
      <point x="149" y="274"/>
      <point x="336" y="441"/>
      <point x="435" y="546" type="curve" smooth="yes"/>
      <point x="450" y="561"/>
      <point x="476" y="562"/>
      <point x="492" y="547" type="curve" smooth="yes"/>
      <point x="507" y="532"/>
      <point x="508" y="506"/>
      <point x="493" y="490" type="curve" smooth="yes"/>
      <point x="392" y="385"/>
      <point x="203" y="216"/>
      <point x="155" y="172" type="curve" smooth="yes"/>
      <point x="139" y="157"/>
      <point x="113" y="158"/>
      <point x="99" y="174" type="curve" smooth="yes"/>
      <point x="84" y="190"/>
      <point x="85" y="216"/>
    </contour>
  </outline>
</glyph>
<glyph name="L" format="1">
  <advance width="479"/>
  <unicode hex="004C"/>
  <outline>
    <contour>
      <point x="168" y="518" type="curve" smooth="yes"/>
      <point x="168" y="33" type="line" smooth="yes"/>
      <point x="168" y="11"/>
      <point x="150" y="-7"/>
      <point x="128" y="-7" type="curve" smooth="yes"/>
      <point x="106" y="-7"/>
      <point x="88" y="11"/>
      <point x="88" y="33" type="curve" smooth="yes"/>
      <point x="88" y="518" type="line" smooth="yes"/>
      <point x="88" y="540"/>
      <point x="106" y="558"/>
      <point x="128" y="558" type="curve" smooth="yes"/>
      <point x="150" y="558"/>
      <point x="168" y="540"/>
    </contour>
    <contour>
      <point x="136" y="73" type="curve" smooth="yes"/>
      <point x="409" y="73" type="line" smooth="yes"/>
      <point x="431" y="73"/>
      <point x="449" y="55"/>
      <point x="449" y="33" type="curve" smooth="yes"/>
      <point x="449" y="11"/>
      <point x="431" y="-7"/>
      <point x="409" y="-7" type="curve" smooth="yes"/>
      <point x="136" y="-7" type="line" smooth="yes"/>
      <point x="114" y="-7"/>
      <point x="96" y="11"/>
      <point x="96" y="33" type="curve" smooth="yes"/>
      <point x="96" y="55"/>
      <point x="114" y="73"/>
    </contour>
  </outline>
</glyph>
<glyph name="M" format="1">
  <advance width="816"/>
  <unicode hex="004D"/>
  <outline>
    <contour>
      <point x="210" y="520" type="curve" smooth="yes"/>
      <point x="187" y="378"/>
      <point x="155" y="142"/>
      <point x="143" y="27" type="curve" smooth="yes"/>
      <point x="141" y="5"/>
      <point x="120" y="-11"/>
      <point x="99" y="-9" type="curve" smooth="yes"/>
      <point x="77" y="-7"/>
      <point x="61" y="14"/>
      <point x="63" y="35" type="curve" smooth="yes"/>
      <point x="75" y="152"/>
      <point x="107" y="390"/>
      <point x="132" y="534" type="curve" smooth="yes"/>
      <point x="135" y="555"/>
      <point x="156" y="570"/>
      <point x="178" y="566" type="curve" smooth="yes"/>
      <point x="199" y="563"/>
      <point x="214" y="542"/>
    </contour>
    <contour>
      <point x="669" y="536" type="curve" smooth="yes"/>
      <point x="700" y="379"/>
      <point x="734" y="171"/>
      <point x="752" y="36" type="curve" smooth="yes"/>
      <point x="755" y="15"/>
      <point x="739" y="-6"/>
      <point x="717" y="-9" type="curve" smooth="yes"/>
      <point x="696" y="-12"/>
      <point x="675" y="4"/>
      <point x="672" y="26" type="curve" smooth="yes"/>
      <point x="654" y="159"/>
      <point x="622" y="365"/>
      <point x="591" y="520" type="curve" smooth="yes"/>
      <point x="587" y="541"/>
      <point x="601" y="563"/>
      <point x="622" y="567" type="curve" smooth="yes"/>
      <point x="643" y="571"/>
      <point x="665" y="557"/>
    </contour>
    <contour>
      <point x="219" y="532" type="curve" smooth="yes"/>
      <point x="281" y="404"/>
      <point x="375" y="207"/>
      <point x="442" y="67" type="curve" smooth="yes"/>
      <point x="451" y="48"/>
      <point x="443" y="23"/>
      <point x="423" y="14" type="curve" smooth="yes"/>
      <point x="404" y="5"/>
      <point x="379" y="13"/>
      <point x="370" y="33" type="curve" smooth="yes"/>
      <point x="303" y="173"/>
      <point x="209" y="370"/>
      <point x="147" y="496" type="curve" smooth="yes"/>
      <point x="138" y="516"/>
      <point x="146" y="540"/>
      <point x="165" y="550" type="curve" smooth="yes"/>
      <point x="185" y="559"/>
      <point x="209" y="551"/>
    </contour>
    <contour>
      <point x="372" y="78" type="curve" smooth="yes"/>
      <point x="433" y="215"/>
      <point x="513" y="391"/>
      <point x="587" y="538" type="curve" smooth="yes"/>
      <point x="597" y="557"/>
      <point x="622" y="565"/>
      <point x="641" y="556" type="curve" smooth="yes"/>
      <point x="660" y="546"/>
      <point x="668" y="521"/>
      <point x="659" y="502" type="curve" smooth="yes"/>
      <point x="585" y="357"/>
      <point x="505" y="181"/>
      <point x="446" y="46" type="curve" smooth="yes"/>
      <point x="437" y="26"/>
      <point x="413" y="17"/>
      <point x="393" y="25" type="curve" smooth="yes"/>
      <point x="373" y="34"/>
      <point x="364" y="58"/>
    </contour>
  </outline>
</glyph>
<glyph name="N" format="1">
  <advance width="645"/>
  <unicode hex="004E"/>
  <outline>
    <contour>
      <point x="168" y="518" type="curve" smooth="yes"/>
      <point x="168" y="33" type="line" smooth="yes"/>
      <point x="168" y="11"/>
      <point x="150" y="-7"/>
      <point x="128" y="-7" type="curve" smooth="yes"/>
      <point x="106" y="-7"/>
      <point x="88" y="11"/>
      <point x="88" y="33" type="curve" smooth="yes"/>
      <point x="88" y="518" type="line" smooth="yes"/>
      <point x="88" y="540"/>
      <point x="106" y="558"/>
      <point x="128" y="558" type="curve" smooth="yes"/>
      <point x="150" y="558"/>
      <point x="168" y="540"/>
    </contour>
    <contour>
      <point x="557" y="518" type="curve" smooth="yes"/>
      <point x="557" y="33" type="line" smooth="yes"/>
      <point x="557" y="11"/>
      <point x="539" y="-7"/>
      <point x="517" y="-7" type="curve" smooth="yes"/>
      <point x="495" y="-7"/>
      <point x="477" y="11"/>
      <point x="477" y="33" type="curve" smooth="yes"/>
      <point x="477" y="518" type="line" smooth="yes"/>
      <point x="477" y="540"/>
      <point x="495" y="558"/>
      <point x="517" y="558" type="curve" smooth="yes"/>
      <point x="539" y="558"/>
      <point x="557" y="540"/>
    </contour>
    <contour>
      <point x="166" y="542" type="curve" smooth="yes"/>
      <point x="241" y="442"/>
      <point x="436" y="200"/>
      <point x="543" y="57" type="curve" smooth="yes"/>
      <point x="556" y="40"/>
      <point x="552" y="14"/>
      <point x="535" y="1" type="curve" smooth="yes"/>
      <point x="518" y="-12"/>
      <point x="492" y="-8"/>
      <point x="479" y="9" type="curve" smooth="yes"/>
      <point x="372" y="152"/>
      <point x="177" y="394"/>
      <point x="102" y="494" type="curve" smooth="yes"/>
      <point x="89" y="511"/>
      <point x="93" y="537"/>
      <point x="110" y="550" type="curve" smooth="yes"/>
      <point x="127" y="563"/>
      <point x="153" y="559"/>
    </contour>
  </outline>
</glyph>
<glyph name="O" format="1">
  <advance width="640"/>
  <unicode hex="004F"/>
  <outline>
    <contour>
      <point x="322" y="567" type="curve" smooth="yes"/>
      <point x="471" y="567"/>
      <point x="594" y="449"/>
      <point x="594" y="275" type="curve" smooth="yes"/>
      <point x="594" y="110"/>
      <point x="492" y="-16"/>
      <point x="322" y="-16" type="curve" smooth="yes"/>
      <point x="161" y="-16"/>
      <point x="46" y="111"/>
      <point x="46" y="272" type="curve"/>
      <point x="46" y="449"/>
      <point x="159" y="567"/>
    </contour>
    <contour>
      <point x="322" y="487" type="curve" smooth="yes"/>
      <point x="203" y="487"/>
      <point x="126" y="397"/>
      <point x="126" y="272" type="curve"/>
      <point x="126" y="157"/>
      <point x="205" y="64"/>
      <point x="322" y="64" type="curve" smooth="yes"/>
      <point x="446" y="64"/>
      <point x="514" y="158"/>
      <point x="514" y="275" type="curve" smooth="yes"/>
      <point x="514" y="397"/>
      <point x="431" y="487"/>
    </contour>
  </outline>
</glyph>
<glyph name="P" format="1">
  <advance width="520"/>
  <unicode hex="0050"/>
  <outline>
    <contour>
      <point x="154" y="249" type="curve" smooth="yes"/>
      <point x="271" y="249" type="line" smooth="yes"/>
      <point x="355" y="249"/>
      <point x="402" y="299"/>
      <point x="402" y="364" type="curve" smooth="yes"/>
      <point x="402" y="433"/>
      <point x="346" y="478"/>
      <point x="271" y="478" type="curve" smooth="yes"/>
      <point x="128" y="478" type="line"/>
      <point x="168" y="518" type="line"/>
      <point x="168" y="33" type="line" smooth="yes"/>
      <point x="168" y="11"/>
      <point x="150" y="-7"/>
      <point x="128" y="-7" type="curve" smooth="yes"/>
      <point x="106" y="-7"/>
      <point x="88" y="11"/>
      <point x="88" y="33" type="curve" smooth="yes"/>
      <point x="88" y="518" type="line" smooth="yes"/>
      <point x="88" y="540"/>
      <point x="106" y="558"/>
      <point x="128" y="558" type="curve" smooth="yes"/>
      <point x="271" y="558" type="line" smooth="yes"/>
      <point x="398" y="558"/>
      <point x="482" y="475"/>
      <point x="482" y="364" type="curve" smooth="yes"/>
      <point x="482" y="259"/>
      <point x="413" y="169"/>
      <point x="271" y="169" type="curve" smooth="yes"/>
      <point x="154" y="169" type="line" smooth="yes"/>
      <point x="132" y="169"/>
      <point x="114" y="187"/>
      <point x="114" y="209" type="curve" smooth="yes"/>
      <point x="114" y="231"/>
      <point x="132" y="249"/>
    </contour>
  </outline>
</glyph>
<glyph name="Q" format="1">
  <advance width="620"/>
  <unicode hex="0051"/>
  <outline>
    <contour>
      <point x="312" y="567" type="curve" smooth="yes"/>
      <point x="455" y="567"/>
      <point x="574" y="450"/>
      <point x="574" y="275" type="curve" smooth="yes"/>
      <point x="574" y="109"/>
      <point x="475" y="-16"/>
      <point x="312" y="-16" type="curve" smooth="yes"/>
      <point x="158" y="-16"/>
      <point x="46" y="110"/>
      <point x="46" y="272" type="curve"/>
      <point x="46" y="450"/>
      <point x="156" y="567"/>
    </contour>
    <contour>
      <point x="352" y="31" type="curve" smooth="yes"/>
      <point x="367" y="-27"/>
      <point x="424" y="-70"/>
      <point x="507" y="-70" type="curve" smooth="yes"/>
      <point x="529" y="-70"/>
      <point x="547" y="-88"/>
      <point x="547" y="-110" type="curve" smooth="yes"/>
      <point x="547" y="-132"/>
      <point x="529" y="-150"/>
      <point x="507" y="-150" type="curve" smooth="yes"/>
      <point x="378" y="-150"/>
      <point x="297" y="-77"/>
      <point x="274" y="11" type="curve" smooth="yes"/>
      <point x="269" y="32"/>
      <point x="282" y="54"/>
      <point x="303" y="60" type="curve" smooth="yes"/>
      <point x="324" y="65"/>
      <point x="346" y="52"/>
    </contour>
    <contour>
      <point x="312" y="487" type="curve" smooth="yes"/>
      <point x="198" y="487"/>
      <point x="126" y="396"/>
      <point x="126" y="272" type="curve"/>
      <point x="126" y="158"/>
      <point x="200" y="64"/>
      <point x="312" y="64" type="curve" smooth="yes"/>
      <point x="431" y="64"/>
      <point x="494" y="159"/>
      <point x="494" y="275" type="curve" smooth="yes"/>
      <point x="494" y="396"/>
      <point x="415" y="487"/>
    </contour>
  </outline>
</glyph>
<glyph name="R" format="1">
  <advance width="539"/>
  <unicode hex="0052"/>
  <outline>
    <contour>
      <point x="154" y="272" type="curve" smooth="yes"/>
      <point x="275" y="272" type="line" smooth="yes"/>
      <point x="355" y="272"/>
      <point x="401" y="316"/>
      <point x="401" y="375" type="curve" smooth="yes"/>
      <point x="401" y="439"/>
      <point x="347" y="478"/>
      <point x="275" y="478" type="curve" smooth="yes"/>
      <point x="128" y="478" type="line"/>
      <point x="168" y="518" type="line"/>
      <point x="168" y="33" type="line" smooth="yes"/>
      <point x="168" y="11"/>
      <point x="150" y="-7"/>
      <point x="128" y="-7" type="curve" smooth="yes"/>
      <point x="106" y="-7"/>
      <point x="88" y="11"/>
      <point x="88" y="33" type="curve" smooth="yes"/>
      <point x="88" y="518" type="line" smooth="yes"/>
      <point x="88" y="540"/>
      <point x="106" y="558"/>
      <point x="128" y="558" type="curve" smooth="yes"/>
      <point x="275" y="558" type="line" smooth="yes"/>
      <point x="403" y="558"/>
      <point x="481" y="479"/>
      <point x="481" y="375" type="curve" smooth="yes"/>
      <point x="481" y="278"/>
      <point x="417" y="192"/>
      <point x="275" y="192" type="curve" smooth="yes"/>
      <point x="154" y="192" type="line" smooth="yes"/>
      <point x="132" y="192"/>
      <point x="114" y="210"/>
      <point x="114" y="232" type="curve" smooth="yes"/>
      <point x="114" y="254"/>
      <point x="132" y="272"/>
    </contour>
    <contour>
      <point x="340" y="245" type="curve" smooth="yes"/>
      <point x="499" y="59" type="line" smooth="yes"/>
      <point x="513" y="43"/>
      <point x="511" y="17"/>
      <point x="495" y="3" type="curve" smooth="yes"/>
      <point x="479" y="-11"/>
      <point x="453" y="-9"/>
      <point x="439" y="7" type="curve" smooth="yes"/>
      <point x="280" y="193" type="line" smooth="yes"/>
      <point x="266" y="209"/>
      <point x="268" y="235"/>
      <point x="284" y="249" type="curve" smooth="yes"/>
      <point x="300" y="263"/>
      <point x="326" y="261"/>
    </contour>
  </outline>
</glyph>
<glyph name="S" format="1">
  <advance width="535"/>
  <unicode hex="0053"/>
  <outline>
    <contour>
      <point x="383" y="457" type="curve" smooth="yes"/>
      <point x="341" y="474"/>
      <point x="310" y="484"/>
      <point x="248" y="484" type="curve" smooth="yes"/>
      <point x="196" y="484"/>
      <point x="152" y="457"/>
      <point x="152" y="420" type="curve" smooth="yes"/>
      <point x="152" y="381"/>
      <point x="182" y="346"/>
      <point x="277" y="327" type="curve" smooth="yes"/>
      <point x="433" y="293"/>
      <point x="472" y="223"/>
      <point x="472" y="146" type="curve" smooth="yes"/>
      <point x="472" y="66"/>
      <point x="419" y="-16"/>
      <point x="268" y="-16" type="curve" smooth="yes"/>
      <point x="201" y="-16"/>
      <point x="138" y="0"/>
      <point x="80" y="32" type="curve" smooth="yes"/>
      <point x="61" y="43"/>
      <point x="54" y="68"/>
      <point x="64" y="86" type="curve" smooth="yes"/>
      <point x="75" y="105"/>
      <point x="100" y="112"/>
      <point x="118" y="102" type="curve" smooth="yes"/>
      <point x="164" y="76"/>
      <point x="215" y="64"/>
      <point x="268" y="64" type="curve" smooth="yes"/>
      <point x="345" y="64"/>
      <point x="392" y="98"/>
      <point x="392" y="146" type="curve" smooth="yes"/>
      <point x="392" y="197"/>
      <point x="349" y="229"/>
      <point x="261" y="249" type="curve" smooth="yes"/>
      <point x="88" y="282"/>
      <point x="72" y="359"/>
      <point x="72" y="420" type="curve"/>
      <point x="72" y="489"/>
      <point x="130" y="564"/>
      <point x="248" y="564" type="curve" smooth="yes"/>
      <point x="324" y="564"/>
      <point x="361" y="552"/>
      <point x="413" y="531" type="curve" smooth="yes"/>
      <point x="433" y="523"/>
      <point x="443" y="499"/>
      <point x="435" y="479" type="curve" smooth="yes"/>
      <point x="427" y="459"/>
      <point x="403" y="449"/>
    </contour>
  </outline>
</glyph>
<glyph name="T" format="1">
  <advance width="558"/>
  <unicode hex="0054"/>
  <outline>
    <contour>
      <point x="317" y="518" type="curve" smooth="yes"/>
      <point x="317" y="33" type="line" smooth="yes"/>
      <point x="317" y="11"/>
      <point x="299" y="-7"/>
      <point x="277" y="-7" type="curve" smooth="yes"/>
      <point x="255" y="-7"/>
      <point x="237" y="11"/>
      <point x="237" y="33" type="curve" smooth="yes"/>
      <point x="237" y="518" type="line" smooth="yes"/>
      <point x="237" y="540"/>
      <point x="255" y="558"/>
      <point x="277" y="558" type="curve" smooth="yes"/>
      <point x="299" y="558"/>
      <point x="317" y="540"/>
    </contour>
    <contour>
      <point x="65" y="558" type="curve" smooth="yes"/>
      <point x="493" y="558" type="line" smooth="yes"/>
      <point x="515" y="558"/>
      <point x="533" y="540"/>
      <point x="533" y="518" type="curve" smooth="yes"/>
      <point x="533" y="496"/>
      <point x="515" y="478"/>
      <point x="493" y="478" type="curve" smooth="yes"/>
      <point x="65" y="478" type="line" smooth="yes"/>
      <point x="43" y="478"/>
      <point x="25" y="496"/>
      <point x="25" y="518" type="curve" smooth="yes"/>
      <point x="25" y="540"/>
      <point x="43" y="558"/>
    </contour>
  </outline>
</glyph>
<glyph name="U" format="1">
  <advance width="626"/>
  <unicode hex="0055"/>
  <outline>
    <contour>
      <point x="156" y="518" type="curve" smooth="yes"/>
      <point x="156" y="222" type="line" smooth="yes"/>
      <point x="156" y="121"/>
      <point x="219" y="64"/>
      <point x="311" y="64" type="curve" smooth="yes"/>
      <point x="413" y="64"/>
      <point x="470" y="121"/>
      <point x="470" y="225" type="curve" smooth="yes"/>
      <point x="470" y="518" type="line" smooth="yes"/>
      <point x="470" y="540"/>
      <point x="488" y="558"/>
      <point x="510" y="558" type="curve" smooth="yes"/>
      <point x="532" y="558"/>
      <point x="550" y="540"/>
      <point x="550" y="518" type="curve" smooth="yes"/>
      <point x="550" y="225" type="line" smooth="yes"/>
      <point x="550" y="69"/>
      <point x="463" y="-16"/>
      <point x="311" y="-16" type="curve" smooth="yes"/>
      <point x="173" y="-16"/>
      <point x="76" y="69"/>
      <point x="76" y="222" type="curve"/>
      <point x="76" y="518" type="line" smooth="yes"/>
      <point x="76" y="540"/>
      <point x="94" y="558"/>
      <point x="116" y="558" type="curve" smooth="yes"/>
      <point x="138" y="558"/>
      <point x="156" y="540"/>
    </contour>
  </outline>
</glyph>
<glyph name="V" format="1">
  <advance width="595"/>
  <unicode hex="0056"/>
  <outline>
    <contour>
      <point x="118" y="531" type="curve" smooth="yes"/>
      <point x="158" y="409"/>
      <point x="291" y="121"/>
      <point x="330" y="48" type="curve" smooth="yes"/>
      <point x="340" y="29"/>
      <point x="333" y="4"/>
      <point x="314" y="-6" type="curve" smooth="yes"/>
      <point x="295" y="-16"/>
      <point x="270" y="-9"/>
      <point x="260" y="10" type="curve" smooth="yes"/>
      <point x="219" y="85"/>
      <point x="82" y="381"/>
      <point x="42" y="507" type="curve" smooth="yes"/>
      <point x="35" y="527"/>
      <point x="47" y="550"/>
      <point x="68" y="557" type="curve" smooth="yes"/>
      <point x="88" y="564"/>
      <point x="111" y="552"/>
    </contour>
    <contour>
      <point x="263" y="42" type="curve" smooth="yes"/>
      <point x="306" y="125"/>
      <point x="429" y="390"/>
      <point x="477" y="531" type="curve" smooth="yes"/>
      <point x="484" y="551"/>
      <point x="508" y="563"/>
      <point x="528" y="556" type="curve" smooth="yes"/>
      <point x="548" y="549"/>
      <point x="560" y="525"/>
      <point x="553" y="505" type="curve" smooth="yes"/>
      <point x="503" y="360"/>
      <point x="378" y="89"/>
      <point x="333" y="4" type="curve" smooth="yes"/>
      <point x="323" y="-15"/>
      <point x="299" y="-22"/>
      <point x="279" y="-12" type="curve" smooth="yes"/>
      <point x="260" y="-2"/>
      <point x="253" y="22"/>
    </contour>
  </outline>
</glyph>
<glyph name="W" format="1">
  <advance width="893"/>
  <unicode hex="0057"/>
  <outline>
    <contour>
      <point x="128" y="528" type="curve" smooth="yes"/>
      <point x="161" y="405"/>
      <point x="260" y="120"/>
      <point x="294" y="47" type="curve" smooth="yes"/>
      <point x="303" y="28"/>
      <point x="295" y="3"/>
      <point x="275" y="-6" type="curve" smooth="yes"/>
      <point x="256" y="-15"/>
      <point x="231" y="-7"/>
      <point x="222" y="13" type="curve" smooth="yes"/>
      <point x="186" y="88"/>
      <point x="85" y="381"/>
      <point x="50" y="506" type="curve" smooth="yes"/>
      <point x="45" y="527"/>
      <point x="58" y="550"/>
      <point x="78" y="556" type="curve" smooth="yes"/>
      <point x="99" y="561"/>
      <point x="122" y="548"/>
    </contour>
    <contour>
      <point x="225" y="40" type="curve" smooth="yes"/>
      <point x="262" y="123"/>
      <point x="366" y="386"/>
      <point x="409" y="526" type="curve" smooth="yes"/>
      <point x="415" y="546"/>
      <point x="438" y="559"/>
      <point x="459" y="552" type="curve" smooth="yes"/>
      <point x="479" y="546"/>
      <point x="492" y="523"/>
      <point x="485" y="502" type="curve" smooth="yes"/>
      <point x="442" y="360"/>
      <point x="336" y="93"/>
      <point x="299" y="8" type="curve" smooth="yes"/>
      <point x="290" y="-12"/>
      <point x="266" y="-21"/>
      <point x="246" y="-13" type="curve" smooth="yes"/>
      <point x="226" y="-4"/>
      <point x="217" y="20"/>
    </contour>
    <contour>
      <point x="489" y="514" type="curve" smooth="yes"/>
      <point x="527" y="393"/>
      <point x="628" y="120"/>
      <point x="664" y="46" type="curve" smooth="yes"/>
      <point x="673" y="27"/>
      <point x="665" y="2"/>
      <point x="645" y="-7" type="curve" smooth="yes"/>
      <point x="626" y="-16"/>
      <point x="601" y="-8"/>
      <point x="592" y="12" type="curve" smooth="yes"/>
      <point x="556" y="86"/>
      <point x="451" y="367"/>
      <point x="413" y="490" type="curve" smooth="yes"/>
      <point x="406" y="511"/>
      <point x="418" y="534"/>
      <point x="439" y="540" type="curve" smooth="yes"/>
      <point x="460" y="547"/>
      <point x="483" y="535"/>
    </contour>
    <contour>
      <point x="595" y="39" type="curve" smooth="yes"/>
      <point x="632" y="122"/>
      <point x="726" y="387"/>
      <point x="767" y="528" type="curve" smooth="yes"/>
      <point x="773" y="549"/>
      <point x="795" y="561"/>
      <point x="816" y="555" type="curve" smooth="yes"/>
      <point x="837" y="549"/>
      <point x="849" y="527"/>
      <point x="843" y="506" type="curve" smooth="yes"/>
      <point x="802" y="361"/>
      <point x="706" y="92"/>
      <point x="669" y="7" type="curve" smooth="yes"/>
      <point x="660" y="-13"/>
      <point x="636" y="-22"/>
      <point x="616" y="-14" type="curve" smooth="yes"/>
      <point x="596" y="-5"/>
      <point x="587" y="19"/>
    </contour>
  </outline>
</glyph>
<glyph name="X" format="1">
  <advance width="573"/>
  <unicode hex="0058"/>
  <outline>
    <contour>
      <point x="136" y="541" type="curve" smooth="yes"/>
      <point x="232" y="401"/>
      <point x="458" y="140"/>
      <point x="517" y="56" type="curve" smooth="yes"/>
      <point x="529" y="38"/>
      <point x="525" y="13"/>
      <point x="507" y="0" type="curve" smooth="yes"/>
      <point x="489" y="-12"/>
      <point x="464" y="-8"/>
      <point x="451" y="10" type="curve" smooth="yes"/>
      <point x="392" y="94"/>
      <point x="166" y="355"/>
      <point x="70" y="495" type="curve" smooth="yes"/>
      <point x="58" y="513"/>
      <point x="63" y="539"/>
      <point x="80" y="551" type="curve" smooth="yes"/>
      <point x="98" y="563"/>
      <point x="124" y="558"/>
    </contour>
    <contour>
      <point x="58" y="57" type="curve" smooth="yes"/>
      <point x="136" y="163"/>
      <point x="345" y="407"/>
      <point x="430" y="540" type="curve" smooth="yes"/>
      <point x="442" y="558"/>
      <point x="468" y="563"/>
      <point x="486" y="552" type="curve" smooth="yes"/>
      <point x="504" y="540"/>
      <point x="509" y="514"/>
      <point x="498" y="496" type="curve" smooth="yes"/>
      <point x="411" y="363"/>
      <point x="202" y="117"/>
      <point x="122" y="9" type="curve" smooth="yes"/>
      <point x="109" y="-8"/>
      <point x="84" y="-12"/>
      <point x="66" y="1" type="curve" smooth="yes"/>
      <point x="49" y="14"/>
      <point x="45" y="39"/>
    </contour>
  </outline>
</glyph>
<glyph name="Y" format="1">
  <advance width="570"/>
  <unicode hex="0059"/>
  <outline>
    <contour>
      <point x="327" y="201" type="curve" smooth="yes"/>
      <point x="327" y="33" type="line" smooth="yes"/>
      <point x="327" y="11"/>
      <point x="309" y="-7"/>
      <point x="287" y="-7" type="curve" smooth="yes"/>
      <point x="265" y="-7"/>
      <point x="247" y="11"/>
      <point x="247" y="33" type="curve" smooth="yes"/>
      <point x="247" y="201" type="line" smooth="yes"/>
      <point x="247" y="223"/>
      <point x="265" y="241"/>
      <point x="287" y="241" type="curve" smooth="yes"/>
      <point x="309" y="241"/>
      <point x="327" y="223"/>
    </contour>
    <contour>
      <point x="113" y="539" type="curve" smooth="yes"/>
      <point x="155" y="469"/>
      <point x="273" y="293"/>
      <point x="316" y="237" type="curve" smooth="yes"/>
      <point x="329" y="220"/>
      <point x="325" y="194"/>
      <point x="308" y="181" type="curve" smooth="yes"/>
      <point x="291" y="168"/>
      <point x="265" y="172"/>
      <point x="252" y="189" type="curve" smooth="yes"/>
      <point x="209" y="247"/>
      <point x="87" y="427"/>
      <point x="45" y="497" type="curve" smooth="yes"/>
      <point x="34" y="516"/>
      <point x="40" y="541"/>
      <point x="58" y="552" type="curve" smooth="yes"/>
      <point x="77" y="563"/>
      <point x="102" y="557"/>
    </contour>
    <contour>
      <point x="255" y="231" type="curve" smooth="yes"/>
      <point x="303" y="296"/>
      <point x="416" y="470"/>
      <point x="457" y="538" type="curve" smooth="yes"/>
      <point x="468" y="557"/>
      <point x="493" y="563"/>
      <point x="511" y="552" type="curve" smooth="yes"/>
      <point x="530" y="541"/>
      <point x="536" y="516"/>
      <point x="525" y="498" type="curve" smooth="yes"/>
      <point x="484" y="428"/>
      <point x="369" y="250"/>
      <point x="319" y="183" type="curve" smooth="yes"/>
      <point x="306" y="166"/>
      <point x="280" y="162"/>
      <point x="263" y="175" type="curve" smooth="yes"/>
      <point x="246" y="188"/>
      <point x="242" y="214"/>
    </contour>
  </outline>
</glyph>
<glyph name="Z" format="1">
  <advance width="577"/>
  <unicode hex="005A"/>
  <outline>
    <contour>
      <point x="504" y="496" type="curve" smooth="yes"/>
      <point x="441" y="401"/>
      <point x="189" y="101"/>
      <point x="136" y="19" type="curve" smooth="yes"/>
      <point x="124" y="1"/>
      <point x="98" y="-4"/>
      <point x="80" y="7" type="curve" smooth="yes"/>
      <point x="62" y="19"/>
      <point x="57" y="45"/>
      <point x="68" y="63" type="curve" smooth="yes"/>
      <point x="121" y="145"/>
      <point x="375" y="445"/>
      <point x="438" y="540" type="curve" smooth="yes"/>
      <point x="450" y="558"/>
      <point x="475" y="563"/>
      <point x="493" y="551" type="curve" smooth="yes"/>
      <point x="511" y="539"/>
      <point x="516" y="514"/>
    </contour>
    <contour>
      <point x="111" y="558" type="curve" smooth="yes"/>
      <point x="460" y="558" type="line" smooth="yes"/>
      <point x="482" y="558"/>
      <point x="500" y="540"/>
      <point x="500" y="518" type="curve" smooth="yes"/>
      <point x="500" y="496"/>
      <point x="482" y="478"/>
      <point x="460" y="478" type="curve" smooth="yes"/>
      <point x="111" y="478" type="line" smooth="yes"/>
      <point x="89" y="478"/>
      <point x="71" y="496"/>
      <point x="71" y="518" type="curve" smooth="yes"/>
      <point x="71" y="540"/>
      <point x="89" y="558"/>
    </contour>
    <contour>
      <point x="98" y="73" type="curve" smooth="yes"/>
      <point x="483" y="73" type="line" smooth="yes"/>
      <point x="505" y="73"/>
      <point x="523" y="55"/>
      <point x="523" y="33" type="curve" smooth="yes"/>
      <point x="523" y="11"/>
      <point x="505" y="-7"/>
      <point x="483" y="-7" type="curve" smooth="yes"/>
      <point x="98" y="-7" type="line" smooth="yes"/>
      <point x="76" y="-7"/>
      <point x="58" y="11"/>
      <point x="58" y="33" type="curve" smooth="yes"/>
      <point x="58" y="55"/>
      <point x="76" y="73"/>
    </contour>
  </outline>
</glyph>
<glyph name="bracketleft" format="1">
  <advance width="325"/>
  <unicode hex="005B"/>
  <outline>
    <contour>
      <point x="238" y="573" type="curve" smooth="yes"/>
      <point x="103" y="573" type="line"/>
      <point x="143" y="613" type="line"/>
      <point x="143" y="-66" type="line"/>
      <point x="103" y="-26" type="line"/>
      <point x="238" y="-26" type="line" smooth="yes"/>
      <point x="260" y="-26"/>
      <point x="278" y="-44"/>
      <point x="278" y="-66" type="curve" smooth="yes"/>
      <point x="278" y="-88"/>
      <point x="260" y="-106"/>
      <point x="238" y="-106" type="curve" smooth="yes"/>
      <point x="103" y="-106" type="line" smooth="yes"/>
      <point x="81" y="-106"/>
      <point x="63" y="-88"/>
      <point x="63" y="-66" type="curve"/>
      <point x="63" y="613" type="line"/>
      <point x="63" y="635"/>
      <point x="81" y="653"/>
      <point x="103" y="653" type="curve" smooth="yes"/>
      <point x="238" y="653" type="line" smooth="yes"/>
      <point x="260" y="653"/>
      <point x="278" y="635"/>
      <point x="278" y="613" type="curve" smooth="yes"/>
      <point x="278" y="591"/>
      <point x="260" y="573"/>
    </contour>
  </outline>
</glyph>
<glyph name="asciicircum" format="1">
  <advance width="500"/>
  <unicode hex="005E"/>
  <outline>
    <contour>
      <point x="281" y="507" type="curve" smooth="yes"/>
      <point x="234" y="416"/>
      <point x="183" y="321"/>
      <point x="142" y="241" type="curve" smooth="yes"/>
      <point x="132" y="222"/>
      <point x="107" y="214"/>
      <point x="88" y="223" type="curve" smooth="yes"/>
      <point x="69" y="233"/>
      <point x="61" y="258"/>
      <point x="70" y="277" type="curve" smooth="yes"/>
      <point x="111" y="357"/>
      <point x="162" y="452"/>
      <point x="211" y="545" type="curve" smooth="yes"/>
      <point x="221" y="564"/>
      <point x="245" y="571"/>
      <point x="265" y="561" type="curve" smooth="yes"/>
      <point x="284" y="551"/>
      <point x="291" y="527"/>
    </contour>
    <contour>
      <point x="359" y="241" type="curve" smooth="yes"/>
      <point x="319" y="320"/>
      <point x="270" y="415"/>
      <point x="220" y="507" type="curve" smooth="yes"/>
      <point x="210" y="526"/>
      <point x="217" y="551"/>
      <point x="236" y="561" type="curve" smooth="yes"/>
      <point x="255" y="571"/>
      <point x="280" y="564"/>
      <point x="290" y="545" type="curve" smooth="yes"/>
      <point x="340" y="453"/>
      <point x="389" y="358"/>
      <point x="431" y="277" type="curve" smooth="yes"/>
      <point x="440" y="258"/>
      <point x="432" y="233"/>
      <point x="413" y="223" type="curve" smooth="yes"/>
      <point x="394" y="214"/>
      <point x="369" y="222"/>
    </contour>
  </outline>
</glyph>
<glyph name="underscore" format="1">
  <advance width="545"/>
  <unicode hex="005F"/>
  <outline>
    <contour>
      <point x="65" y="-51" type="curve" smooth="yes"/>
      <point x="480" y="-51" type="line" smooth="yes"/>
      <point x="502" y="-51"/>
      <point x="520" y="-69"/>
      <point x="520" y="-91" type="curve" smooth="yes"/>
      <point x="520" y="-113"/>
      <point x="502" y="-131"/>
      <point x="480" y="-131" type="curve" smooth="yes"/>
      <point x="65" y="-131" type="line" smooth="yes"/>
      <point x="43" y="-131"/>
      <point x="25" y="-113"/>
      <point x="25" y="-91" type="curve" smooth="yes"/>
      <point x="25" y="-69"/>
      <point x="43" y="-51"/>
    </contour>
  </outline>
</glyph>
<glyph name="grave" format="1">
  <advance width="500"/>
  <unicode hex="0060"/>
  <outline>
    <contour>
      <point x="251" y="622" type="curve" smooth="yes"/>
      <point x="280" y="585"/>
      <point x="295" y="567"/>
      <point x="320" y="526" type="curve" smooth="yes"/>
      <point x="331" y="508"/>
      <point x="325" y="482"/>
      <point x="307" y="471" type="curve" smooth="yes"/>
      <point x="289" y="460"/>
      <point x="263" y="466"/>
      <point x="252" y="484" type="curve" smooth="yes"/>
      <point x="229" y="521"/>
      <point x="216" y="539"/>
      <point x="189" y="572" type="curve" smooth="yes"/>
      <point x="175" y="589"/>
      <point x="178" y="615"/>
      <point x="195" y="628" type="curve" smooth="yes"/>
      <point x="212" y="642"/>
      <point x="238" y="639"/>
    </contour>
  </outline>
</glyph>
<glyph name="a" format="1">
  <advance width="456"/>
  <unicode hex="0061"/>
  <outline>
    <contour>
      <point x="114" y="397" type="curve" smooth="yes"/>
      <point x="138" y="405"/>
      <point x="183" y="415"/>
      <point x="220" y="415" type="curve" smooth="yes"/>
      <point x="339" y="415"/>
      <point x="394" y="343"/>
      <point x="394" y="238" type="curve" smooth="yes"/>
      <point x="394" y="147" type="line" smooth="yes"/>
      <point x="394" y="106"/>
      <point x="402" y="81"/>
      <point x="420" y="61" type="curve" smooth="yes"/>
      <point x="435" y="45"/>
      <point x="434" y="19"/>
      <point x="418" y="5" type="curve" smooth="yes"/>
      <point x="402" y="-10"/>
      <point x="376" y="-9"/>
      <point x="362" y="7" type="curve" smooth="yes"/>
      <point x="332" y="39"/>
      <point x="314" y="78"/>
      <point x="314" y="147" type="curve" smooth="yes"/>
      <point x="314" y="238" type="line" smooth="yes"/>
      <point x="314" y="295"/>
      <point x="285" y="335"/>
      <point x="220" y="335" type="curve" smooth="yes"/>
      <point x="191" y="335"/>
      <point x="158" y="327"/>
      <point x="140" y="321" type="curve" smooth="yes"/>
      <point x="119" y="314"/>
      <point x="96" y="326"/>
      <point x="89" y="346" type="curve" smooth="yes"/>
      <point x="82" y="367"/>
      <point x="94" y="390"/>
    </contour>
    <contour>
      <point x="352" y="187" type="curve" smooth="yes"/>
      <point x="318" y="188"/>
      <point x="289" y="190"/>
      <point x="260" y="190" type="curve" smooth="yes"/>
      <point x="202" y="190"/>
      <point x="161" y="178"/>
      <point x="136" y="154" type="curve" smooth="yes"/>
      <point x="124" y="142"/>
      <point x="120" y="128"/>
      <point x="120" y="114" type="curve"/>
      <point x="120" y="93"/>
      <point x="141" y="73"/>
      <point x="177" y="73" type="curve" smooth="yes"/>
      <point x="238" y="73"/>
      <point x="283" y="99"/>
      <point x="322" y="152" type="curve" smooth="yes"/>
      <point x="335" y="169"/>
      <point x="360" y="173"/>
      <point x="378" y="160" type="curve" smooth="yes"/>
      <point x="395" y="147"/>
      <point x="399" y="122"/>
      <point x="386" y="104" type="curve" smooth="yes"/>
      <point x="329" y="27"/>
      <point x="264" y="-7"/>
      <point x="177" y="-7" type="curve" smooth="yes"/>
      <point x="71" y="-7"/>
      <point x="40" y="63"/>
      <point x="40" y="114" type="curve"/>
      <point x="40" y="150"/>
      <point x="50" y="182"/>
      <point x="80" y="210" type="curve" smooth="yes"/>
      <point x="115" y="246"/>
      <point x="172" y="270"/>
      <point x="260" y="270" type="curve" smooth="yes"/>
      <point x="289" y="270"/>
      <point x="320" y="268"/>
      <point x="354" y="267" type="curve" smooth="yes"/>
      <point x="376" y="266"/>
      <point x="394" y="247"/>
      <point x="393" y="226" type="curve" smooth="yes"/>
      <point x="392" y="204"/>
      <point x="373" y="186"/>
    </contour>
  </outline>
</glyph>
<glyph name="b" format="1">
  <advance width="515"/>
  <unicode hex="0062"/>
  <outline>
    <contour>
      <point x="75" y="34" type="curve" smooth="yes"/>
      <point x="75" y="544" type="line" smooth="yes"/>
      <point x="75" y="566"/>
      <point x="93" y="584"/>
      <point x="115" y="584" type="curve" smooth="yes"/>
      <point x="137" y="584"/>
      <point x="155" y="566"/>
      <point x="155" y="544" type="curve" smooth="yes"/>
      <point x="155" y="34" type="line" smooth="yes"/>
      <point x="155" y="12"/>
      <point x="137" y="-6"/>
      <point x="115" y="-6" type="curve" smooth="yes"/>
      <point x="93" y="-6"/>
      <point x="75" y="12"/>
    </contour>
    <contour>
      <point x="134" y="107" type="curve" smooth="yes"/>
      <point x="176" y="84"/>
      <point x="221" y="73"/>
      <point x="273" y="73" type="curve" smooth="yes"/>
      <point x="346" y="73"/>
      <point x="397" y="124"/>
      <point x="397" y="203" type="curve" smooth="yes"/>
      <point x="397" y="279"/>
      <point x="350" y="335"/>
      <point x="286" y="335" type="curve" smooth="yes"/>
      <point x="235" y="335"/>
      <point x="186" y="295"/>
      <point x="150" y="238" type="curve" smooth="yes"/>
      <point x="138" y="219"/>
      <point x="113" y="214"/>
      <point x="95" y="225" type="curve" smooth="yes"/>
      <point x="76" y="237"/>
      <point x="71" y="262"/>
      <point x="82" y="280" type="curve" smooth="yes"/>
      <point x="136" y="367"/>
      <point x="213" y="415"/>
      <point x="286" y="415" type="curve" smooth="yes"/>
      <point x="390" y="415"/>
      <point x="477" y="333"/>
      <point x="477" y="203" type="curve" smooth="yes"/>
      <point x="477" y="74"/>
      <point x="392" y="-7"/>
      <point x="273" y="-7" type="curve" smooth="yes"/>
      <point x="207" y="-7"/>
      <point x="150" y="8"/>
      <point x="96" y="37" type="curve" smooth="yes"/>
      <point x="77" y="47"/>
      <point x="70" y="72"/>
      <point x="80" y="91" type="curve" smooth="yes"/>
      <point x="90" y="110"/>
      <point x="115" y="117"/>
    </contour>
  </outline>
</glyph>
<glyph name="c" format="1">
  <advance width="443"/>
  <unicode hex="0063"/>
  <outline>
    <contour>
      <point x="341" y="322" type="curve" smooth="yes"/>
      <point x="318" y="330"/>
      <point x="290" y="335"/>
      <point x="265" y="335" type="curve" smooth="yes"/>
      <point x="173" y="335"/>
      <point x="119" y="277"/>
      <point x="119" y="195" type="curve"/>
      <point x="119" y="124"/>
      <point x="174" y="73"/>
      <point x="264" y="73" type="curve" smooth="yes"/>
      <point x="299" y="73"/>
      <point x="327" y="80"/>
      <point x="351" y="89" type="curve" smooth="yes"/>
      <point x="371" y="97"/>
      <point x="395" y="87"/>
      <point x="403" y="67" type="curve" smooth="yes"/>
      <point x="411" y="47"/>
      <point x="401" y="23"/>
      <point x="381" y="15" type="curve" smooth="yes"/>
      <point x="349" y="2"/>
      <point x="311" y="-7"/>
      <point x="264" y="-7" type="curve" smooth="yes"/>
      <point x="116" y="-7"/>
      <point x="39" y="84"/>
      <point x="39" y="195" type="curve"/>
      <point x="39" y="321"/>
      <point x="121" y="415"/>
      <point x="265" y="415" type="curve" smooth="yes"/>
      <point x="298" y="415"/>
      <point x="336" y="408"/>
      <point x="367" y="398" type="curve" smooth="yes"/>
      <point x="387" y="391"/>
      <point x="399" y="368"/>
      <point x="392" y="347" type="curve" smooth="yes"/>
      <point x="385" y="327"/>
      <point x="362" y="315"/>
    </contour>
  </outline>
</glyph>
<glyph name="d" format="1">
  <advance width="514"/>
  <unicode hex="0064"/>
  <outline>
    <contour>
      <point x="374" y="285" type="curve" smooth="yes"/>
      <point x="336" y="316"/>
      <point x="299" y="335"/>
      <point x="249" y="335" type="curve" smooth="yes"/>
      <point x="173" y="335"/>
      <point x="118" y="276"/>
      <point x="118" y="196" type="curve"/>
      <point x="118" y="123"/>
      <point x="164" y="73"/>
      <point x="228" y="73" type="curve" smooth="yes"/>
      <point x="290" y="73"/>
      <point x="332" y="118"/>
      <point x="364" y="170" type="curve" smooth="yes"/>
      <point x="375" y="189"/>
      <point x="400" y="195"/>
      <point x="418" y="184" type="curve" smooth="yes"/>
      <point x="437" y="173"/>
      <point x="443" y="148"/>
      <point x="432" y="130" type="curve" smooth="yes"/>
      <point x="386" y="50"/>
      <point x="318" y="-7"/>
      <point x="228" y="-7" type="curve" smooth="yes"/>
      <point x="122" y="-7"/>
      <point x="38" y="71"/>
      <point x="38" y="196" type="curve"/>
      <point x="38" y="324"/>
      <point x="129" y="415"/>
      <point x="249" y="415" type="curve" smooth="yes"/>
      <point x="319" y="415"/>
      <point x="372" y="390"/>
      <point x="424" y="347" type="curve" smooth="yes"/>
      <point x="441" y="333"/>
      <point x="444" y="307"/>
      <point x="430" y="291" type="curve" smooth="yes"/>
      <point x="416" y="274"/>
      <point x="390" y="271"/>
    </contour>
    <contour>
      <point x="439" y="544" type="curve" smooth="yes"/>
      <point x="439" y="33" type="line" smooth="yes"/>
      <point x="439" y="11"/>
      <point x="421" y="-7"/>
      <point x="399" y="-7" type="curve" smooth="yes"/>
      <point x="377" y="-7"/>
      <point x="359" y="11"/>
      <point x="359" y="33" type="curve" smooth="yes"/>
      <point x="359" y="544" type="line" smooth="yes"/>
      <point x="359" y="566"/>
      <point x="377" y="584"/>
      <point x="399" y="584" type="curve" smooth="yes"/>
      <point x="421" y="584"/>
      <point x="439" y="566"/>
    </contour>
  </outline>
</glyph>
<glyph name="e" format="1">
  <advance width="468"/>
  <unicode hex="0065"/>
  <outline>
    <contour>
      <point x="92" y="249" type="curve" smooth="yes"/>
      <point x="311" y="249" type="line" smooth="yes"/>
      <point x="324" y="249"/>
      <point x="343" y="249"/>
      <point x="343" y="267" type="curve" smooth="yes"/>
      <point x="343" y="296"/>
      <point x="303" y="335"/>
      <point x="247" y="335" type="curve" smooth="yes"/>
      <point x="175" y="335"/>
      <point x="119" y="279"/>
      <point x="119" y="199" type="curve"/>
      <point x="119" y="114"/>
      <point x="183" y="73"/>
      <point x="267" y="73" type="curve" smooth="yes"/>
      <point x="298" y="73"/>
      <point x="327" y="80"/>
      <point x="350" y="88" type="curve" smooth="yes"/>
      <point x="370" y="96"/>
      <point x="394" y="86"/>
      <point x="401" y="65" type="curve" smooth="yes"/>
      <point x="409" y="45"/>
      <point x="399" y="21"/>
      <point x="378" y="14" type="curve" smooth="yes"/>
      <point x="349" y="2"/>
      <point x="308" y="-7"/>
      <point x="267" y="-7" type="curve" smooth="yes"/>
      <point x="129" y="-7"/>
      <point x="39" y="68"/>
      <point x="39" y="199" type="curve"/>
      <point x="39" y="329"/>
      <point x="133" y="415"/>
      <point x="247" y="415" type="curve" smooth="yes"/>
      <point x="369" y="415"/>
      <point x="423" y="320"/>
      <point x="423" y="267" type="curve" smooth="yes"/>
      <point x="423" y="205"/>
      <point x="380" y="169"/>
      <point x="311" y="169" type="curve" smooth="yes"/>
      <point x="92" y="169" type="line" smooth="yes"/>
      <point x="70" y="169"/>
      <point x="52" y="187"/>
      <point x="52" y="209" type="curve" smooth="yes"/>
      <point x="52" y="231"/>
      <point x="70" y="249"/>
    </contour>
  </outline>
</glyph>
<glyph name="f" format="1">
  <advance width="328"/>
  <unicode hex="0066"/>
  <outline>
    <contour>
      <point x="277" y="530" type="curve" smooth="yes"/>
      <point x="207" y="526"/>
      <point x="179" y="498"/>
      <point x="179" y="448" type="curve" smooth="yes"/>
      <point x="179" y="33" type="line" smooth="yes"/>
      <point x="179" y="11"/>
      <point x="161" y="-7"/>
      <point x="139" y="-7" type="curve" smooth="yes"/>
      <point x="117" y="-7"/>
      <point x="99" y="11"/>
      <point x="99" y="33" type="curve" smooth="yes"/>
      <point x="99" y="448" type="line" smooth="yes"/>
      <point x="99" y="538"/>
      <point x="135" y="602"/>
      <point x="273" y="610" type="curve" smooth="yes"/>
      <point x="294" y="611"/>
      <point x="314" y="594"/>
      <point x="315" y="572" type="curve" smooth="yes"/>
      <point x="316" y="551"/>
      <point x="299" y="531"/>
    </contour>
    <contour>
      <point x="51" y="415" type="curve" smooth="yes"/>
      <point x="277" y="415" type="line" smooth="yes"/>
      <point x="299" y="415"/>
      <point x="317" y="397"/>
      <point x="317" y="375" type="curve" smooth="yes"/>
      <point x="317" y="353"/>
      <point x="299" y="335"/>
      <point x="277" y="335" type="curve" smooth="yes"/>
      <point x="51" y="335" type="line" smooth="yes"/>
      <point x="29" y="335"/>
      <point x="11" y="353"/>
      <point x="11" y="375" type="curve" smooth="yes"/>
      <point x="11" y="397"/>
      <point x="29" y="415"/>
    </contour>
  </outline>
</glyph>
<glyph name="g" format="1">
  <advance width="512"/>
  <unicode hex="0067"/>
  <outline>
    <contour>
      <point x="380" y="302" type="curve" smooth="yes"/>
      <point x="334" y="324"/>
      <point x="303" y="335"/>
      <point x="254" y="335" type="curve" smooth="yes"/>
      <point x="185" y="335"/>
      <point x="118" y="280"/>
      <point x="118" y="195" type="curve"/>
      <point x="118" y="120"/>
      <point x="168" y="85"/>
      <point x="220" y="85" type="curve" smooth="yes"/>
      <point x="274" y="85"/>
      <point x="327" y="117"/>
      <point x="362" y="173" type="curve" smooth="yes"/>
      <point x="374" y="192"/>
      <point x="399" y="197"/>
      <point x="417" y="186" type="curve" smooth="yes"/>
      <point x="436" y="174"/>
      <point x="441" y="149"/>
      <point x="430" y="131" type="curve" smooth="yes"/>
      <point x="377" y="47"/>
      <point x="298" y="5"/>
      <point x="220" y="5" type="curve" smooth="yes"/>
      <point x="130" y="5"/>
      <point x="38" y="60"/>
      <point x="38" y="195" type="curve"/>
      <point x="38" y="330"/>
      <point x="145" y="415"/>
      <point x="254" y="415" type="curve" smooth="yes"/>
      <point x="317" y="415"/>
      <point x="356" y="402"/>
      <point x="414" y="374" type="curve" smooth="yes"/>
      <point x="434" y="365"/>
      <point x="442" y="340"/>
      <point x="433" y="321" type="curve" smooth="yes"/>
      <point x="424" y="301"/>
      <point x="399" y="293"/>
    </contour>
    <contour>
      <point x="166" y="-108" type="curve" smooth="yes"/>
      <point x="294" y="-108"/>
      <point x="357" y="-63"/>
      <point x="357" y="49" type="curve" smooth="yes"/>
      <point x="357" y="375" type="line" smooth="yes"/>
      <point x="357" y="397"/>
      <point x="375" y="415"/>
      <point x="397" y="415" type="curve" smooth="yes"/>
      <point x="419" y="415"/>
      <point x="437" y="397"/>
      <point x="437" y="375" type="curve" smooth="yes"/>
      <point x="437" y="49" type="line" smooth="yes"/>
      <point x="437" y="-109"/>
      <point x="358" y="-188"/>
      <point x="166" y="-188" type="curve" smooth="yes"/>
      <point x="144" y="-188"/>
      <point x="126" y="-170"/>
      <point x="126" y="-148" type="curve" smooth="yes"/>
      <point x="126" y="-126"/>
      <point x="144" y="-108"/>
    </contour>
  </outline>
</glyph>
<glyph name="i" format="1">
  <advance width="217"/>
  <unicode hex="0069"/>
  <outline>
    <contour>
      <point x="109" y="623" type="curve" smooth="yes"/>
      <point x="137" y="623"/>
      <point x="166" y="601"/>
      <point x="166" y="557" type="curve" smooth="yes"/>
      <point x="166" y="513"/>
      <point x="138" y="493"/>
      <point x="109" y="493" type="curve" smooth="yes"/>
      <point x="77" y="493"/>
      <point x="50" y="517"/>
      <point x="50" y="557" type="curve"/>
      <point x="50" y="597"/>
      <point x="79" y="623"/>
    </contour>
    <contour>
      <point x="68" y="33" type="curve" smooth="yes"/>
      <point x="68" y="375" type="line" smooth="yes"/>
      <point x="68" y="397"/>
      <point x="86" y="415"/>
      <point x="108" y="415" type="curve" smooth="yes"/>
      <point x="130" y="415"/>
      <point x="148" y="397"/>
      <point x="148" y="375" type="curve" smooth="yes"/>
      <point x="148" y="33" type="line" smooth="yes"/>
      <point x="148" y="11"/>
      <point x="130" y="-7"/>
      <point x="108" y="-7" type="curve" smooth="yes"/>
      <point x="86" y="-7"/>
      <point x="68" y="11"/>
    </contour>
    <contour>
      <point x="109" y="543" type="curve" smooth="yes"/>
      <point x="115" y="543"/>
      <point x="130" y="543"/>
      <point x="130" y="557" type="curve" smooth="yes"/>
      <point x="130" y="571"/>
      <point x="117" y="573"/>
      <point x="109" y="573" type="curve" smooth="yes"/>
      <point x="102" y="573"/>
      <point x="86" y="575"/>
      <point x="86" y="557" type="curve" smooth="yes"/>
      <point x="86" y="539"/>
      <point x="103" y="543"/>
    </contour>
  </outline>
</glyph>
<glyph name="j" format="1">
  <advance width="220"/>
  <unicode hex="006A"/>
  <outline>
    <contour>
      <point x="112" y="623" type="curve" smooth="yes"/>
      <point x="140" y="623"/>
      <point x="169" y="601"/>
      <point x="169" y="557" type="curve" smooth="yes"/>
      <point x="169" y="513"/>
      <point x="141" y="493"/>
      <point x="112" y="493" type="curve" smooth="yes"/>
      <point x="80" y="493"/>
      <point x="53" y="517"/>
      <point x="53" y="557" type="curve"/>
      <point x="53" y="597"/>
      <point x="82" y="623"/>
    </contour>
    <contour>
      <point x="-13" y="-88" type="curve" smooth="yes"/>
      <point x="42" y="-66"/>
      <point x="71" y="-25"/>
      <point x="71" y="52" type="curve" smooth="yes"/>
      <point x="71" y="375" type="line" smooth="yes"/>
      <point x="71" y="397"/>
      <point x="89" y="415"/>
      <point x="111" y="415" type="curve" smooth="yes"/>
      <point x="133" y="415"/>
      <point x="151" y="397"/>
      <point x="151" y="375" type="curve" smooth="yes"/>
      <point x="151" y="52" type="line" smooth="yes"/>
      <point x="151" y="-69"/>
      <point x="100" y="-130"/>
      <point x="15" y="-162" type="curve" smooth="yes"/>
      <point x="-5" y="-170"/>
      <point x="-29" y="-160"/>
      <point x="-36" y="-139" type="curve" smooth="yes"/>
      <point x="-44" y="-119"/>
      <point x="-34" y="-95"/>
    </contour>
    <contour>
      <point x="112" y="543" type="curve" smooth="yes"/>
      <point x="118" y="543"/>
      <point x="133" y="543"/>
      <point x="133" y="557" type="curve" smooth="yes"/>
      <point x="133" y="571"/>
      <point x="120" y="573"/>
      <point x="112" y="573" type="curve" smooth="yes"/>
      <point x="105" y="573"/>
      <point x="89" y="575"/>
      <point x="89" y="557" type="curve" smooth="yes"/>
      <point x="89" y="539"/>
      <point x="106" y="543"/>
    </contour>
  </outline>
</glyph>
<glyph name="k" format="1">
  <advance width="483"/>
  <unicode hex="006B"/>
  <outline>
    <contour>
      <point x="75" y="33" type="curve" smooth="yes"/>
      <point x="75" y="544" type="line" smooth="yes"/>
      <point x="75" y="566"/>
      <point x="93" y="584"/>
      <point x="115" y="584" type="curve" smooth="yes"/>
      <point x="137" y="584"/>
      <point x="155" y="566"/>
      <point x="155" y="544" type="curve" smooth="yes"/>
      <point x="155" y="33" type="line" smooth="yes"/>
      <point x="155" y="11"/>
      <point x="137" y="-7"/>
      <point x="115" y="-7" type="curve" smooth="yes"/>
      <point x="93" y="-7"/>
      <point x="75" y="11"/>
    </contour>
    <contour>
      <point x="272" y="282" type="curve" smooth="yes"/>
      <point x="433" y="56" type="line" smooth="yes"/>
      <point x="445" y="39"/>
      <point x="441" y="13"/>
      <point x="423" y="0" type="curve" smooth="yes"/>
      <point x="406" y="-12"/>
      <point x="380" y="-8"/>
      <point x="367" y="10" type="curve" smooth="yes"/>
      <point x="206" y="236" type="line" smooth="yes"/>
      <point x="194" y="253"/>
      <point x="198" y="279"/>
      <point x="216" y="292" type="curve" smooth="yes"/>
      <point x="233" y="304"/>
      <point x="259" y="300"/>
    </contour>
    <contour>
      <point x="412" y="344" type="curve" smooth="yes"/>
      <point x="142" y="132" type="line" smooth="yes"/>
      <point x="125" y="118"/>
      <point x="99" y="121"/>
      <point x="86" y="138" type="curve" smooth="yes"/>
      <point x="72" y="155"/>
      <point x="75" y="181"/>
      <point x="92" y="194" type="curve" smooth="yes"/>
      <point x="362" y="406" type="line" smooth="yes"/>
      <point x="379" y="420"/>
      <point x="405" y="417"/>
      <point x="418" y="400" type="curve" smooth="yes"/>
      <point x="432" y="383"/>
      <point x="429" y="357"/>
    </contour>
  </outline>
</glyph>
<glyph name="l" format="1">
  <advance width="242"/>
  <unicode hex="006C"/>
  <outline>
    <contour>
      <point x="81" y="33" type="curve" smooth="yes"/>
      <point x="81" y="544" type="line" smooth="yes"/>
      <point x="81" y="566"/>
      <point x="99" y="584"/>
      <point x="121" y="584" type="curve" smooth="yes"/>
      <point x="143" y="584"/>
      <point x="161" y="566"/>
      <point x="161" y="544" type="curve" smooth="yes"/>
      <point x="161" y="33" type="line" smooth="yes"/>
      <point x="161" y="11"/>
      <point x="143" y="-7"/>
      <point x="121" y="-7" type="curve" smooth="yes"/>
      <point x="99" y="-7"/>
      <point x="81" y="11"/>
    </contour>
  </outline>
</glyph>
<glyph name="m" format="1">
  <advance width="762"/>
  <unicode hex="006D"/>
  <outline>
    <contour>
      <point x="75" y="33" type="curve" smooth="yes"/>
      <point x="75" y="375" type="line" smooth="yes"/>
      <point x="75" y="397"/>
      <point x="93" y="415"/>
      <point x="115" y="415" type="curve" smooth="yes"/>
      <point x="137" y="415"/>
      <point x="155" y="397"/>
      <point x="155" y="375" type="curve" smooth="yes"/>
      <point x="155" y="33" type="line" smooth="yes"/>
      <point x="155" y="11"/>
      <point x="137" y="-7"/>
      <point x="115" y="-7" type="curve" smooth="yes"/>
      <point x="93" y="-7"/>
      <point x="75" y="11"/>
    </contour>
    <contour>
      <point x="347" y="33" type="curve" smooth="yes"/>
      <point x="347" y="243" type="line" smooth="yes"/>
      <point x="347" y="308"/>
      <point x="321" y="335"/>
      <point x="278" y="335" type="curve" smooth="yes"/>
      <point x="231" y="335"/>
      <point x="183" y="299"/>
      <point x="147" y="259" type="curve" smooth="yes"/>
      <point x="132" y="243"/>
      <point x="106" y="242"/>
      <point x="90" y="256" type="curve" smooth="yes"/>
      <point x="74" y="271"/>
      <point x="73" y="297"/>
      <point x="87" y="313" type="curve" smooth="yes"/>
      <point x="139" y="371"/>
      <point x="211" y="415"/>
      <point x="278" y="415" type="curve" smooth="yes"/>
      <point x="357" y="415"/>
      <point x="427" y="384"/>
      <point x="427" y="243" type="curve" smooth="yes"/>
      <point x="427" y="33" type="line" smooth="yes"/>
      <point x="427" y="11"/>
      <point x="409" y="-7"/>
      <point x="387" y="-7" type="curve" smooth="yes"/>
      <point x="365" y="-7"/>
      <point x="347" y="11"/>
    </contour>
    <contour>
      <point x="617" y="33" type="curve" smooth="yes"/>
      <point x="617" y="243" type="line" smooth="yes"/>
      <point x="617" y="308"/>
      <point x="591" y="335"/>
      <point x="548" y="335" type="curve" smooth="yes"/>
      <point x="501" y="335"/>
      <point x="453" y="299"/>
      <point x="416" y="259" type="curve" smooth="yes"/>
      <point x="402" y="243"/>
      <point x="376" y="242"/>
      <point x="360" y="257" type="curve" smooth="yes"/>
      <point x="344" y="271"/>
      <point x="343" y="297"/>
      <point x="358" y="313" type="curve" smooth="yes"/>
      <point x="411" y="371"/>
      <point x="481" y="415"/>
      <point x="548" y="415" type="curve" smooth="yes"/>
      <point x="627" y="415"/>
      <point x="697" y="384"/>
      <point x="697" y="243" type="curve" smooth="yes"/>
      <point x="697" y="33" type="line" smooth="yes"/>
      <point x="697" y="11"/>
      <point x="679" y="-7"/>
      <point x="657" y="-7" type="curve" smooth="yes"/>
      <point x="635" y="-7"/>
      <point x="617" y="11"/>
    </contour>
  </outline>
</glyph>
<glyph name="n" format="1">
  <advance width="507"/>
  <unicode hex="006E"/>
  <outline>
    <contour>
      <point x="75" y="33" type="curve" smooth="yes"/>
      <point x="75" y="375" type="line" smooth="yes"/>
      <point x="75" y="397"/>
      <point x="93" y="415"/>
      <point x="115" y="415" type="curve" smooth="yes"/>
      <point x="137" y="415"/>
      <point x="155" y="397"/>
      <point x="155" y="375" type="curve" smooth="yes"/>
      <point x="155" y="33" type="line" smooth="yes"/>
      <point x="155" y="11"/>
      <point x="137" y="-7"/>
      <point x="115" y="-7" type="curve" smooth="yes"/>
      <point x="93" y="-7"/>
      <point x="75" y="11"/>
    </contour>
    <contour>
      <point x="362" y="33" type="curve" smooth="yes"/>
      <point x="362" y="233" type="line" smooth="yes"/>
      <point x="362" y="301"/>
      <point x="336" y="335"/>
      <point x="290" y="335" type="curve" smooth="yes"/>
      <point x="237" y="335"/>
      <point x="187" y="300"/>
      <point x="147" y="260" type="curve" smooth="yes"/>
      <point x="132" y="244"/>
      <point x="106" y="244"/>
      <point x="91" y="260" type="curve" smooth="yes"/>
      <point x="75" y="275"/>
      <point x="75" y="301"/>
      <point x="91" y="316" type="curve" smooth="yes"/>
      <point x="147" y="372"/>
      <point x="217" y="415"/>
      <point x="290" y="415" type="curve" smooth="yes"/>
      <point x="372" y="415"/>
      <point x="442" y="376"/>
      <point x="442" y="233" type="curve" smooth="yes"/>
      <point x="442" y="33" type="line" smooth="yes"/>
      <point x="442" y="11"/>
      <point x="424" y="-7"/>
      <point x="402" y="-7" type="curve" smooth="yes"/>
      <point x="380" y="-7"/>
      <point x="362" y="11"/>
    </contour>
  </outline>
</glyph>
<glyph name="o" format="1">
  <advance width="504"/>
  <unicode hex="006F"/>
  <outline>
    <contour>
      <point x="252" y="419" type="curve" smooth="yes"/>
      <point x="383" y="419"/>
      <point x="466" y="321"/>
      <point x="466" y="199" type="curve" smooth="yes"/>
      <point x="466" y="81"/>
      <point x="383" y="-11"/>
      <point x="252" y="-11" type="curve" smooth="yes"/>
      <point x="121" y="-11"/>
      <point x="38" y="82"/>
      <point x="38" y="201" type="curve"/>
      <point x="38" y="320"/>
      <point x="120" y="419"/>
    </contour>
    <contour>
      <point x="252" y="339" type="curve" smooth="yes"/>
      <point x="168" y="339"/>
      <point x="118" y="276"/>
      <point x="118" y="201" type="curve"/>
      <point x="118" y="126"/>
      <point x="171" y="69"/>
      <point x="252" y="69" type="curve" smooth="yes"/>
      <point x="333" y="69"/>
      <point x="386" y="125"/>
      <point x="386" y="199" type="curve" smooth="yes"/>
      <point x="386" y="275"/>
      <point x="335" y="339"/>
    </contour>
  </outline>
</glyph>
<glyph name="p" format="1">
  <advance width="513"/>
  <unicode hex="0070"/>
  <outline>
    <contour>
      <point x="75" y="-158" type="curve" smooth="yes"/>
      <point x="75" y="375" type="line" smooth="yes"/>
      <point x="75" y="397"/>
      <point x="93" y="415"/>
      <point x="115" y="415" type="curve" smooth="yes"/>
      <point x="137" y="415"/>
      <point x="155" y="397"/>
      <point x="155" y="375" type="curve" smooth="yes"/>
      <point x="155" y="-158" type="line" smooth="yes"/>
      <point x="155" y="-180"/>
      <point x="137" y="-198"/>
      <point x="115" y="-198" type="curve" smooth="yes"/>
      <point x="93" y="-198"/>
      <point x="75" y="-180"/>
    </contour>
    <contour>
      <point x="140" y="128" type="curve" smooth="yes"/>
      <point x="179" y="96"/>
      <point x="225" y="73"/>
      <point x="270" y="73" type="curve" smooth="yes"/>
      <point x="345" y="73"/>
      <point x="395" y="131"/>
      <point x="395" y="204" type="curve" smooth="yes"/>
      <point x="395" y="286"/>
      <point x="344" y="335"/>
      <point x="282" y="335" type="curve" smooth="yes"/>
      <point x="229" y="335"/>
      <point x="185" y="296"/>
      <point x="149" y="245" type="curve" smooth="yes"/>
      <point x="136" y="227"/>
      <point x="111" y="223"/>
      <point x="93" y="235" type="curve" smooth="yes"/>
      <point x="75" y="248"/>
      <point x="71" y="273"/>
      <point x="83" y="291" type="curve" smooth="yes"/>
      <point x="137" y="368"/>
      <point x="205" y="415"/>
      <point x="282" y="415" type="curve" smooth="yes"/>
      <point x="382" y="415"/>
      <point x="475" y="344"/>
      <point x="475" y="204" type="curve" smooth="yes"/>
      <point x="475" y="83"/>
      <point x="391" y="-7"/>
      <point x="270" y="-7" type="curve" smooth="yes"/>
      <point x="207" y="-7"/>
      <point x="143" y="22"/>
      <point x="90" y="66" type="curve" smooth="yes"/>
      <point x="73" y="80"/>
      <point x="70" y="106"/>
      <point x="84" y="122" type="curve" smooth="yes"/>
      <point x="98" y="139"/>
      <point x="124" y="142"/>
    </contour>
  </outline>
</glyph>
<glyph name="q" format="1">
  <advance width="513"/>
  <unicode hex="0071"/>
  <outline>
    <contour>
      <point x="438" y="375" type="curve" smooth="yes"/>
      <point x="438" y="-158" type="line" smooth="yes"/>
      <point x="438" y="-180"/>
      <point x="420" y="-198"/>
      <point x="398" y="-198" type="curve" smooth="yes"/>
      <point x="376" y="-198"/>
      <point x="358" y="-180"/>
      <point x="358" y="-158" type="curve" smooth="yes"/>
      <point x="358" y="375" type="line" smooth="yes"/>
      <point x="358" y="397"/>
      <point x="376" y="415"/>
      <point x="398" y="415" type="curve" smooth="yes"/>
      <point x="420" y="415"/>
      <point x="438" y="397"/>
    </contour>
    <contour>
      <point x="377" y="300" type="curve" smooth="yes"/>
      <point x="342" y="322"/>
      <point x="303" y="335"/>
      <point x="254" y="335" type="curve" smooth="yes"/>
      <point x="179" y="335"/>
      <point x="117" y="279"/>
      <point x="117" y="189" type="curve"/>
      <point x="117" y="117"/>
      <point x="168" y="73"/>
      <point x="225" y="73" type="curve" smooth="yes"/>
      <point x="277" y="73"/>
      <point x="327" y="103"/>
      <point x="363" y="162" type="curve" smooth="yes"/>
      <point x="374" y="180"/>
      <point x="400" y="186"/>
      <point x="418" y="175" type="curve" smooth="yes"/>
      <point x="436" y="164"/>
      <point x="442" y="138"/>
      <point x="431" y="120" type="curve" smooth="yes"/>
      <point x="377" y="33"/>
      <point x="301" y="-7"/>
      <point x="225" y="-7" type="curve" smooth="yes"/>
      <point x="130" y="-7"/>
      <point x="37" y="65"/>
      <point x="37" y="189" type="curve"/>
      <point x="37" y="331"/>
      <point x="139" y="415"/>
      <point x="254" y="415" type="curve" smooth="yes"/>
      <point x="321" y="415"/>
      <point x="372" y="398"/>
      <point x="419" y="368" type="curve" smooth="yes"/>
      <point x="438" y="356"/>
      <point x="443" y="331"/>
      <point x="432" y="313" type="curve" smooth="yes"/>
      <point x="420" y="294"/>
      <point x="395" y="289"/>
    </contour>
  </outline>
</glyph>
<glyph name="r" format="1">
  <advance width="358"/>
  <unicode hex="0072"/>
  <outline>
    <contour>
      <point x="75" y="33" type="curve" smooth="yes"/>
      <point x="75" y="375" type="line" smooth="yes"/>
      <point x="75" y="397"/>
      <point x="93" y="415"/>
      <point x="115" y="415" type="curve" smooth="yes"/>
      <point x="137" y="415"/>
      <point x="155" y="397"/>
      <point x="155" y="375" type="curve" smooth="yes"/>
      <point x="155" y="33" type="line" smooth="yes"/>
      <point x="155" y="11"/>
      <point x="137" y="-7"/>
      <point x="115" y="-7" type="curve" smooth="yes"/>
      <point x="93" y="-7"/>
      <point x="75" y="11"/>
    </contour>
    <contour>
      <point x="82" y="266" type="curve" smooth="yes"/>
      <point x="136" y="350"/>
      <point x="201" y="402"/>
      <point x="302" y="415" type="curve" smooth="yes"/>
      <point x="323" y="417"/>
      <point x="344" y="401"/>
      <point x="347" y="380" type="curve" smooth="yes"/>
      <point x="349" y="359"/>
      <point x="333" y="338"/>
      <point x="312" y="335" type="curve" smooth="yes"/>
      <point x="237" y="326"/>
      <point x="190" y="284"/>
      <point x="150" y="222" type="curve" smooth="yes"/>
      <point x="138" y="204"/>
      <point x="113" y="199"/>
      <point x="94" y="210" type="curve" smooth="yes"/>
      <point x="76" y="222"/>
      <point x="71" y="247"/>
    </contour>
  </outline>
</glyph>
<glyph name="s" format="1">
  <advance width="462"/>
  <unicode hex="0073"/>
  <outline>
    <contour>
      <point x="332" y="321" type="curve" smooth="yes"/>
      <point x="306" y="329"/>
      <point x="272" y="335"/>
      <point x="234" y="335" type="curve" smooth="yes"/>
      <point x="186" y="335"/>
      <point x="146" y="321"/>
      <point x="146" y="293" type="curve" smooth="yes"/>
      <point x="146" y="268"/>
      <point x="185" y="258"/>
      <point x="230" y="254" type="curve" smooth="yes"/>
      <point x="270" y="250" type="line" smooth="yes"/>
      <point x="382" y="238"/>
      <point x="416" y="178"/>
      <point x="416" y="119" type="curve" smooth="yes"/>
      <point x="416" y="59"/>
      <point x="383" y="-11"/>
      <point x="240" y="-11" type="curve" smooth="yes"/>
      <point x="188" y="-11"/>
      <point x="133" y="-1"/>
      <point x="84" y="20" type="curve" smooth="yes"/>
      <point x="64" y="29"/>
      <point x="55" y="53"/>
      <point x="63" y="73" type="curve" smooth="yes"/>
      <point x="72" y="93"/>
      <point x="96" y="102"/>
      <point x="116" y="94" type="curve" smooth="yes"/>
      <point x="155" y="77"/>
      <point x="198" y="69"/>
      <point x="240" y="69" type="curve" smooth="yes"/>
      <point x="295" y="69"/>
      <point x="336" y="87"/>
      <point x="336" y="119" type="curve" smooth="yes"/>
      <point x="336" y="148"/>
      <point x="306" y="166"/>
      <point x="262" y="170" type="curve" smooth="yes"/>
      <point x="222" y="174" type="line" smooth="yes"/>
      <point x="87" y="188"/>
      <point x="66" y="244"/>
      <point x="66" y="293" type="curve"/>
      <point x="66" y="347"/>
      <point x="96" y="415"/>
      <point x="234" y="415" type="curve" smooth="yes"/>
      <point x="280" y="415"/>
      <point x="322" y="407"/>
      <point x="354" y="399" type="curve" smooth="yes"/>
      <point x="374" y="393"/>
      <point x="387" y="370"/>
      <point x="382" y="349" type="curve" smooth="yes"/>
      <point x="376" y="329"/>
      <point x="353" y="316"/>
    </contour>
  </outline>
</glyph>
<glyph name="t" format="1">
  <advance width="364"/>
  <unicode hex="0074"/>
  <outline>
    <contour>
      <point x="179" y="501" type="curve" smooth="yes"/>
      <point x="179" y="150" type="line" smooth="yes"/>
      <point x="179" y="96"/>
      <point x="218" y="74"/>
      <point x="285" y="73" type="curve" smooth="yes"/>
      <point x="306" y="73"/>
      <point x="324" y="54"/>
      <point x="324" y="32" type="curve" smooth="yes"/>
      <point x="324" y="11"/>
      <point x="305" y="-7"/>
      <point x="283" y="-7" type="curve" smooth="yes"/>
      <point x="148" y="-4"/>
      <point x="99" y="56"/>
      <point x="99" y="150" type="curve"/>
      <point x="99" y="501" type="line" smooth="yes"/>
      <point x="99" y="523"/>
      <point x="117" y="541"/>
      <point x="139" y="541" type="curve" smooth="yes"/>
      <point x="161" y="541"/>
      <point x="179" y="523"/>
    </contour>
    <contour>
      <point x="51" y="415" type="curve" smooth="yes"/>
      <point x="297" y="415" type="line" smooth="yes"/>
      <point x="319" y="415"/>
      <point x="337" y="397"/>
      <point x="337" y="375" type="curve" smooth="yes"/>
      <point x="337" y="353"/>
      <point x="319" y="335"/>
      <point x="297" y="335" type="curve" smooth="yes"/>
      <point x="51" y="335" type="line" smooth="yes"/>
      <point x="29" y="335"/>
      <point x="11" y="353"/>
      <point x="11" y="375" type="curve" smooth="yes"/>
      <point x="11" y="397"/>
      <point x="29" y="415"/>
    </contour>
  </outline>
</glyph>
<glyph name="u" format="1">
  <advance width="507"/>
  <unicode hex="0075"/>
  <outline>
    <contour>
      <point x="432" y="375" type="curve" smooth="yes"/>
      <point x="432" y="33" type="line" smooth="yes"/>
      <point x="432" y="11"/>
      <point x="414" y="-7"/>
      <point x="392" y="-7" type="curve" smooth="yes"/>
      <point x="370" y="-7"/>
      <point x="352" y="11"/>
      <point x="352" y="33" type="curve" smooth="yes"/>
      <point x="352" y="375" type="line" smooth="yes"/>
      <point x="352" y="397"/>
      <point x="370" y="415"/>
      <point x="392" y="415" type="curve" smooth="yes"/>
      <point x="414" y="415"/>
      <point x="432" y="397"/>
    </contour>
    <contour>
      <point x="145" y="375" type="curve" smooth="yes"/>
      <point x="145" y="175" type="line" smooth="yes"/>
      <point x="145" y="107"/>
      <point x="171" y="73"/>
      <point x="217" y="73" type="curve" smooth="yes"/>
      <point x="269" y="73"/>
      <point x="322" y="116"/>
      <point x="356" y="163" type="curve" smooth="yes"/>
      <point x="368" y="181"/>
      <point x="394" y="185"/>
      <point x="411" y="172" type="curve" smooth="yes"/>
      <point x="429" y="160"/>
      <point x="433" y="134"/>
      <point x="420" y="117" type="curve" smooth="yes"/>
      <point x="370" y="48"/>
      <point x="291" y="-7"/>
      <point x="217" y="-7" type="curve" smooth="yes"/>
      <point x="135" y="-7"/>
      <point x="65" y="32"/>
      <point x="65" y="175" type="curve"/>
      <point x="65" y="375" type="line" smooth="yes"/>
      <point x="65" y="397"/>
      <point x="83" y="415"/>
      <point x="105" y="415" type="curve" smooth="yes"/>
      <point x="127" y="415"/>
      <point x="145" y="397"/>
    </contour>
  </outline>
</glyph>
<glyph name="v" format="1">
  <advance width="461"/>
  <unicode hex="0076"/>
  <outline>
    <contour>
      <point x="105" y="389" type="curve" smooth="yes"/>
      <point x="163" y="239"/>
      <point x="216" y="134"/>
      <point x="268" y="50" type="curve"/>
      <point x="234" y="69" type="line"/>
      <point x="237" y="69" type="line"/>
      <point x="203" y="50" type="line"/>
      <point x="254" y="134"/>
      <point x="317" y="281"/>
      <point x="356" y="389" type="curve" smooth="yes"/>
      <point x="364" y="409"/>
      <point x="387" y="420"/>
      <point x="408" y="413" type="curve" smooth="yes"/>
      <point x="428" y="405"/>
      <point x="439" y="382"/>
      <point x="432" y="361" type="curve" smooth="yes"/>
      <point x="391" y="249"/>
      <point x="324" y="96"/>
      <point x="271" y="8" type="curve" smooth="yes"/>
      <point x="265" y="-2"/>
      <point x="249" y="-11"/>
      <point x="237" y="-11" type="curve" smooth="yes"/>
      <point x="234" y="-11" type="line" smooth="yes"/>
      <point x="222" y="-11"/>
      <point x="206" y="-2"/>
      <point x="200" y="8" type="curve" smooth="yes"/>
      <point x="146" y="96"/>
      <point x="91" y="205"/>
      <point x="31" y="361" type="curve" smooth="yes"/>
      <point x="23" y="381"/>
      <point x="33" y="405"/>
      <point x="54" y="412" type="curve" smooth="yes"/>
      <point x="74" y="420"/>
      <point x="98" y="410"/>
    </contour>
  </outline>
</glyph>
<glyph name="w" format="1">
  <advance width="709"/>
  <unicode hex="0077"/>
  <outline>
    <contour>
      <point x="117" y="385" type="curve" smooth="yes"/>
      <point x="153" y="254"/>
      <point x="200" y="132"/>
      <point x="240" y="47" type="curve"/>
      <point x="204" y="70" type="line"/>
      <point x="206" y="70" type="line"/>
      <point x="170" y="48" type="line"/>
      <point x="212" y="132"/>
      <point x="279" y="269"/>
      <point x="313" y="376" type="curve" smooth="yes"/>
      <point x="319" y="397"/>
      <point x="342" y="409"/>
      <point x="363" y="402" type="curve" smooth="yes"/>
      <point x="384" y="396"/>
      <point x="396" y="373"/>
      <point x="389" y="352" type="curve" smooth="yes"/>
      <point x="355" y="241"/>
      <point x="286" y="100"/>
      <point x="242" y="12" type="curve" smooth="yes"/>
      <point x="236" y="0"/>
      <point x="220" y="-10"/>
      <point x="206" y="-10" type="curve" smooth="yes"/>
      <point x="204" y="-10" type="line" smooth="yes"/>
      <point x="190" y="-10"/>
      <point x="174" y="0"/>
      <point x="168" y="13" type="curve" smooth="yes"/>
      <point x="126" y="100"/>
      <point x="77" y="228"/>
      <point x="39" y="363" type="curve" smooth="yes"/>
      <point x="34" y="384"/>
      <point x="46" y="407"/>
      <point x="67" y="413" type="curve" smooth="yes"/>
      <point x="88" y="418"/>
      <point x="111" y="406"/>
    </contour>
    <contour>
      <point x="396" y="377" type="curve" smooth="yes"/>
      <point x="442" y="247"/>
      <point x="494" y="132"/>
      <point x="539" y="48" type="curve"/>
      <point x="504" y="69" type="line"/>
      <point x="506" y="69" type="line"/>
      <point x="470" y="46" type="line"/>
      <point x="508" y="130"/>
      <point x="561" y="266"/>
      <point x="593" y="384" type="curve" smooth="yes"/>
      <point x="599" y="404"/>
      <point x="622" y="417"/>
      <point x="643" y="412" type="curve" smooth="yes"/>
      <point x="663" y="406"/>
      <point x="676" y="383"/>
      <point x="671" y="362" type="curve" smooth="yes"/>
      <point x="637" y="240"/>
      <point x="582" y="100"/>
      <point x="542" y="12" type="curve" smooth="yes"/>
      <point x="537" y="0"/>
      <point x="520" y="-11"/>
      <point x="506" y="-11" type="curve" smooth="yes"/>
      <point x="504" y="-11" type="line" smooth="yes"/>
      <point x="491" y="-11"/>
      <point x="475" y="-2"/>
      <point x="469" y="10" type="curve" smooth="yes"/>
      <point x="422" y="98"/>
      <point x="368" y="215"/>
      <point x="320" y="351" type="curve" smooth="yes"/>
      <point x="313" y="371"/>
      <point x="324" y="395"/>
      <point x="345" y="402" type="curve" smooth="yes"/>
      <point x="365" y="409"/>
      <point x="389" y="398"/>
    </contour>
  </outline>
</glyph>
<glyph name="x" format="1">
  <advance width="457"/>
  <unicode hex="0078"/>
  <outline>
    <contour>
      <point x="38" y="59" type="curve" smooth="yes"/>
      <point x="103" y="133"/>
      <point x="260" y="302"/>
      <point x="338" y="400" type="curve" smooth="yes"/>
      <point x="351" y="417"/>
      <point x="377" y="420"/>
      <point x="394" y="406" type="curve" smooth="yes"/>
      <point x="411" y="393"/>
      <point x="414" y="367"/>
      <point x="400" y="350" type="curve" smooth="yes"/>
      <point x="322" y="252"/>
      <point x="163" y="81"/>
      <point x="98" y="7" type="curve" smooth="yes"/>
      <point x="84" y="-10"/>
      <point x="58" y="-11"/>
      <point x="42" y="3" type="curve" smooth="yes"/>
      <point x="25" y="17"/>
      <point x="24" y="43"/>
    </contour>
    <contour>
      <point x="112" y="401" type="curve" smooth="yes"/>
      <point x="189" y="309"/>
      <point x="329" y="162"/>
      <point x="419" y="59" type="curve" smooth="yes"/>
      <point x="433" y="43"/>
      <point x="432" y="17"/>
      <point x="415" y="3" type="curve" smooth="yes"/>
      <point x="399" y="-11"/>
      <point x="373" y="-10"/>
      <point x="359" y="7" type="curve" smooth="yes"/>
      <point x="269" y="110"/>
      <point x="129" y="257"/>
      <point x="50" y="349" type="curve" smooth="yes"/>
      <point x="37" y="366"/>
      <point x="39" y="392"/>
      <point x="55" y="406" type="curve" smooth="yes"/>
      <point x="72" y="419"/>
      <point x="98" y="417"/>
    </contour>
  </outline>
</glyph>
<glyph name="y" format="1">
  <advance width="460"/>
  <unicode hex="0079"/>
  <outline>
    <contour>
      <point x="48" y="-106" type="curve" smooth="yes"/>
      <point x="106" y="-73"/>
      <point x="158" y="-33"/>
      <point x="210" y="54" type="curve" smooth="yes"/>
      <point x="261" y="142"/>
      <point x="320" y="276"/>
      <point x="353" y="387" type="curve" smooth="yes"/>
      <point x="359" y="407"/>
      <point x="382" y="420"/>
      <point x="403" y="413" type="curve" smooth="yes"/>
      <point x="423" y="407"/>
      <point x="436" y="384"/>
      <point x="429" y="363" type="curve" smooth="yes"/>
      <point x="394" y="248"/>
      <point x="333" y="106"/>
      <point x="278" y="14" type="curve" smooth="yes"/>
      <point x="218" y="-89"/>
      <point x="156" y="-137"/>
      <point x="88" y="-176" type="curve" smooth="yes"/>
      <point x="69" y="-186"/>
      <point x="44" y="-180"/>
      <point x="33" y="-161" type="curve" smooth="yes"/>
      <point x="23" y="-142"/>
      <point x="29" y="-117"/>
    </contour>
    <contour>
      <point x="108" y="389" type="curve" smooth="yes"/>
      <point x="160" y="240"/>
      <point x="225" y="133"/>
      <point x="275" y="56" type="curve" smooth="yes"/>
      <point x="286" y="38"/>
      <point x="281" y="12"/>
      <point x="263" y="0" type="curve" smooth="yes"/>
      <point x="245" y="-11"/>
      <point x="219" y="-6"/>
      <point x="207" y="12" type="curve" smooth="yes"/>
      <point x="155" y="93"/>
      <point x="88" y="206"/>
      <point x="32" y="363" type="curve" smooth="yes"/>
      <point x="25" y="383"/>
      <point x="36" y="407"/>
      <point x="57" y="414" type="curve" smooth="yes"/>
      <point x="77" y="421"/>
      <point x="101" y="410"/>
    </contour>
  </outline>
</glyph>
<glyph name="z" format="1">
  <advance width="454"/>
  <unicode hex="007A"/>
  <outline>
    <contour>
      <point x="360" y="335" type="curve" smooth="yes"/>
      <point x="91" y="335" type="line" smooth="yes"/>
      <point x="69" y="335"/>
      <point x="51" y="353"/>
      <point x="51" y="375" type="curve" smooth="yes"/>
      <point x="51" y="397"/>
      <point x="69" y="415"/>
      <point x="91" y="415" type="curve" smooth="yes"/>
      <point x="360" y="415" type="line" smooth="yes"/>
      <point x="382" y="415"/>
      <point x="400" y="397"/>
      <point x="400" y="375" type="curve" smooth="yes"/>
      <point x="400" y="353"/>
      <point x="382" y="335"/>
    </contour>
    <contour>
      <point x="76" y="73" type="curve" smooth="yes"/>
      <point x="377" y="73" type="line" smooth="yes"/>
      <point x="399" y="73"/>
      <point x="417" y="55"/>
      <point x="417" y="33" type="curve" smooth="yes"/>
      <point x="417" y="11"/>
      <point x="399" y="-7"/>
      <point x="377" y="-7" type="curve" smooth="yes"/>
      <point x="76" y="-7" type="line" smooth="yes"/>
      <point x="54" y="-7"/>
      <point x="36" y="11"/>
      <point x="36" y="33" type="curve" smooth="yes"/>
      <point x="36" y="55"/>
      <point x="54" y="73"/>
    </contour>
    <contour>
      <point x="396" y="349" type="curve" smooth="yes"/>
      <point x="112" y="15" type="line" smooth="yes"/>
      <point x="98" y="-1"/>
      <point x="73" y="-3"/>
      <point x="56" y="11" type="curve" smooth="yes"/>
      <point x="40" y="25"/>
      <point x="38" y="50"/>
      <point x="52" y="67" type="curve" smooth="yes"/>
      <point x="336" y="401" type="line" smooth="yes"/>
      <point x="350" y="417"/>
      <point x="375" y="419"/>
      <point x="392" y="405" type="curve" smooth="yes"/>
      <point x="408" y="391"/>
      <point x="410" y="366"/>
    </contour>
  </outline>
</glyph>
<glyph name="braceleft" format="1">
  <advance width="325"/>
  <unicode hex="007B"/>
  <outline>
    <contour>
      <point x="278" y="573" type="curve" smooth="yes"/>
      <point x="258" y="573" type="line" smooth="yes"/>
      <point x="196" y="573"/>
      <point x="140" y="548"/>
      <point x="140" y="505" type="curve" smooth="yes"/>
      <point x="140" y="440"/>
      <point x="207" y="405"/>
      <point x="207" y="347" type="curve" smooth="yes"/>
      <point x="207" y="298"/>
      <point x="177" y="252"/>
      <point x="71" y="236" type="curve"/>
      <point x="105" y="276" type="line"/>
      <point x="105" y="270" type="line"/>
      <point x="71" y="310" type="line"/>
      <point x="177" y="294"/>
      <point x="207" y="248"/>
      <point x="207" y="199" type="curve" smooth="yes"/>
      <point x="207" y="141"/>
      <point x="140" y="106"/>
      <point x="140" y="41" type="curve" smooth="yes"/>
      <point x="140" y="-2"/>
      <point x="196" y="-27"/>
      <point x="258" y="-27" type="curve" smooth="yes"/>
      <point x="278" y="-27" type="line" smooth="yes"/>
      <point x="300" y="-27"/>
      <point x="318" y="-45"/>
      <point x="318" y="-67" type="curve" smooth="yes"/>
      <point x="318" y="-89"/>
      <point x="300" y="-107"/>
      <point x="278" y="-107" type="curve" smooth="yes"/>
      <point x="258" y="-107" type="line" smooth="yes"/>
      <point x="124" y="-107"/>
      <point x="60" y="-30"/>
      <point x="60" y="41" type="curve"/>
      <point x="60" y="106"/>
      <point x="127" y="141"/>
      <point x="127" y="199" type="curve" smooth="yes"/>
      <point x="127" y="222"/>
      <point x="89" y="226"/>
      <point x="59" y="230" type="curve" smooth="yes"/>
      <point x="40" y="233"/>
      <point x="25" y="251"/>
      <point x="25" y="270" type="curve"/>
      <point x="25" y="276" type="line"/>
      <point x="25" y="295"/>
      <point x="40" y="313"/>
      <point x="59" y="316" type="curve" smooth="yes"/>
      <point x="89" y="320"/>
      <point x="127" y="324"/>
      <point x="127" y="347" type="curve"/>
      <point x="127" y="405"/>
      <point x="60" y="440"/>
      <point x="60" y="505" type="curve" smooth="yes"/>
      <point x="60" y="576"/>
      <point x="124" y="653"/>
      <point x="258" y="653" type="curve" smooth="yes"/>
      <point x="278" y="653" type="line" smooth="yes"/>
      <point x="300" y="653"/>
      <point x="318" y="635"/>
      <point x="318" y="613" type="curve" smooth="yes"/>
      <point x="318" y="591"/>
      <point x="300" y="573"/>
    </contour>
  </outline>
</glyph>
<glyph name="bar" format="1">
  <advance width="310"/>
  <unicode hex="007C"/>
  <outline>
    <contour>
      <point x="195" y="545" type="curve" smooth="yes"/>
      <point x="195" y="-68" type="line" smooth="yes"/>
      <point x="195" y="-90"/>
      <point x="177" y="-108"/>
      <point x="155" y="-108" type="curve" smooth="yes"/>
      <point x="133" y="-108"/>
      <point x="115" y="-90"/>
      <point x="115" y="-68" type="curve" smooth="yes"/>
      <point x="115" y="545" type="line" smooth="yes"/>
      <point x="115" y="567"/>
      <point x="133" y="585"/>
      <point x="155" y="585" type="curve" smooth="yes"/>
      <point x="177" y="585"/>
      <point x="195" y="567"/>
    </contour>
  </outline>
</glyph>
<glyph name="asciitilde" format="1">
  <advance width="565"/>
  <unicode hex="007E"/>
  <outline>
    <contour>
      <point x="71" y="235" type="curve" smooth="yes"/>
      <point x="115" y="323"/>
      <point x="156" y="355"/>
      <point x="206" y="355" type="curve" smooth="yes"/>
      <point x="250" y="355"/>
      <point x="279" y="330"/>
      <point x="315" y="290" type="curve" smooth="yes"/>
      <point x="334" y="268"/>
      <point x="347" y="250"/>
      <point x="368" y="250" type="curve" smooth="yes"/>
      <point x="401" y="250"/>
      <point x="414" y="288"/>
      <point x="438" y="336" type="curve" smooth="yes"/>
      <point x="447" y="356"/>
      <point x="472" y="364"/>
      <point x="491" y="355" type="curve" smooth="yes"/>
      <point x="511" y="346"/>
      <point x="519" y="321"/>
      <point x="510" y="302" type="curve" smooth="yes"/>
      <point x="462" y="202"/>
      <point x="423" y="170"/>
      <point x="368" y="170" type="curve" smooth="yes"/>
      <point x="327" y="170"/>
      <point x="294" y="192"/>
      <point x="255" y="236" type="curve" smooth="yes"/>
      <point x="239" y="254"/>
      <point x="228" y="275"/>
      <point x="206" y="275" type="curve" smooth="yes"/>
      <point x="178" y="275"/>
      <point x="163" y="241"/>
      <point x="143" y="199" type="curve" smooth="yes"/>
      <point x="133" y="180"/>
      <point x="109" y="172"/>
      <point x="89" y="181" type="curve" smooth="yes"/>
      <point x="70" y="191"/>
      <point x="62" y="215"/>
    </contour>
  </outline>
</glyph>
<glyph name="cent" format="1">
  <advance width="443"/>
  <unicode hex="00A2"/>
  <outline>
    <contour>
      <point x="284" y="517" type="curve" smooth="yes"/>
      <point x="284" y="33" type="line" smooth="yes"/>
      <point x="284" y="11"/>
      <point x="266" y="-7"/>
      <point x="244" y="-7" type="curve" smooth="yes"/>
      <point x="222" y="-7"/>
      <point x="204" y="11"/>
      <point x="204" y="33" type="curve" smooth="yes"/>
      <point x="204" y="517" type="line" smooth="yes"/>
      <point x="204" y="539"/>
      <point x="222" y="557"/>
      <point x="244" y="557" type="curve" smooth="yes"/>
      <point x="266" y="557"/>
      <point x="284" y="539"/>
    </contour>
    <contour>
      <point x="343" y="384" type="curve" smooth="yes"/>
      <point x="319" y="391"/>
      <point x="290" y="396"/>
      <point x="265" y="396" type="curve" smooth="yes"/>
      <point x="175" y="396"/>
      <point x="119" y="343"/>
      <point x="119" y="265" type="curve"/>
      <point x="119" y="197"/>
      <point x="176" y="150"/>
      <point x="264" y="150" type="curve" smooth="yes"/>
      <point x="300" y="150"/>
      <point x="328" y="157"/>
      <point x="353" y="166" type="curve" smooth="yes"/>
      <point x="373" y="173"/>
      <point x="396" y="162"/>
      <point x="404" y="141" type="curve" smooth="yes"/>
      <point x="411" y="121"/>
      <point x="400" y="98"/>
      <point x="379" y="90" type="curve" smooth="yes"/>
      <point x="348" y="79"/>
      <point x="310" y="70"/>
      <point x="264" y="70" type="curve" smooth="yes"/>
      <point x="114" y="70"/>
      <point x="39" y="159"/>
      <point x="39" y="265" type="curve"/>
      <point x="39" y="385"/>
      <point x="119" y="476"/>
      <point x="265" y="476" type="curve" smooth="yes"/>
      <point x="298" y="476"/>
      <point x="335" y="469"/>
      <point x="365" y="460" type="curve" smooth="yes"/>
      <point x="386" y="454"/>
      <point x="398" y="431"/>
      <point x="392" y="411" type="curve" smooth="yes"/>
      <point x="386" y="390"/>
      <point x="363" y="378"/>
    </contour>
  </outline>
</glyph>
<glyph name="sterling" format="1">
  <advance width="466"/>
  <unicode hex="00A3"/>
  <outline>
    <contour>
      <point x="44" y="72" type="curve" smooth="yes"/>
      <point x="121" y="142" type="line" smooth="yes"/>
      <point x="140" y="159"/>
      <point x="158" y="180"/>
      <point x="158" y="200" type="curve" smooth="yes"/>
      <point x="158" y="219"/>
      <point x="145" y="241"/>
      <point x="129" y="261" type="curve" smooth="yes"/>
      <point x="83" y="315"/>
      <point x="57" y="357"/>
      <point x="57" y="414" type="curve" smooth="yes"/>
      <point x="57" y="490"/>
      <point x="112" y="567"/>
      <point x="219" y="567" type="curve" smooth="yes"/>
      <point x="273" y="567"/>
      <point x="322" y="551"/>
      <point x="363" y="525" type="curve" smooth="yes"/>
      <point x="382" y="513"/>
      <point x="387" y="488"/>
      <point x="376" y="470" type="curve" smooth="yes"/>
      <point x="364" y="451"/>
      <point x="339" y="446"/>
      <point x="321" y="457" type="curve" smooth="yes"/>
      <point x="292" y="475"/>
      <point x="257" y="487"/>
      <point x="219" y="487" type="curve" smooth="yes"/>
      <point x="168" y="487"/>
      <point x="137" y="452"/>
      <point x="137" y="414" type="curve" smooth="yes"/>
      <point x="137" y="375"/>
      <point x="159" y="349"/>
      <point x="189" y="313" type="curve" smooth="yes"/>
      <point x="221" y="277"/>
      <point x="238" y="233"/>
      <point x="238" y="200" type="curve" smooth="yes"/>
      <point x="238" y="162"/>
      <point x="214" y="117"/>
      <point x="175" y="82" type="curve" smooth="yes"/>
      <point x="98" y="12" type="line" smooth="yes"/>
      <point x="82" y="-2"/>
      <point x="56" y="-1"/>
      <point x="41" y="15" type="curve" smooth="yes"/>
      <point x="27" y="31"/>
      <point x="28" y="57"/>
    </contour>
    <contour>
      <point x="375" y="-7" type="curve" smooth="yes"/>
      <point x="61" y="-7" type="line" smooth="yes"/>
      <point x="39" y="-7"/>
      <point x="21" y="11"/>
      <point x="21" y="33" type="curve" smooth="yes"/>
      <point x="21" y="55"/>
      <point x="39" y="73"/>
      <point x="61" y="73" type="curve" smooth="yes"/>
      <point x="375" y="73" type="line" smooth="yes"/>
      <point x="397" y="73"/>
      <point x="415" y="55"/>
      <point x="415" y="33" type="curve" smooth="yes"/>
      <point x="415" y="11"/>
      <point x="397" y="-7"/>
    </contour>
    <contour>
      <point x="67" y="298" type="curve" smooth="yes"/>
      <point x="366" y="298" type="line" smooth="yes"/>
      <point x="388" y="298"/>
      <point x="406" y="280"/>
      <point x="406" y="258" type="curve" smooth="yes"/>
      <point x="406" y="236"/>
      <point x="388" y="218"/>
      <point x="366" y="218" type="curve" smooth="yes"/>
      <point x="67" y="218" type="line" smooth="yes"/>
      <point x="45" y="218"/>
      <point x="27" y="236"/>
      <point x="27" y="258" type="curve" smooth="yes"/>
      <point x="27" y="280"/>
      <point x="45" y="298"/>
    </contour>
  </outline>
</glyph>
<glyph name="currency" format="1">
  <advance width="531.0"/>
  <unicode hex="00A4"/>
  <outline>
    <contour>
      <point x="265" y="436" type="curve" smooth="yes"/>
      <point x="386" y="436"/>
      <point x="463" y="345"/>
      <point x="463" y="232" type="curve" smooth="yes"/>
      <point x="463" y="123"/>
      <point x="386" y="38"/>
      <point x="265" y="38" type="curve" smooth="yes"/>
      <point x="144" y="38"/>
      <point x="67" y="124"/>
      <point x="67" y="234" type="curve"/>
      <point x="67" y="344"/>
      <point x="143" y="436"/>
    </contour>
    <contour>
      <point x="265" y="356" type="curve" smooth="yes"/>
      <point x="191" y="356"/>
      <point x="147" y="300"/>
      <point x="147" y="234" type="curve" smooth="yes"/>
      <point x="147" y="168"/>
      <point x="194" y="118"/>
      <point x="265" y="118" type="curve" smooth="yes"/>
      <point x="336" y="118"/>
      <point x="383" y="167"/>
      <point x="383" y="232" type="curve" smooth="yes"/>
      <point x="383" y="299"/>
      <point x="338" y="356"/>
    </contour>
    <contour>
      <point x="419" y="7" type="curve" smooth="yes"/>
      <point x="348" y="85" type="line" smooth="yes"/>
      <point x="334" y="101"/>
      <point x="335" y="127"/>
      <point x="351" y="142" type="curve" smooth="yes"/>
      <point x="367" y="156"/>
      <point x="393" y="155"/>
      <point x="408" y="139" type="curve" smooth="yes"/>
      <point x="479" y="61" type="line" smooth="yes"/>
      <point x="493" y="45"/>
      <point x="492" y="19"/>
      <point x="476" y="4" type="curve" smooth="yes"/>
      <point x="460" y="-10"/>
      <point x="434" y="-9"/>
    </contour>
    <contour>
      <point x="122" y="332" type="curve" smooth="yes"/>
      <point x="57" y="403" type="line" smooth="yes"/>
      <point x="43" y="419"/>
      <point x="44" y="445"/>
      <point x="60" y="460" type="curve" smooth="yes"/>
      <point x="76" y="474"/>
      <point x="102" y="473"/>
      <point x="117" y="457" type="curve" smooth="yes"/>
      <point x="182" y="386" type="line" smooth="yes"/>
      <point x="196" y="370"/>
      <point x="195" y="344"/>
      <point x="179" y="329" type="curve" smooth="yes"/>
      <point x="163" y="315"/>
      <point x="137" y="316"/>
    </contour>
    <contour>
      <point x="348" y="387" type="curve" smooth="yes"/>
      <point x="413" y="459" type="line" smooth="yes"/>
      <point x="428" y="475"/>
      <point x="454" y="476"/>
      <point x="470" y="462" type="curve" smooth="yes"/>
      <point x="486" y="447"/>
      <point x="487" y="421"/>
      <point x="473" y="405" type="curve" smooth="yes"/>
      <point x="408" y="333" type="line" smooth="yes"/>
      <point x="393" y="317"/>
      <point x="367" y="316"/>
      <point x="351" y="330" type="curve" smooth="yes"/>
      <point x="335" y="345"/>
      <point x="334" y="371"/>
    </contour>
    <contour>
      <point x="52" y="61" type="curve" smooth="yes"/>
      <point x="120" y="136" type="line" smooth="yes"/>
      <point x="135" y="152"/>
      <point x="161" y="153"/>
      <point x="177" y="139" type="curve" smooth="yes"/>
      <point x="193" y="124"/>
      <point x="194" y="98"/>
      <point x="180" y="82" type="curve" smooth="yes"/>
      <point x="112" y="7" type="line" smooth="yes"/>
      <point x="97" y="-9"/>
      <point x="71" y="-10"/>
      <point x="55" y="4" type="curve" smooth="yes"/>
      <point x="39" y="19"/>
      <point x="38" y="45"/>
    </contour>
  </outline>
</glyph>
<glyph name="yen" format="1">
  <advance width="570"/>
  <unicode hex="00A5"/>
  <outline>
    <contour>
      <point x="333" y="275" type="curve" smooth="yes"/>
      <point x="333" y="33" type="line" smooth="yes"/>
      <point x="333" y="11"/>
      <point x="315" y="-7"/>
      <point x="293" y="-7" type="curve" smooth="yes"/>
      <point x="271" y="-7"/>
      <point x="253" y="11"/>
      <point x="253" y="33" type="curve" smooth="yes"/>
      <point x="253" y="275" type="line" smooth="yes"/>
      <point x="253" y="297"/>
      <point x="271" y="315"/>
      <point x="293" y="315" type="curve" smooth="yes"/>
      <point x="315" y="315"/>
      <point x="333" y="297"/>
    </contour>
    <contour>
      <point x="131" y="541" type="curve" smooth="yes"/>
      <point x="179" y="473"/>
      <point x="281" y="356"/>
      <point x="318" y="320" type="curve" smooth="yes"/>
      <point x="333" y="305"/>
      <point x="334" y="279"/>
      <point x="319" y="263" type="curve" smooth="yes"/>
      <point x="304" y="248"/>
      <point x="278" y="247"/>
      <point x="262" y="262" type="curve" smooth="yes"/>
      <point x="223" y="300"/>
      <point x="115" y="423"/>
      <point x="65" y="495" type="curve" smooth="yes"/>
      <point x="53" y="513"/>
      <point x="57" y="538"/>
      <point x="75" y="551" type="curve" smooth="yes"/>
      <point x="93" y="563"/>
      <point x="118" y="559"/>
    </contour>
    <contour>
      <point x="265" y="309" type="curve" smooth="yes"/>
      <point x="314" y="358"/>
      <point x="403" y="474"/>
      <point x="451" y="541" type="curve" smooth="yes"/>
      <point x="464" y="559"/>
      <point x="490" y="563"/>
      <point x="507" y="551" type="curve" smooth="yes"/>
      <point x="525" y="538"/>
      <point x="529" y="512"/>
      <point x="517" y="495" type="curve" smooth="yes"/>
      <point x="467" y="424"/>
      <point x="372" y="304"/>
      <point x="321" y="253" type="curve" smooth="yes"/>
      <point x="306" y="237"/>
      <point x="280" y="237"/>
      <point x="265" y="253" type="curve" smooth="yes"/>
      <point x="249" y="268"/>
      <point x="249" y="294"/>
    </contour>
    <contour>
      <point x="118" y="317" type="curve" smooth="yes"/>
      <point x="466" y="317" type="line" smooth="yes"/>
      <point x="488" y="317"/>
      <point x="506" y="299"/>
      <point x="506" y="277" type="curve" smooth="yes"/>
      <point x="506" y="255"/>
      <point x="488" y="237"/>
      <point x="466" y="237" type="curve" smooth="yes"/>
      <point x="118" y="237" type="line" smooth="yes"/>
      <point x="96" y="237"/>
      <point x="78" y="255"/>
      <point x="78" y="277" type="curve" smooth="yes"/>
      <point x="78" y="299"/>
      <point x="96" y="317"/>
    </contour>
    <contour>
      <point x="118" y="175" type="curve" smooth="yes"/>
      <point x="466" y="175" type="line" smooth="yes"/>
      <point x="488" y="175"/>
      <point x="506" y="157"/>
      <point x="506" y="135" type="curve" smooth="yes"/>
      <point x="506" y="113"/>
      <point x="488" y="95"/>
      <point x="466" y="95" type="curve" smooth="yes"/>
      <point x="118" y="95" type="line" smooth="yes"/>
      <point x="96" y="95"/>
      <point x="78" y="113"/>
      <point x="78" y="135" type="curve" smooth="yes"/>
      <point x="78" y="157"/>
      <point x="96" y="175"/>
    </contour>
  </outline>
</glyph>
<glyph name="brokenbar" format="1">
  <advance width="310"/>
  <unicode hex="00A6"/>
  <outline>
    <contour>
      <point x="195" y="159" type="curve" smooth="yes"/>
      <point x="195" y="-68" type="line" smooth="yes"/>
      <point x="195" y="-90"/>
      <point x="177" y="-108"/>
      <point x="155" y="-108" type="curve" smooth="yes"/>
      <point x="133" y="-108"/>
      <point x="115" y="-90"/>
      <point x="115" y="-68" type="curve" smooth="yes"/>
      <point x="115" y="159" type="line" smooth="yes"/>
      <point x="115" y="181"/>
      <point x="133" y="199"/>
      <point x="155" y="199" type="curve" smooth="yes"/>
      <point x="177" y="199"/>
      <point x="195" y="181"/>
    </contour>
    <contour>
      <point x="195" y="545" type="curve" smooth="yes"/>
      <point x="195" y="318" type="line" smooth="yes"/>
      <point x="195" y="296"/>
      <point x="177" y="278"/>
      <point x="155" y="278" type="curve" smooth="yes"/>
      <point x="133" y="278"/>
      <point x="115" y="296"/>
      <point x="115" y="318" type="curve" smooth="yes"/>
      <point x="115" y="545" type="line" smooth="yes"/>
      <point x="115" y="567"/>
      <point x="133" y="585"/>
      <point x="155" y="585" type="curve" smooth="yes"/>
      <point x="177" y="585"/>
      <point x="195" y="567"/>
    </contour>
  </outline>
</glyph>
<glyph name="section" format="1">
  <advance width="535"/>
  <unicode hex="00A7"/>
  <outline>
    <contour>
      <point x="386" y="462" type="curve" smooth="yes"/>
      <point x="343" y="476"/>
      <point x="311" y="484"/>
      <point x="248" y="484" type="curve" smooth="yes"/>
      <point x="203" y="484"/>
      <point x="152" y="469"/>
      <point x="152" y="438" type="curve" smooth="yes"/>
      <point x="152" y="406"/>
      <point x="190" y="382"/>
      <point x="275" y="370" type="curve" smooth="yes"/>
      <point x="439" y="337"/>
      <point x="472" y="275"/>
      <point x="472" y="211" type="curve" smooth="yes"/>
      <point x="472" y="145"/>
      <point x="430" y="75"/>
      <point x="268" y="75" type="curve" smooth="yes"/>
      <point x="246" y="75"/>
      <point x="228" y="93"/>
      <point x="228" y="115" type="curve" smooth="yes"/>
      <point x="228" y="137"/>
      <point x="246" y="155"/>
      <point x="268" y="155" type="curve" smooth="yes"/>
      <point x="335" y="155"/>
      <point x="392" y="171"/>
      <point x="392" y="211" type="curve" smooth="yes"/>
      <point x="392" y="253"/>
      <point x="343" y="275"/>
      <point x="263" y="290" type="curve" smooth="yes"/>
      <point x="80" y="318"/>
      <point x="72" y="388"/>
      <point x="72" y="438" type="curve"/>
      <point x="72" y="495"/>
      <point x="123" y="564"/>
      <point x="248" y="564" type="curve" smooth="yes"/>
      <point x="323" y="564"/>
      <point x="359" y="554"/>
      <point x="410" y="538" type="curve" smooth="yes"/>
      <point x="431" y="532"/>
      <point x="443" y="508"/>
      <point x="436" y="488" type="curve" smooth="yes"/>
      <point x="430" y="467"/>
      <point x="406" y="455"/>
    </contour>
    <contour>
      <point x="238" y="291" type="curve" smooth="yes"/>
      <point x="187" y="291"/>
      <point x="142" y="274"/>
      <point x="142" y="231" type="curve" smooth="yes"/>
      <point x="142" y="197"/>
      <point x="177" y="170"/>
      <point x="266" y="154" type="curve" smooth="yes"/>
      <point x="434" y="125"/>
      <point x="462" y="77"/>
      <point x="462" y="11" type="curve" smooth="yes"/>
      <point x="462" y="-55"/>
      <point x="417" y="-130"/>
      <point x="258" y="-130" type="curve" smooth="yes"/>
      <point x="192" y="-130"/>
      <point x="129" y="-118"/>
      <point x="72" y="-91" type="curve" smooth="yes"/>
      <point x="53" y="-82"/>
      <point x="44" y="-58"/>
      <point x="53" y="-38" type="curve" smooth="yes"/>
      <point x="62" y="-19"/>
      <point x="86" y="-10"/>
      <point x="106" y="-19" type="curve" smooth="yes"/>
      <point x="153" y="-40"/>
      <point x="204" y="-50"/>
      <point x="258" y="-50" type="curve" smooth="yes"/>
      <point x="327" y="-50"/>
      <point x="382" y="-29"/>
      <point x="382" y="11" type="curve" smooth="yes"/>
      <point x="382" y="53"/>
      <point x="328" y="63"/>
      <point x="252" y="76" type="curve" smooth="yes"/>
      <point x="73" y="106"/>
      <point x="62" y="177"/>
      <point x="62" y="231" type="curve"/>
      <point x="62" y="310"/>
      <point x="119" y="371"/>
      <point x="238" y="371" type="curve" smooth="yes"/>
      <point x="260" y="371"/>
      <point x="278" y="353"/>
      <point x="278" y="331" type="curve" smooth="yes"/>
      <point x="278" y="309"/>
      <point x="260" y="291"/>
    </contour>
  </outline>
</glyph>
<glyph name="dieresis" format="1">
  <advance width="500"/>
  <unicode hex="00A8"/>
  <outline>
    <contour>
      <point x="156" y="626" type="curve" smooth="yes"/>
      <point x="181" y="626"/>
      <point x="211" y="608"/>
      <point x="211" y="560" type="curve" smooth="yes"/>
      <point x="211" y="512"/>
      <point x="183" y="496"/>
      <point x="156" y="496" type="curve" smooth="yes"/>
      <point x="127" y="496"/>
      <point x="98" y="518"/>
      <point x="98" y="560" type="curve"/>
      <point x="98" y="602"/>
      <point x="128" y="626"/>
    </contour>
    <contour>
      <point x="334" y="626" type="curve" smooth="yes"/>
      <point x="359" y="626"/>
      <point x="389" y="608"/>
      <point x="389" y="560" type="curve" smooth="yes"/>
      <point x="389" y="512"/>
      <point x="361" y="496"/>
      <point x="334" y="496" type="curve" smooth="yes"/>
      <point x="305" y="496"/>
      <point x="276" y="518"/>
      <point x="276" y="560" type="curve" smooth="yes"/>
      <point x="276" y="602"/>
      <point x="306" y="626"/>
    </contour>
    <contour>
      <point x="156" y="546" type="curve" smooth="yes"/>
      <point x="162" y="546"/>
      <point x="178" y="544"/>
      <point x="178" y="560" type="curve" smooth="yes"/>
      <point x="178" y="576"/>
      <point x="163" y="576"/>
      <point x="156" y="576" type="curve" smooth="yes"/>
      <point x="149" y="576"/>
      <point x="131" y="582"/>
      <point x="131" y="560" type="curve" smooth="yes"/>
      <point x="131" y="538"/>
      <point x="151" y="546"/>
    </contour>
    <contour>
      <point x="334" y="546" type="curve" smooth="yes"/>
      <point x="340" y="546"/>
      <point x="356" y="544"/>
      <point x="356" y="560" type="curve" smooth="yes"/>
      <point x="356" y="576"/>
      <point x="341" y="576"/>
      <point x="334" y="576" type="curve" smooth="yes"/>
      <point x="327" y="576"/>
      <point x="309" y="582"/>
      <point x="309" y="560" type="curve" smooth="yes"/>
      <point x="309" y="538"/>
      <point x="329" y="546"/>
    </contour>
  </outline>
</glyph>
<glyph name="copyright" format="1">
  <advance width="663"/>
  <unicode hex="00A9"/>
  <outline>
    <contour>
      <point x="334" y="567" type="curve" smooth="yes"/>
      <point x="495" y="567"/>
      <point x="624" y="447"/>
      <point x="624" y="275" type="curve" smooth="yes"/>
      <point x="624" y="111"/>
      <point x="517" y="-16"/>
      <point x="334" y="-16" type="curve" smooth="yes"/>
      <point x="160" y="-16"/>
      <point x="39" y="112"/>
      <point x="39" y="272" type="curve"/>
      <point x="39" y="447"/>
      <point x="157" y="567"/>
    </contour>
    <contour>
      <point x="391" y="355" type="curve" smooth="yes"/>
      <point x="379" y="361"/>
      <point x="360" y="366"/>
      <point x="340" y="366" type="curve" smooth="yes"/>
      <point x="293" y="366"/>
      <point x="251" y="328"/>
      <point x="251" y="274" type="curve" smooth="yes"/>
      <point x="251" y="223"/>
      <point x="286" y="185"/>
      <point x="343" y="185" type="curve" smooth="yes"/>
      <point x="363" y="185"/>
      <point x="380" y="189"/>
      <point x="394" y="196" type="curve" smooth="yes"/>
      <point x="413" y="206"/>
      <point x="438" y="199"/>
      <point x="448" y="180" type="curve" smooth="yes"/>
      <point x="458" y="161"/>
      <point x="451" y="136"/>
      <point x="432" y="126" type="curve" smooth="yes"/>
      <point x="408" y="113"/>
      <point x="377" y="105"/>
      <point x="343" y="105" type="curve" smooth="yes"/>
      <point x="234" y="105"/>
      <point x="171" y="179"/>
      <point x="171" y="274" type="curve" smooth="yes"/>
      <point x="171" y="376"/>
      <point x="251" y="446"/>
      <point x="340" y="446" type="curve" smooth="yes"/>
      <point x="376" y="446"/>
      <point x="407" y="437"/>
      <point x="429" y="425" type="curve" smooth="yes"/>
      <point x="448" y="415"/>
      <point x="455" y="390"/>
      <point x="445" y="371" type="curve" smooth="yes"/>
      <point x="435" y="352"/>
      <point x="410" y="345"/>
    </contour>
    <contour>
      <point x="334" y="487" type="curve" smooth="yes"/>
      <point x="205" y="487"/>
      <point x="119" y="399"/>
      <point x="119" y="272" type="curve"/>
      <point x="119" y="156"/>
      <point x="208" y="64"/>
      <point x="334" y="64" type="curve" smooth="yes"/>
      <point x="467" y="64"/>
      <point x="544" y="157"/>
      <point x="544" y="275" type="curve" smooth="yes"/>
      <point x="544" y="399"/>
      <point x="451" y="487"/>
    </contour>
  </outline>
</glyph>
<glyph name="ordfeminine" format="1">
  <advance width="454"/>
  <unicode hex="00AA"/>
  <outline>
    <contour>
      <point x="103" y="214" type="curve" smooth="yes"/>
      <point x="361" y="214" type="line" smooth="yes"/>
      <point x="383" y="214"/>
      <point x="401" y="196"/>
      <point x="401" y="174" type="curve" smooth="yes"/>
      <point x="401" y="152"/>
      <point x="383" y="134"/>
      <point x="361" y="134" type="curve" smooth="yes"/>
      <point x="103" y="134" type="line" smooth="yes"/>
      <point x="81" y="134"/>
      <point x="63" y="152"/>
      <point x="63" y="174" type="curve" smooth="yes"/>
      <point x="63" y="196"/>
      <point x="81" y="214"/>
    </contour>
    <contour>
      <point x="138" y="544" type="curve" smooth="yes"/>
      <point x="156" y="550"/>
      <point x="186" y="557"/>
      <point x="214" y="557" type="curve" smooth="yes"/>
      <point x="304" y="557"/>
      <point x="346" y="503"/>
      <point x="346" y="424" type="curve" smooth="yes"/>
      <point x="346" y="364" type="line" smooth="yes"/>
      <point x="346" y="341"/>
      <point x="349" y="326"/>
      <point x="360" y="315" type="curve" smooth="yes"/>
      <point x="374" y="298"/>
      <point x="373" y="272"/>
      <point x="357" y="258" type="curve" smooth="yes"/>
      <point x="340" y="244"/>
      <point x="314" y="245"/>
      <point x="300" y="261" type="curve" smooth="yes"/>
      <point x="279" y="286"/>
      <point x="266" y="315"/>
      <point x="266" y="364" type="curve" smooth="yes"/>
      <point x="266" y="424" type="line" smooth="yes"/>
      <point x="266" y="455"/>
      <point x="250" y="477"/>
      <point x="214" y="477" type="curve" smooth="yes"/>
      <point x="196" y="477"/>
      <point x="176" y="472"/>
      <point x="164" y="468" type="curve" smooth="yes"/>
      <point x="143" y="461"/>
      <point x="120" y="473"/>
      <point x="113" y="493" type="curve" smooth="yes"/>
      <point x="106" y="514"/>
      <point x="118" y="537"/>
    </contour>
    <contour>
      <point x="302" y="377" type="curve" smooth="yes"/>
      <point x="280" y="378"/>
      <point x="260" y="380"/>
      <point x="241" y="380" type="curve" smooth="yes"/>
      <point x="204" y="380"/>
      <point x="180" y="372"/>
      <point x="163" y="358" type="curve"/>
      <point x="165" y="360" type="line"/>
      <point x="160" y="354"/>
      <point x="159" y="349"/>
      <point x="159" y="342" type="curve" smooth="yes"/>
      <point x="159" y="333"/>
      <point x="172" y="328"/>
      <point x="184" y="328" type="curve" smooth="yes"/>
      <point x="222" y="328"/>
      <point x="249" y="343"/>
      <point x="274" y="376" type="curve" smooth="yes"/>
      <point x="287" y="393"/>
      <point x="312" y="397"/>
      <point x="330" y="384" type="curve" smooth="yes"/>
      <point x="347" y="371"/>
      <point x="351" y="346"/>
      <point x="338" y="328" type="curve" smooth="yes"/>
      <point x="297" y="271"/>
      <point x="250" y="248"/>
      <point x="184" y="248" type="curve" smooth="yes"/>
      <point x="102" y="248"/>
      <point x="79" y="303"/>
      <point x="79" y="342" type="curve"/>
      <point x="79" y="371"/>
      <point x="86" y="394"/>
      <point x="109" y="416" type="curve" smooth="yes"/>
      <point x="109" y="417"/>
      <point x="110" y="418"/>
      <point x="111" y="418" type="curve" smooth="yes"/>
      <point x="138" y="442"/>
      <point x="178" y="460"/>
      <point x="241" y="460" type="curve" smooth="yes"/>
      <point x="262" y="460"/>
      <point x="282" y="458"/>
      <point x="306" y="457" type="curve" smooth="yes"/>
      <point x="327" y="456"/>
      <point x="345" y="437"/>
      <point x="344" y="415" type="curve" smooth="yes"/>
      <point x="343" y="394"/>
      <point x="324" y="376"/>
    </contour>
  </outline>
</glyph>
<glyph name="guillemotleft" format="1">
  <advance width="448"/>
  <unicode hex="00AB"/>
  <outline>
    <contour>
      <point x="276" y="225" type="curve" smooth="yes"/>
      <point x="387" y="101" type="line" smooth="yes"/>
      <point x="401" y="85"/>
      <point x="400" y="59"/>
      <point x="384" y="44" type="curve" smooth="yes"/>
      <point x="368" y="30"/>
      <point x="342" y="31"/>
      <point x="327" y="47" type="curve" smooth="yes"/>
      <point x="216" y="171" type="line" smooth="yes"/>
      <point x="202" y="187"/>
      <point x="203" y="213"/>
      <point x="219" y="228" type="curve" smooth="yes"/>
      <point x="235" y="242"/>
      <point x="261" y="241"/>
    </contour>
    <contour>
      <point x="387" y="299" type="curve" smooth="yes"/>
      <point x="276" y="175" type="line" smooth="yes"/>
      <point x="261" y="159"/>
      <point x="235" y="158"/>
      <point x="219" y="172" type="curve" smooth="yes"/>
      <point x="203" y="187"/>
      <point x="202" y="213"/>
      <point x="216" y="229" type="curve" smooth="yes"/>
      <point x="327" y="353" type="line" smooth="yes"/>
      <point x="342" y="369"/>
      <point x="368" y="370"/>
      <point x="384" y="356" type="curve" smooth="yes"/>
      <point x="400" y="341"/>
      <point x="401" y="315"/>
    </contour>
    <contour>
      <point x="106" y="225" type="curve" smooth="yes"/>
      <point x="217" y="101" type="line" smooth="yes"/>
      <point x="231" y="85"/>
      <point x="230" y="59"/>
      <point x="214" y="44" type="curve" smooth="yes"/>
      <point x="198" y="30"/>
      <point x="172" y="31"/>
      <point x="157" y="47" type="curve" smooth="yes"/>
      <point x="46" y="171" type="line" smooth="yes"/>
      <point x="32" y="187"/>
      <point x="33" y="213"/>
      <point x="49" y="228" type="curve" smooth="yes"/>
      <point x="65" y="242"/>
      <point x="91" y="241"/>
    </contour>
    <contour>
      <point x="217" y="299" type="curve" smooth="yes"/>
      <point x="106" y="175" type="line" smooth="yes"/>
      <point x="91" y="159"/>
      <point x="65" y="158"/>
      <point x="49" y="172" type="curve" smooth="yes"/>
      <point x="33" y="187"/>
      <point x="32" y="213"/>
      <point x="46" y="229" type="curve" smooth="yes"/>
      <point x="157" y="353" type="line" smooth="yes"/>
      <point x="172" y="369"/>
      <point x="198" y="370"/>
      <point x="214" y="356" type="curve" smooth="yes"/>
      <point x="230" y="341"/>
      <point x="231" y="315"/>
    </contour>
  </outline>
</glyph>
<glyph name="logicalnot" format="1">
  <advance width="491"/>
  <unicode hex="00AC"/>
  <outline>
    <contour>
      <point x="114" y="299" type="curve" smooth="yes"/>
      <point x="377" y="299" type="line" smooth="yes"/>
      <point x="399" y="299"/>
      <point x="417" y="281"/>
      <point x="417" y="259" type="curve" smooth="yes"/>
      <point x="417" y="237"/>
      <point x="399" y="219"/>
      <point x="377" y="219" type="curve" smooth="yes"/>
      <point x="114" y="219" type="line" smooth="yes"/>
      <point x="92" y="219"/>
      <point x="74" y="237"/>
      <point x="74" y="259" type="curve" smooth="yes"/>
      <point x="74" y="281"/>
      <point x="92" y="299"/>
    </contour>
    <contour>
      <point x="417" y="253" type="curve" smooth="yes"/>
      <point x="417" y="152" type="line" smooth="yes"/>
      <point x="417" y="130"/>
      <point x="399" y="112"/>
      <point x="377" y="112" type="curve" smooth="yes"/>
      <point x="355" y="112"/>
      <point x="337" y="130"/>
      <point x="337" y="152" type="curve" smooth="yes"/>
      <point x="337" y="253" type="line" smooth="yes"/>
      <point x="337" y="275"/>
      <point x="355" y="293"/>
      <point x="377" y="293" type="curve" smooth="yes"/>
      <point x="399" y="293"/>
      <point x="417" y="275"/>
    </contour>
  </outline>
</glyph>
<glyph name="registered" format="1">
  <advance width="570"/>
  <unicode hex="00AE"/>
  <outline>
    <contour>
      <point x="282" y="569" type="curve" smooth="yes"/>
      <point x="192" y="569"/>
      <point x="130" y="506"/>
      <point x="130" y="416" type="curve" smooth="yes"/>
      <point x="130" y="330"/>
      <point x="192" y="256"/>
      <point x="289" y="256" type="curve" smooth="yes"/>
      <point x="379" y="256"/>
      <point x="446" y="323"/>
      <point x="446" y="413" type="curve" smooth="yes"/>
      <point x="446" y="503"/>
      <point x="378" y="569"/>
    </contour>
    <contour>
      <point x="240" y="427" type="curve" smooth="yes"/>
      <point x="287" y="427" type="line" smooth="yes"/>
      <point x="301" y="427"/>
      <point x="310" y="434"/>
      <point x="310" y="446" type="curve" smooth="yes"/>
      <point x="310" y="459"/>
      <point x="298" y="462"/>
      <point x="287" y="462" type="curve" smooth="yes"/>
      <point x="230" y="462" type="line"/>
      <point x="270" y="502" type="line"/>
      <point x="270" y="326" type="line" smooth="yes"/>
      <point x="270" y="304"/>
      <point x="252" y="286"/>
      <point x="230" y="286" type="curve" smooth="yes"/>
      <point x="208" y="286"/>
      <point x="190" y="304"/>
      <point x="190" y="326" type="curve" smooth="yes"/>
      <point x="190" y="502" type="line" smooth="yes"/>
      <point x="190" y="524"/>
      <point x="208" y="542"/>
      <point x="230" y="542" type="curve" smooth="yes"/>
      <point x="287" y="542" type="line" smooth="yes"/>
      <point x="352" y="542"/>
      <point x="390" y="503"/>
      <point x="390" y="446" type="curve" smooth="yes"/>
      <point x="390" y="394"/>
      <point x="359" y="347"/>
      <point x="287" y="347" type="curve" smooth="yes"/>
      <point x="240" y="347" type="line" smooth="yes"/>
      <point x="218" y="347"/>
      <point x="200" y="365"/>
      <point x="200" y="387" type="curve" smooth="yes"/>
      <point x="200" y="409"/>
      <point x="218" y="427"/>
    </contour>
    <contour>
      <point x="344" y="407" type="curve" smooth="yes"/>
      <point x="391" y="352" type="line" smooth="yes"/>
      <point x="405" y="336"/>
      <point x="403" y="310"/>
      <point x="387" y="296" type="curve" smooth="yes"/>
      <point x="371" y="282"/>
      <point x="345" y="284"/>
      <point x="331" y="300" type="curve" smooth="yes"/>
      <point x="284" y="355" type="line" smooth="yes"/>
      <point x="270" y="371"/>
      <point x="272" y="397"/>
      <point x="288" y="411" type="curve" smooth="yes"/>
      <point x="304" y="425"/>
      <point x="330" y="423"/>
    </contour>
    <contour>
      <point x="282" y="649" type="curve" smooth="yes"/>
      <point x="428" y="649"/>
      <point x="526" y="547"/>
      <point x="526" y="413" type="curve" smooth="yes"/>
      <point x="526" y="277"/>
      <point x="425" y="176"/>
      <point x="289" y="176" type="curve" smooth="yes"/>
      <point x="144" y="176"/>
      <point x="50" y="286"/>
      <point x="50" y="416" type="curve" smooth="yes"/>
      <point x="50" y="554"/>
      <point x="144" y="649"/>
    </contour>
  </outline>
</glyph>
<glyph name="macron" format="1">
  <advance width="500"/>
  <unicode hex="00AF"/>
  <outline>
    <contour>
      <point x="355" y="504" type="curve" smooth="yes"/>
      <point x="146" y="504" type="line" smooth="yes"/>
      <point x="124" y="504"/>
      <point x="106" y="522"/>
      <point x="106" y="544" type="curve" smooth="yes"/>
      <point x="106" y="566"/>
      <point x="124" y="584"/>
      <point x="146" y="584" type="curve" smooth="yes"/>
      <point x="355" y="584" type="line" smooth="yes"/>
      <point x="377" y="584"/>
      <point x="395" y="566"/>
      <point x="395" y="544" type="curve" smooth="yes"/>
      <point x="395" y="522"/>
      <point x="377" y="504"/>
    </contour>
  </outline>
</glyph>
<glyph name="degree" format="1">
  <advance width="369"/>
  <unicode hex="00B0"/>
  <outline>
    <contour>
      <point x="185" y="563" type="curve" smooth="yes"/>
      <point x="274" y="563"/>
      <point x="328" y="500"/>
      <point x="328" y="419" type="curve" smooth="yes"/>
      <point x="328" y="343"/>
      <point x="273" y="280"/>
      <point x="185" y="280" type="curve" smooth="yes"/>
      <point x="95" y="280"/>
      <point x="41" y="341"/>
      <point x="41" y="419" type="curve"/>
      <point x="41" y="498"/>
      <point x="94" y="563"/>
    </contour>
    <contour>
      <point x="185" y="483" type="curve" smooth="yes"/>
      <point x="144" y="483"/>
      <point x="121" y="454"/>
      <point x="121" y="419" type="curve"/>
      <point x="121" y="385"/>
      <point x="147" y="360"/>
      <point x="185" y="360" type="curve" smooth="yes"/>
      <point x="223" y="360"/>
      <point x="248" y="385"/>
      <point x="248" y="419" type="curve" smooth="yes"/>
      <point x="248" y="454"/>
      <point x="224" y="483"/>
    </contour>
  </outline>
</glyph>
<glyph name="plusminus" format="1">
  <advance width="491"/>
  <unicode hex="00B1"/>
  <outline>
    <contour>
      <point x="92" y="356" type="curve" smooth="yes"/>
      <point x="398" y="356" type="line" smooth="yes"/>
      <point x="420" y="356"/>
      <point x="438" y="338"/>
      <point x="438" y="316" type="curve" smooth="yes"/>
      <point x="438" y="294"/>
      <point x="420" y="276"/>
      <point x="398" y="276" type="curve" smooth="yes"/>
      <point x="92" y="276" type="line" smooth="yes"/>
      <point x="70" y="276"/>
      <point x="52" y="294"/>
      <point x="52" y="316" type="curve" smooth="yes"/>
      <point x="52" y="338"/>
      <point x="70" y="356"/>
    </contour>
    <contour>
      <point x="205" y="207" type="curve" smooth="yes"/>
      <point x="205" y="424" type="line" smooth="yes"/>
      <point x="205" y="446"/>
      <point x="223" y="464"/>
      <point x="245" y="464" type="curve" smooth="yes"/>
      <point x="267" y="464"/>
      <point x="285" y="446"/>
      <point x="285" y="424" type="curve" smooth="yes"/>
      <point x="285" y="207" type="line" smooth="yes"/>
      <point x="285" y="185"/>
      <point x="267" y="167"/>
      <point x="245" y="167" type="curve" smooth="yes"/>
      <point x="223" y="167"/>
      <point x="205" y="185"/>
    </contour>
    <contour>
      <point x="92" y="132" type="curve" smooth="yes"/>
      <point x="398" y="132" type="line" smooth="yes"/>
      <point x="420" y="132"/>
      <point x="438" y="114"/>
      <point x="438" y="92" type="curve" smooth="yes"/>
      <point x="438" y="70"/>
      <point x="420" y="52"/>
      <point x="398" y="52" type="curve" smooth="yes"/>
      <point x="92" y="52" type="line" smooth="yes"/>
      <point x="70" y="52"/>
      <point x="52" y="70"/>
      <point x="52" y="92" type="curve" smooth="yes"/>
      <point x="52" y="114"/>
      <point x="70" y="132"/>
    </contour>
  </outline>
</glyph>
<glyph name="acute" format="1">
  <advance width="500"/>
  <unicode hex="00B4"/>
  <outline>
    <contour>
      <point x="314" y="570" type="curve" smooth="yes"/>
      <point x="282" y="536"/>
      <point x="263" y="513"/>
      <point x="245" y="484" type="curve" smooth="yes"/>
      <point x="233" y="466"/>
      <point x="207" y="461"/>
      <point x="189" y="472" type="curve" smooth="yes"/>
      <point x="171" y="484"/>
      <point x="166" y="510"/>
      <point x="177" y="528" type="curve" smooth="yes"/>
      <point x="199" y="561"/>
      <point x="220" y="586"/>
      <point x="256" y="624" type="curve" smooth="yes"/>
      <point x="271" y="640"/>
      <point x="297" y="641"/>
      <point x="312" y="626" type="curve" smooth="yes"/>
      <point x="328" y="611"/>
      <point x="329" y="585"/>
    </contour>
  </outline>
</glyph>
<glyph name="paragraph" format="1">
  <advance width="566"/>
  <unicode hex="00B6"/>
  <outline>
    <contour>
      <point x="398" y="33" type="curve" smooth="yes"/>
      <point x="398" y="518" type="line"/>
      <point x="438" y="478" type="line"/>
      <point x="250" y="478" type="line" smooth="yes"/>
      <point x="175" y="478"/>
      <point x="122" y="433"/>
      <point x="122" y="364" type="curve"/>
      <point x="122" y="299"/>
      <point x="166" y="249"/>
      <point x="250" y="249" type="curve" smooth="yes"/>
      <point x="306" y="249" type="line" smooth="yes"/>
      <point x="328" y="249"/>
      <point x="346" y="231"/>
      <point x="346" y="209" type="curve" smooth="yes"/>
      <point x="346" y="187"/>
      <point x="328" y="169"/>
      <point x="306" y="169" type="curve" smooth="yes"/>
      <point x="250" y="169" type="line" smooth="yes"/>
      <point x="108" y="169"/>
      <point x="42" y="259"/>
      <point x="42" y="364" type="curve"/>
      <point x="42" y="475"/>
      <point x="123" y="558"/>
      <point x="250" y="558" type="curve" smooth="yes"/>
      <point x="438" y="558" type="line" smooth="yes"/>
      <point x="460" y="558"/>
      <point x="478" y="540"/>
      <point x="478" y="518" type="curve" smooth="yes"/>
      <point x="478" y="33" type="line" smooth="yes"/>
      <point x="478" y="11"/>
      <point x="460" y="-7"/>
      <point x="438" y="-7" type="curve" smooth="yes"/>
      <point x="416" y="-7"/>
      <point x="398" y="11"/>
    </contour>
    <contour>
      <point x="266" y="33" type="curve" smooth="yes"/>
      <point x="266" y="516" type="line" smooth="yes"/>
      <point x="266" y="538"/>
      <point x="284" y="556"/>
      <point x="306" y="556" type="curve" smooth="yes"/>
      <point x="328" y="556"/>
      <point x="346" y="538"/>
      <point x="346" y="516" type="curve" smooth="yes"/>
      <point x="346" y="33" type="line" smooth="yes"/>
      <point x="346" y="11"/>
      <point x="328" y="-7"/>
      <point x="306" y="-7" type="curve" smooth="yes"/>
      <point x="284" y="-7"/>
      <point x="266" y="11"/>
    </contour>
  </outline>
</glyph>
<glyph name="cedilla" format="1">
  <advance width="500"/>
  <unicode hex="00B8"/>
  <outline>
    <contour>
      <point x="321" y="-102" type="curve" smooth="yes"/>
      <point x="296" y="-127"/>
      <point x="256" y="-166"/>
      <point x="233" y="-189" type="curve" smooth="yes"/>
      <point x="218" y="-205"/>
      <point x="192" y="-205"/>
      <point x="177" y="-189" type="curve" smooth="yes"/>
      <point x="161" y="-174"/>
      <point x="161" y="-148"/>
      <point x="177" y="-133" type="curve" smooth="yes"/>
      <point x="200" y="-110"/>
      <point x="240" y="-71"/>
      <point x="265" y="-46" type="curve" smooth="yes"/>
      <point x="280" y="-30"/>
      <point x="306" y="-30"/>
      <point x="321" y="-46" type="curve" smooth="yes"/>
      <point x="337" y="-61"/>
      <point x="337" y="-87"/>
    </contour>
  </outline>
</glyph>
<glyph name="ordmasculine" format="1">
  <advance width="448"/>
  <unicode hex="00BA"/>
  <outline>
    <contour>
      <point x="224" y="557" type="curve" smooth="yes"/>
      <point x="317" y="557"/>
      <point x="377" y="486"/>
      <point x="377" y="401" type="curve" smooth="yes"/>
      <point x="377" y="314"/>
      <point x="318" y="249"/>
      <point x="224" y="249" type="curve" smooth="yes"/>
      <point x="130" y="249"/>
      <point x="70" y="315"/>
      <point x="70" y="401" type="curve"/>
      <point x="70" y="486"/>
      <point x="129" y="557"/>
    </contour>
    <contour>
      <point x="224" y="477" type="curve" smooth="yes"/>
      <point x="177" y="477"/>
      <point x="150" y="442"/>
      <point x="150" y="401" type="curve" smooth="yes"/>
      <point x="150" y="359"/>
      <point x="180" y="329"/>
      <point x="224" y="329" type="curve" smooth="yes"/>
      <point x="268" y="329"/>
      <point x="297" y="360"/>
      <point x="297" y="401" type="curve" smooth="yes"/>
      <point x="297" y="442"/>
      <point x="269" y="477"/>
    </contour>
    <contour>
      <point x="103" y="214" type="curve" smooth="yes"/>
      <point x="352" y="214" type="line" smooth="yes"/>
      <point x="374" y="214"/>
      <point x="392" y="196"/>
      <point x="392" y="174" type="curve" smooth="yes"/>
      <point x="392" y="152"/>
      <point x="374" y="134"/>
      <point x="352" y="134" type="curve" smooth="yes"/>
      <point x="103" y="134" type="line" smooth="yes"/>
      <point x="81" y="134"/>
      <point x="63" y="152"/>
      <point x="63" y="174" type="curve" smooth="yes"/>
      <point x="63" y="196"/>
      <point x="81" y="214"/>
    </contour>
  </outline>
</glyph>
<glyph name="onequarter" format="1">
  <advance width="724"/>
  <unicode hex="00BC"/>
  <outline>
    <contour>
      <point x="532" y="498" type="curve" smooth="yes"/>
      <point x="249" y="13" type="line" smooth="yes"/>
      <point x="238" y="-6"/>
      <point x="212" y="-12"/>
      <point x="194" y="-2" type="curve" smooth="yes"/>
      <point x="175" y="9"/>
      <point x="169" y="35"/>
      <point x="179" y="53" type="curve" smooth="yes"/>
      <point x="462" y="538" type="line" smooth="yes"/>
      <point x="473" y="557"/>
      <point x="499" y="563"/>
      <point x="517" y="553" type="curve" smooth="yes"/>
      <point x="536" y="542"/>
      <point x="542" y="516"/>
    </contour>
    <contour>
      <point x="600" y="294" type="curve" smooth="yes"/>
      <point x="600" y="34" type="line" smooth="yes"/>
      <point x="600" y="12"/>
      <point x="582" y="-6"/>
      <point x="560" y="-6" type="curve" smooth="yes"/>
      <point x="538" y="-6"/>
      <point x="520" y="12"/>
      <point x="520" y="34" type="curve" smooth="yes"/>
      <point x="520" y="294" type="line" smooth="yes"/>
      <point x="520" y="316"/>
      <point x="538" y="334"/>
      <point x="560" y="334" type="curve" smooth="yes"/>
      <point x="582" y="334"/>
      <point x="600" y="316"/>
    </contour>
    <contour>
      <point x="586" y="263" type="curve" smooth="yes"/>
      <point x="432" y="83" type="line" smooth="yes"/>
      <point x="418" y="67"/>
      <point x="392" y="65"/>
      <point x="376" y="79" type="curve" smooth="yes"/>
      <point x="360" y="93"/>
      <point x="358" y="119"/>
      <point x="372" y="135" type="curve" smooth="yes"/>
      <point x="526" y="315" type="line" smooth="yes"/>
      <point x="540" y="331"/>
      <point x="566" y="333"/>
      <point x="582" y="319" type="curve" smooth="yes"/>
      <point x="598" y="305"/>
      <point x="600" y="279"/>
    </contour>
    <contour>
      <point x="407" y="149" type="curve" smooth="yes"/>
      <point x="622" y="149" type="line" smooth="yes"/>
      <point x="644" y="149"/>
      <point x="662" y="131"/>
      <point x="662" y="109" type="curve" smooth="yes"/>
      <point x="662" y="87"/>
      <point x="644" y="69"/>
      <point x="622" y="69" type="curve" smooth="yes"/>
      <point x="407" y="69" type="line" smooth="yes"/>
      <point x="385" y="69"/>
      <point x="367" y="87"/>
      <point x="367" y="109" type="curve" smooth="yes"/>
      <point x="367" y="131"/>
      <point x="385" y="149"/>
    </contour>
    <contour>
      <point x="247" y="525" type="curve" smooth="yes"/>
      <point x="247" y="267" type="line" smooth="yes"/>
      <point x="247" y="245"/>
      <point x="229" y="227"/>
      <point x="207" y="227" type="curve" smooth="yes"/>
      <point x="185" y="227"/>
      <point x="167" y="245"/>
      <point x="167" y="267" type="curve" smooth="yes"/>
      <point x="167" y="525" type="line" smooth="yes"/>
      <point x="167" y="547"/>
      <point x="185" y="565"/>
      <point x="207" y="565" type="curve" smooth="yes"/>
      <point x="229" y="565"/>
      <point x="247" y="547"/>
    </contour>
    <contour>
      <point x="226" y="493" type="curve" smooth="yes"/>
      <point x="144" y="449" type="line" smooth="yes"/>
      <point x="125" y="439"/>
      <point x="100" y="446"/>
      <point x="90" y="465" type="curve" smooth="yes"/>
      <point x="80" y="484"/>
      <point x="87" y="509"/>
      <point x="106" y="519" type="curve" smooth="yes"/>
      <point x="188" y="563" type="line" smooth="yes"/>
      <point x="207" y="573"/>
      <point x="232" y="566"/>
      <point x="242" y="547" type="curve" smooth="yes"/>
      <point x="252" y="528"/>
      <point x="245" y="503"/>
    </contour>
  </outline>
</glyph>
